<svg width="618" height="561" viewBox="0 0 618 561" fill="none" xmlns="http://www.w3.org/2000/svg">
<g clip-path="url(#clip0_381_1050)">
<path d="M311.669 416.883C437.336 416.883 539.209 355.53 539.209 279.847C539.209 204.164 437.336 142.812 311.669 142.812C186.002 142.812 84.1289 204.164 84.1289 279.847C84.1289 355.53 186.002 416.883 311.669 416.883Z" stroke="#283C43" stroke-miterlimit="10"/>
<path opacity="0.2" d="M503.671 321.769C566.813 321.769 618.001 290.942 618.001 252.915C618.001 214.888 566.813 184.061 503.671 184.061C440.528 184.061 389.341 214.888 389.341 252.915C389.341 290.942 440.528 321.769 503.671 321.769Z" fill="#283C43"/>
<path d="M389.346 210.144V226.831C389.346 264.862 440.531 295.685 503.67 295.685C566.809 295.685 618 264.862 618 226.831V210.144H389.346Z" fill="#18C2A4"/>
<path d="M503.671 278.998C566.813 278.998 618.001 248.171 618.001 210.143C618.001 172.116 566.813 141.289 503.671 141.289C440.528 141.289 389.341 172.116 389.341 210.143C389.341 248.171 440.528 278.998 503.671 278.998Z" fill="#70ECBF"/>
<path opacity="0.2" d="M133.335 304.153C196.477 304.153 247.665 273.326 247.665 235.299C247.665 197.271 196.477 166.444 133.335 166.444C70.1921 166.444 19.0049 197.271 19.0049 235.299C19.0049 273.326 70.1921 304.153 133.335 304.153Z" fill="#283C43"/>
<path d="M19.0049 192.528V209.221C19.0049 247.246 70.1901 278.07 133.335 278.07C196.479 278.07 247.659 247.246 247.659 209.221V192.528H19.0049Z" fill="#0099CC"/>
<path d="M133.335 261.388C196.477 261.388 247.665 230.561 247.665 192.534C247.665 154.507 196.477 123.68 133.335 123.68C70.1921 123.68 19.0049 154.507 19.0049 192.534C19.0049 230.561 70.1921 261.388 133.335 261.388Z" fill="#38C2E0"/>
<path opacity="0.2" d="M294.349 528.084C357.492 528.084 408.679 497.257 408.679 459.229C408.679 421.202 357.492 390.375 294.349 390.375C231.207 390.375 180.02 421.202 180.02 459.229C180.02 497.257 231.207 528.084 294.349 528.084Z" fill="#283C43"/>
<path d="M180.024 416.458V433.146C180.024 471.17 231.21 501.994 294.349 501.994C357.488 501.994 408.679 471.176 408.679 433.146V416.458H180.024Z" fill="#D28A3C"/>
<path d="M294.349 485.318C357.492 485.318 408.679 454.491 408.679 416.464C408.679 378.437 357.492 347.609 294.349 347.609C231.207 347.609 180.02 378.437 180.02 416.464C180.02 454.491 231.207 485.318 294.349 485.318Z" fill="#F4AD53"/>
<path d="M16.7828 327.584H75.3076C79.7587 327.584 84.0275 329.353 87.1749 332.501C90.3223 335.65 92.0904 339.921 92.0904 344.373C92.0904 346.578 91.6563 348.761 90.8129 350.798C89.9695 352.835 88.7333 354.686 87.1749 356.245C85.6164 357.804 83.7663 359.041 81.7301 359.885C79.6939 360.728 77.5116 361.163 75.3076 361.163H16.7828C12.3317 361.163 8.06294 359.394 4.91556 356.245C1.76818 353.097 0 348.826 0 344.373C0 339.921 1.76818 335.65 4.91556 332.501C8.06294 329.353 12.3317 327.584 16.7828 327.584Z" fill="#F5F9FB"/>
<path d="M13 345.227V350.98H11.9766V337.133H16.2627C16.8161 337.097 17.3709 337.175 17.8929 337.362C18.4148 337.549 18.8929 337.841 19.2975 338.221C19.702 338.6 20.0245 339.058 20.245 339.567C20.4654 340.076 20.5792 340.625 20.5792 341.18C20.5792 341.735 20.4654 342.283 20.245 342.792C20.0245 343.301 19.702 343.76 19.2975 344.139C18.8929 344.518 18.4148 344.811 17.8929 344.998C17.3709 345.185 16.8161 345.263 16.2627 345.227H13ZM13 344.254H16.2684C16.6949 344.287 17.1233 344.225 17.5237 344.075C17.9241 343.924 18.2869 343.688 18.5868 343.383C19.1117 342.777 19.3884 341.995 19.3614 341.194C19.3897 340.386 19.1132 339.596 18.5868 338.982C18.2893 338.673 17.9272 338.434 17.5264 338.281C17.1256 338.129 16.696 338.067 16.2684 338.1H13V344.254Z" fill="#283C43"/>
<path d="M28.612 349.294C28.347 349.86 27.9326 350.344 27.4133 350.691C26.8794 351.023 26.2604 351.192 25.6321 351.178C25.186 351.192 24.7432 351.097 24.3429 350.899C23.9425 350.702 23.5968 350.409 23.3363 350.047C22.7859 349.311 22.5107 348.18 22.5107 346.652V340.685H23.5342V346.681C23.4551 347.62 23.6517 348.561 24.0997 349.39C24.2809 349.655 24.5265 349.869 24.8134 350.013C25.1003 350.156 25.419 350.224 25.7395 350.211C26.407 350.248 27.0661 350.048 27.5999 349.645C28.0781 349.223 28.4156 348.664 28.5668 348.044V340.69H29.5903V350.986H28.6855L28.612 349.294Z" fill="#283C43"/>
<path d="M36.3817 341.669L35.6183 341.613C35.3269 341.601 35.0361 341.648 34.7632 341.751C34.4903 341.854 34.2408 342.011 34.0294 342.212C33.586 342.673 33.2804 343.249 33.1473 343.875V350.98H32.1182V340.685H33.0172L33.1473 342.382V342.495C33.3741 341.918 33.7438 341.408 34.2217 341.013C34.6813 340.655 35.2508 340.467 35.8332 340.481C35.9603 340.481 36.0871 340.492 36.2121 340.515L36.5174 340.583L36.3817 341.669Z" fill="#283C43"/>
<path d="M41.2841 350.211C41.9414 350.218 42.5795 349.989 43.0823 349.566C43.3417 349.347 43.5471 349.072 43.6825 348.761C43.8179 348.449 43.8795 348.111 43.8626 347.772H44.773V347.829C44.7964 348.279 44.7163 348.728 44.5389 349.142C44.3614 349.556 44.0914 349.923 43.7495 350.216C43.0775 350.842 42.191 351.186 41.2728 351.178C40.7041 351.203 40.1383 351.084 39.6275 350.833C39.1166 350.582 38.6771 350.207 38.3494 349.741C37.6239 348.646 37.2636 347.349 37.3202 346.036V345.634C37.2677 344.325 37.6298 343.032 38.355 341.94C38.681 341.475 39.1184 341.1 39.6272 340.848C40.136 340.596 40.6998 340.475 41.2671 340.498C41.7373 340.485 42.2052 340.567 42.6426 340.74C43.0799 340.913 43.4777 341.173 43.8117 341.505C44.1538 341.848 44.4186 342.26 44.5884 342.713C44.7581 343.167 44.8287 343.652 44.7956 344.135V344.192H43.8795C43.8974 343.828 43.8398 343.466 43.7104 343.126C43.5809 342.786 43.3824 342.477 43.1275 342.217C42.8881 341.976 42.6023 341.786 42.2874 341.659C41.9725 341.532 41.635 341.47 41.2954 341.476C40.854 341.451 40.4142 341.549 40.0249 341.759C39.6356 341.968 39.312 342.282 39.0901 342.664C38.5839 343.572 38.3374 344.601 38.3776 345.64V346.03C38.3336 347.075 38.5781 348.113 39.0845 349.028C39.3081 349.408 39.6314 349.718 40.0192 349.927C40.407 350.135 40.8445 350.233 41.2841 350.211Z" fill="#283C43"/>
<path d="M47.9622 342.45C48.2368 341.869 48.6625 341.373 49.1949 341.013C49.726 340.663 50.3514 340.483 50.9874 340.498C51.4175 340.472 51.8477 340.55 52.2414 340.725C52.6352 340.9 52.9809 341.168 53.2492 341.505C53.7694 342.18 54.0295 343.223 54.0295 344.633V350.98H53.006V344.605C53.0815 343.757 52.8705 342.909 52.4067 342.195C52.2101 341.954 51.96 341.763 51.6762 341.636C51.3924 341.51 51.0829 341.451 50.7725 341.466C50.13 341.445 49.503 341.665 49.0139 342.082C48.5228 342.521 48.1627 343.086 47.9735 343.717V350.98H46.9443V336.143H47.9735L47.9622 342.45Z" fill="#283C43"/>
<path d="M62.551 350.98C62.4831 350.63 62.4322 350.33 62.404 350.075C62.3765 349.82 62.3633 349.563 62.3644 349.306C62.0147 349.85 61.547 350.308 60.996 350.647C60.4171 351.004 59.748 351.189 59.0678 351.178C58.6816 351.201 58.295 351.142 57.9334 351.005C57.5718 350.867 57.2434 350.655 56.9699 350.381C56.4476 349.795 56.1773 349.027 56.2178 348.243C56.2105 347.802 56.3095 347.367 56.5064 346.973C56.7033 346.579 56.9922 346.238 57.3488 345.98C58.2225 345.369 59.2756 345.068 60.34 345.126H62.387V343.825C62.4059 343.503 62.3578 343.181 62.2459 342.88C62.134 342.578 61.9606 342.302 61.7367 342.071C61.4969 341.853 61.2157 341.684 60.9097 341.577C60.6038 341.469 60.2793 341.423 59.9555 341.443C59.3089 341.421 58.6763 341.634 58.1743 342.043C57.9541 342.218 57.7764 342.441 57.655 342.694C57.5335 342.948 57.4713 343.226 57.4732 343.508H56.5289V343.451C56.5184 343.058 56.598 342.667 56.7617 342.309C56.9254 341.952 57.1687 341.636 57.4732 341.387C58.1717 340.77 59.0809 340.445 60.0121 340.481C60.9151 340.438 61.7994 340.749 62.4775 341.347C62.8005 341.671 63.0507 342.06 63.2116 342.488C63.3725 342.916 63.4403 343.374 63.4105 343.83V348.887C63.3959 349.255 63.4035 349.624 63.4331 349.991C63.4677 350.334 63.5282 350.674 63.614 351.009L62.551 350.98ZM59.1865 350.172C59.8793 350.187 60.5601 349.989 61.1373 349.606C61.6817 349.249 62.1086 348.739 62.3644 348.141V345.974H60.3005C59.504 345.933 58.7175 346.167 58.0725 346.636C57.8062 346.822 57.5889 347.07 57.4392 347.359C57.2895 347.648 57.2119 347.968 57.2131 348.294C57.204 348.545 57.2454 348.795 57.3347 349.031C57.4241 349.266 57.5596 349.481 57.7333 349.662C57.927 349.843 58.1562 349.982 58.4064 350.07C58.6566 350.158 58.9222 350.192 59.1865 350.172Z" fill="#283C43"/>
<path d="M71.6548 348.361C71.6564 348.125 71.6101 347.891 71.5187 347.673C71.4273 347.455 71.2928 347.258 71.1232 347.094C70.5666 346.64 69.9025 346.338 69.195 346.217C68.3101 346.046 67.4727 345.685 66.741 345.159C66.4745 344.932 66.2644 344.646 66.127 344.325C65.9896 344.003 65.9288 343.653 65.9493 343.304C65.9441 342.927 66.0213 342.553 66.1757 342.209C66.33 341.865 66.5577 341.559 66.8427 341.312C67.4997 340.749 68.3473 340.457 69.212 340.498C70.1197 340.451 71.0102 340.759 71.6943 341.358C71.9906 341.63 72.2225 341.964 72.3731 342.337C72.5237 342.71 72.5894 343.112 72.5652 343.513V343.57H71.6152C71.6172 343.287 71.5592 343.007 71.4452 342.749C71.3311 342.491 71.1636 342.259 70.9536 342.07C70.7192 341.856 70.4446 341.69 70.1457 341.582C69.8467 341.474 69.5294 341.427 69.212 341.443C68.5942 341.4 67.9846 341.604 67.5156 342.008C67.3389 342.166 67.1972 342.36 67.0998 342.576C67.0024 342.793 66.9514 343.027 66.9502 343.264C66.9448 343.482 66.9854 343.699 67.0691 343.901C67.1529 344.103 67.278 344.285 67.4365 344.435C68.0042 344.858 68.6657 345.137 69.3647 345.25C70.2648 345.43 71.1108 345.817 71.8357 346.381C72.1096 346.621 72.326 346.919 72.4689 347.254C72.6118 347.589 72.6776 347.952 72.6613 348.316C72.6734 348.711 72.5951 349.104 72.4324 349.465C72.2698 349.826 72.027 350.145 71.7226 350.397C70.97 350.932 70.0656 351.212 69.1424 351.195C68.2193 351.177 67.326 350.864 66.5939 350.301C66.2915 350.038 66.0524 349.711 65.8947 349.342C65.7371 348.974 65.6649 348.574 65.6835 348.174V348.112H66.6279C66.6213 348.427 66.6921 348.738 66.834 349.02C66.976 349.301 67.1848 349.543 67.4421 349.724C67.9741 350.067 68.5964 350.242 69.229 350.228C69.8623 350.257 70.4849 350.056 70.9819 349.662C71.1868 349.512 71.3542 349.316 71.471 349.09C71.5877 348.865 71.6506 348.615 71.6548 348.361Z" fill="#283C43"/>
<path d="M78.5141 351.178C77.9545 351.183 77.4013 351.057 76.8994 350.81C76.3974 350.562 75.9608 350.2 75.6246 349.752C74.8364 348.717 74.4362 347.438 74.4937 346.138V345.617C74.4431 344.302 74.842 343.009 75.6246 341.952C75.9379 341.507 76.3526 341.143 76.8345 340.89C77.3163 340.637 77.8513 340.503 78.3954 340.498C78.9048 340.474 79.4127 340.57 79.8782 340.778C80.3438 340.986 80.7539 341.301 81.0756 341.697C81.7614 342.618 82.1017 343.752 82.0369 344.899V345.866H75.5002V346.143C75.4623 347.174 75.7534 348.191 76.3315 349.045C76.5662 349.409 76.8897 349.708 77.2715 349.913C77.6533 350.118 78.0809 350.222 78.5141 350.216C79.0731 350.229 79.6289 350.129 80.1483 349.922C80.584 349.727 80.9704 349.437 81.2792 349.073L81.7146 349.854C81.353 350.272 80.9029 350.604 80.3971 350.827C79.8003 351.073 79.1592 351.192 78.5141 351.178ZM78.3841 341.465C78.0125 341.463 77.6459 341.55 77.3145 341.719C76.9831 341.887 76.6966 342.131 76.4785 342.432C75.9428 343.127 75.6294 343.967 75.5794 344.842V344.893H81.0021V344.605C81.0353 343.791 80.7855 342.992 80.2953 342.342C80.0674 342.056 79.7758 341.828 79.4439 341.676C79.112 341.524 78.749 341.452 78.3841 341.465Z" fill="#283C43"/>
<path d="M495.776 367.526H554.301C558.752 367.526 563.021 369.295 566.168 372.444C569.315 375.592 571.084 379.863 571.084 384.316C571.084 388.768 569.315 393.039 566.168 396.188C563.021 399.336 558.752 401.105 554.301 401.105H495.776C491.325 401.105 487.056 399.336 483.909 396.188C480.761 393.039 478.993 388.768 478.993 384.316C478.993 379.863 480.761 375.592 483.909 372.444C487.056 369.295 491.325 367.526 495.776 367.526Z" fill="#F5F9FB"/>
<path d="M413.14 92.6631H326.342C317.073 92.6631 309.56 100.18 309.56 109.452C309.56 118.725 317.073 126.242 326.342 126.242H413.14C422.409 126.242 429.923 118.725 429.923 109.452C429.923 100.18 422.409 92.6631 413.14 92.6631Z" fill="#F5F9FB"/>
<path d="M331.262 110.823V110.879C331.223 112.095 330.749 113.257 329.928 114.154C329.515 114.559 329.023 114.874 328.483 115.079C327.943 115.285 327.366 115.376 326.789 115.348C326.136 115.364 325.489 115.22 324.904 114.929C324.318 114.639 323.813 114.209 323.431 113.679C322.537 112.421 322.089 110.9 322.158 109.357V107.095C322.092 105.553 322.539 104.033 323.431 102.773C323.81 102.237 324.314 101.803 324.899 101.507C325.485 101.211 326.134 101.063 326.789 101.076C327.366 101.046 327.942 101.135 328.482 101.336C329.023 101.538 329.517 101.847 329.933 102.247C330.763 103.146 331.235 104.316 331.262 105.539V105.596H330.329C330.265 104.625 329.891 103.701 329.26 102.96C328.942 102.646 328.56 102.402 328.142 102.246C327.723 102.089 327.275 102.022 326.829 102.049C326.308 102.04 325.794 102.164 325.335 102.41C324.876 102.655 324.487 103.014 324.205 103.452C323.508 104.52 323.162 105.78 323.216 107.055V109.318C323.158 110.6 323.504 111.869 324.205 112.944C324.487 113.382 324.876 113.74 325.335 113.986C325.794 114.231 326.308 114.356 326.829 114.347C327.275 114.373 327.721 114.308 328.141 114.154C328.56 114 328.943 113.762 329.266 113.453C329.898 112.716 330.271 111.792 330.329 110.823H331.262Z" fill="#283C43"/>
<path d="M333.06 109.849C333.008 108.514 333.406 107.201 334.191 106.121C334.544 105.668 334.995 105.302 335.511 105.051C336.026 104.799 336.592 104.668 337.166 104.668C337.739 104.668 338.305 104.799 338.821 105.051C339.336 105.302 339.787 105.668 340.14 106.121C340.925 107.201 341.323 108.514 341.271 109.849V110.143C341.325 111.479 340.927 112.795 340.14 113.876C339.786 114.328 339.334 114.693 338.818 114.944C338.303 115.195 337.736 115.326 337.163 115.326C336.589 115.326 336.023 115.195 335.507 114.944C334.991 114.693 334.54 114.328 334.186 113.876C333.399 112.795 333 111.479 333.055 110.143L333.06 109.849ZM334.09 110.16C334.052 111.22 334.334 112.266 334.898 113.164C335.145 113.538 335.481 113.846 335.875 114.058C336.27 114.271 336.712 114.383 337.16 114.383C337.608 114.383 338.05 114.271 338.445 114.058C338.839 113.846 339.175 113.538 339.422 113.164C339.988 112.267 340.272 111.22 340.236 110.16V109.843C340.27 108.789 339.984 107.75 339.416 106.862C339.173 106.482 338.839 106.17 338.443 105.954C338.048 105.738 337.605 105.624 337.154 105.624C336.704 105.624 336.26 105.738 335.865 105.954C335.47 106.17 335.135 106.482 334.892 106.862C334.33 107.752 334.049 108.791 334.084 109.843L334.09 110.16Z" fill="#283C43"/>
<path d="M344.257 104.855L344.347 106.552C344.615 105.991 345.024 105.509 345.535 105.154C346.06 104.817 346.675 104.645 347.299 104.662C347.939 104.637 348.567 104.837 349.074 105.228C349.607 105.678 349.975 106.293 350.12 106.976C350.362 106.315 350.773 105.729 351.314 105.279C351.854 104.865 352.521 104.649 353.202 104.668C353.64 104.65 354.075 104.74 354.47 104.93C354.864 105.121 355.206 105.406 355.464 105.76C355.999 106.491 356.269 107.623 356.273 109.154V115.156H355.243V109.114C355.243 107.847 355.04 106.948 354.638 106.422C354.441 106.163 354.183 105.956 353.887 105.819C353.592 105.682 353.267 105.619 352.942 105.635C352.591 105.617 352.24 105.683 351.92 105.828C351.599 105.972 351.318 106.192 351.099 106.467C350.641 107.088 350.363 107.824 350.296 108.594C350.296 108.639 350.296 108.701 350.296 108.78C350.296 108.86 350.296 108.928 350.296 108.961V115.15H349.261V109.114C349.339 108.182 349.123 107.248 348.645 106.444C348.45 106.18 348.193 105.969 347.898 105.828C347.602 105.686 347.276 105.62 346.948 105.635C346.634 105.62 346.321 105.666 346.025 105.772C345.729 105.878 345.456 106.041 345.224 106.252C344.774 106.706 344.464 107.279 344.33 107.904V115.15H343.335V104.855H344.257Z" fill="#283C43"/>
<path d="M359.784 104.854L359.88 106.551C360.146 105.988 360.556 105.506 361.068 105.153C361.593 104.816 362.208 104.644 362.832 104.661C363.472 104.636 364.1 104.836 364.607 105.227C365.13 105.678 365.489 106.288 365.631 106.964C365.872 106.303 366.284 105.717 366.824 105.267C367.365 104.852 368.032 104.636 368.713 104.656C369.15 104.637 369.586 104.728 369.98 104.918C370.375 105.108 370.716 105.393 370.974 105.747C371.513 106.479 371.781 107.61 371.777 109.141V115.143H370.754V109.113C370.754 107.846 370.55 106.947 370.149 106.421C369.951 106.162 369.693 105.955 369.398 105.818C369.102 105.681 368.778 105.618 368.452 105.634C368.101 105.616 367.751 105.682 367.43 105.826C367.109 105.971 366.828 106.19 366.609 106.466C366.151 107.087 365.873 107.823 365.806 108.593C365.806 108.638 365.806 108.7 365.806 108.779C365.806 108.859 365.806 108.926 365.806 108.96V115.149H364.822V109.113C364.822 107.869 364.619 106.981 364.212 106.443C364.017 106.179 363.76 105.968 363.464 105.826C363.169 105.685 362.843 105.619 362.515 105.634C362.201 105.619 361.887 105.665 361.592 105.771C361.296 105.877 361.023 106.04 360.791 106.251C360.341 106.705 360.031 107.278 359.897 107.903V115.149H358.862V104.854H359.784Z" fill="#283C43"/>
<path d="M375.6 101.907H374.582V100.312H375.6V101.907ZM375.6 115.149H374.582V104.854H375.6V115.149Z" fill="#283C43"/>
<path d="M383.98 112.53C383.981 112.294 383.935 112.06 383.844 111.842C383.752 111.624 383.618 111.427 383.448 111.263C382.889 110.81 382.223 110.506 381.514 110.38C380.631 110.214 379.795 109.855 379.066 109.328C378.8 109.101 378.589 108.816 378.452 108.494C378.315 108.172 378.254 107.822 378.274 107.473C378.268 107.096 378.345 106.722 378.499 106.377C378.653 106.033 378.882 105.727 379.168 105.482C379.823 104.919 380.669 104.628 381.531 104.667C382.439 104.619 383.33 104.928 384.014 105.527C384.311 105.798 384.544 106.132 384.696 106.505C384.848 106.878 384.914 107.28 384.89 107.682V107.739H383.94C383.94 107.461 383.882 107.186 383.77 106.932C383.658 106.678 383.495 106.45 383.29 106.262C383.056 106.047 382.781 105.881 382.482 105.773C382.183 105.665 381.866 105.618 381.548 105.634C380.93 105.591 380.321 105.795 379.852 106.2C379.675 106.358 379.534 106.552 379.436 106.768C379.339 106.984 379.288 107.219 379.286 107.456C379.28 107.674 379.32 107.891 379.402 108.092C379.485 108.294 379.609 108.476 379.767 108.627C380.337 109.05 381 109.329 381.701 109.441C382.601 109.623 383.446 110.01 384.172 110.573C384.445 110.813 384.66 111.112 384.802 111.447C384.944 111.781 385.009 112.144 384.992 112.507C385.005 112.902 384.928 113.295 384.766 113.656C384.605 114.017 384.363 114.336 384.059 114.589C383.306 115.124 382.402 115.403 381.479 115.386C380.556 115.369 379.662 115.056 378.93 114.493C378.627 114.231 378.387 113.903 378.229 113.535C378.072 113.166 378 112.766 378.02 112.366V112.304H378.959C378.952 112.619 379.023 112.931 379.167 113.212C379.31 113.494 379.52 113.735 379.778 113.916C380.308 114.258 380.929 114.434 381.56 114.419C382.195 114.449 382.819 114.248 383.318 113.854C383.523 113.699 383.689 113.499 383.804 113.269C383.919 113.04 383.979 112.787 383.98 112.53Z" fill="#283C43"/>
<path d="M392.908 112.53C392.909 112.293 392.861 112.059 392.769 111.841C392.677 111.624 392.541 111.427 392.371 111.263C391.814 110.809 391.15 110.506 390.443 110.38C389.557 110.214 388.72 109.855 387.989 109.328C387.722 109.101 387.512 108.815 387.375 108.493C387.237 108.172 387.176 107.822 387.197 107.473C387.192 107.096 387.269 106.722 387.423 106.378C387.578 106.034 387.805 105.728 388.09 105.481C388.747 104.917 389.595 104.626 390.46 104.667C391.367 104.62 392.258 104.928 392.942 105.527C393.239 105.798 393.471 106.132 393.622 106.505C393.773 106.878 393.838 107.28 393.813 107.682V107.738H392.863C392.864 107.461 392.807 107.187 392.696 106.932C392.585 106.678 392.422 106.45 392.218 106.262C391.984 106.047 391.71 105.881 391.411 105.773C391.112 105.665 390.794 105.618 390.477 105.634C389.859 105.593 389.25 105.796 388.78 106.2C388.604 106.358 388.462 106.551 388.364 106.768C388.267 106.984 388.216 107.218 388.215 107.456C388.209 107.674 388.25 107.891 388.334 108.093C388.418 108.294 388.543 108.476 388.701 108.627C389.27 109.048 389.931 109.328 390.629 109.441C391.53 109.621 392.376 110.008 393.1 110.573C393.374 110.812 393.591 111.111 393.734 111.446C393.876 111.781 393.942 112.143 393.926 112.507C393.939 112.903 393.862 113.296 393.699 113.657C393.536 114.018 393.293 114.337 392.987 114.589C392.286 115.147 391.406 115.431 390.511 115.386C389.544 115.443 388.594 115.123 387.859 114.493C387.556 114.23 387.317 113.902 387.159 113.534C387.002 113.165 386.93 112.766 386.948 112.366V112.303H387.893C387.886 112.618 387.957 112.93 388.099 113.211C388.241 113.492 388.449 113.734 388.707 113.916C389.239 114.257 389.861 114.433 390.494 114.419C391.127 114.448 391.75 114.247 392.247 113.853C392.452 113.699 392.619 113.5 392.734 113.27C392.849 113.04 392.908 112.787 392.908 112.53Z" fill="#283C43"/>
<path d="M397.432 101.907H396.414V100.312H397.432V101.907ZM397.432 115.149H396.414V104.854H397.432V115.149Z" fill="#283C43"/>
<path d="M399.694 109.849C399.641 108.514 400.04 107.201 400.825 106.121C401.178 105.668 401.629 105.302 402.144 105.051C402.66 104.799 403.226 104.668 403.799 104.668C404.373 104.668 404.939 104.799 405.454 105.051C405.97 105.302 406.421 105.668 406.774 106.121C407.559 107.201 407.957 108.514 407.905 109.849V110.143C407.956 111.479 407.558 112.794 406.774 113.876C406.42 114.328 405.968 114.693 405.452 114.944C404.936 115.195 404.37 115.326 403.797 115.326C403.223 115.326 402.657 115.195 402.141 114.944C401.625 114.693 401.173 114.328 400.819 113.876C400.033 112.795 399.634 111.479 399.689 110.143L399.694 109.849ZM400.718 110.16C400.682 111.22 400.966 112.267 401.532 113.164C401.779 113.538 402.114 113.846 402.509 114.058C402.904 114.271 403.345 114.383 403.794 114.383C404.242 114.383 404.684 114.271 405.078 114.058C405.473 113.846 405.809 113.538 406.056 113.164C406.622 112.267 406.905 111.22 406.87 110.16V109.843C406.904 108.789 406.618 107.75 406.05 106.862C405.807 106.482 405.472 106.17 405.077 105.954C404.682 105.738 404.239 105.624 403.788 105.624C403.338 105.624 402.894 105.738 402.499 105.954C402.104 106.17 401.769 106.482 401.526 106.862C400.962 107.752 400.679 108.79 400.712 109.843L400.718 110.16Z" fill="#283C43"/>
<path d="M410.929 104.854L411.025 106.653C411.285 106.064 411.699 105.556 412.224 105.182C412.754 104.831 413.38 104.651 414.016 104.667C414.453 104.64 414.89 104.719 415.29 104.897C415.689 105.076 416.04 105.348 416.312 105.691C416.84 106.37 417.102 107.433 417.098 108.882V115.149H416.074V108.876C416.074 107.694 415.877 106.862 415.475 106.37C415.269 106.123 415.009 105.928 414.714 105.8C414.42 105.673 414.099 105.616 413.779 105.635C413.132 105.609 412.501 105.836 412.02 106.268C411.541 106.732 411.2 107.319 411.036 107.965V115.161H410.013V104.865L410.929 104.854Z" fill="#283C43"/>
<path d="M493.446 385.091V390.844H492.429V376.996H496.715C497.268 376.96 497.823 377.038 498.345 377.225C498.867 377.412 499.345 377.705 499.75 378.084C500.154 378.463 500.477 378.922 500.697 379.431C500.918 379.94 501.031 380.489 501.031 381.043C501.031 381.598 500.918 382.147 500.697 382.656C500.477 383.165 500.154 383.623 499.75 384.002C499.345 384.382 498.867 384.674 498.345 384.861C497.823 385.048 497.268 385.127 496.715 385.091H493.446ZM493.446 384.118H496.715C497.141 384.15 497.57 384.089 497.97 383.938C498.371 383.788 498.733 383.552 499.033 383.247C499.558 382.641 499.835 381.859 499.808 381.057C499.835 380.25 499.561 379.461 499.039 378.846C498.74 378.537 498.377 378.297 497.975 378.145C497.574 377.992 497.143 377.93 496.715 377.963H493.446V384.118Z" fill="#283C43"/>
<path d="M507.198 381.533L506.435 381.476C506.143 381.466 505.853 381.513 505.58 381.616C505.307 381.719 505.058 381.875 504.846 382.076C504.402 382.537 504.097 383.113 503.964 383.739V390.844H502.935V380.537H503.834L503.964 382.234V382.348C504.191 381.77 504.56 381.261 505.038 380.866C505.498 380.507 506.067 380.319 506.65 380.334C506.777 380.333 506.904 380.345 507.028 380.368L507.334 380.436L507.198 381.533Z" fill="#283C43"/>
<path d="M508.086 385.543C508.031 384.208 508.43 382.894 509.217 381.815C509.569 381.363 510.02 380.997 510.535 380.745C511.05 380.493 511.615 380.362 512.189 380.362C512.762 380.362 513.327 380.493 513.842 380.745C514.357 380.997 514.808 381.363 515.16 381.815C515.948 382.894 516.346 384.208 516.291 385.543V385.86C516.345 387.196 515.947 388.512 515.16 389.593C514.807 390.045 514.355 390.41 513.84 390.661C513.325 390.912 512.759 391.043 512.186 391.043C511.613 391.043 511.047 390.912 510.532 390.661C510.016 390.41 509.565 390.045 509.211 389.593C508.422 388.513 508.023 387.197 508.081 385.86L508.086 385.543ZM509.115 385.854C509.079 386.915 509.363 387.961 509.93 388.858C510.175 389.234 510.511 389.542 510.906 389.756C511.301 389.97 511.743 390.082 512.191 390.082C512.64 390.082 513.082 389.97 513.477 389.756C513.872 389.542 514.208 389.234 514.453 388.858C515.022 387.962 515.308 386.915 515.273 385.854V385.537C515.306 384.483 515.018 383.444 514.448 382.556C514.206 382.175 513.871 381.862 513.476 381.645C513.081 381.427 512.637 381.314 512.186 381.314C511.735 381.314 511.291 381.427 510.896 381.645C510.5 381.862 510.166 382.175 509.924 382.556C509.36 383.446 509.076 384.485 509.11 385.537L509.115 385.854Z" fill="#283C43"/>
<path d="M519.282 380.537L519.378 382.234C519.642 381.672 520.05 381.19 520.56 380.837C521.088 380.499 521.704 380.328 522.33 380.345C522.97 380.32 523.598 380.52 524.106 380.91C524.624 381.364 524.983 381.973 525.129 382.647C525.366 381.984 525.778 381.397 526.322 380.95C526.86 380.535 527.526 380.319 528.205 380.339C528.643 380.322 529.078 380.412 529.472 380.603C529.867 380.793 530.208 381.077 530.467 381.431C530.998 382.16 531.27 383.292 531.27 384.825V390.827H530.241V384.808C530.241 383.541 530.043 382.641 529.641 382.115C529.443 381.857 529.185 381.651 528.889 381.514C528.594 381.377 528.27 381.314 527.945 381.329C527.595 381.31 527.245 381.376 526.925 381.521C526.605 381.666 526.325 381.885 526.107 382.16C525.647 382.781 525.369 383.517 525.304 384.287V384.497C525.304 384.582 525.304 384.644 525.304 384.678V390.866H524.27V384.808C524.27 383.563 524.066 382.675 523.659 382.138C523.463 381.875 523.206 381.664 522.911 381.523C522.615 381.382 522.29 381.316 521.962 381.329C521.338 381.305 520.729 381.526 520.266 381.945C519.819 382.401 519.509 382.974 519.373 383.597V390.844H518.338V380.537H519.282Z" fill="#283C43"/>
<path d="M533.38 385.543C533.327 384.209 533.726 382.895 534.511 381.815C534.864 381.363 535.315 380.997 535.83 380.745C536.346 380.493 536.912 380.362 537.485 380.362C538.059 380.362 538.625 380.493 539.14 380.745C539.656 380.997 540.107 381.363 540.459 381.815C541.245 382.895 541.643 384.209 541.59 385.543V385.86C541.645 387.196 541.246 388.512 540.459 389.593C540.106 390.045 539.655 390.41 539.139 390.661C538.624 390.912 538.058 391.043 537.485 391.043C536.912 391.043 536.346 390.912 535.831 390.661C535.316 390.41 534.864 390.045 534.511 389.593C533.724 388.512 533.326 387.196 533.38 385.86V385.543ZM534.403 385.854C534.367 386.915 534.651 387.961 535.218 388.858C535.463 389.234 535.799 389.542 536.194 389.756C536.589 389.97 537.031 390.082 537.479 390.082C537.928 390.082 538.37 389.97 538.765 389.756C539.16 389.542 539.496 389.234 539.741 388.858C540.313 387.963 540.599 386.916 540.561 385.854V385.537C540.595 384.484 540.31 383.444 539.741 382.556C539.498 382.177 539.164 381.864 538.769 381.648C538.373 381.432 537.93 381.318 537.479 381.318C537.029 381.318 536.586 381.432 536.19 381.648C535.795 381.864 535.461 382.177 535.218 382.556C534.654 383.446 534.37 384.485 534.403 385.537V385.854Z" fill="#283C43"/>
<path d="M545.316 377.918V380.537H547.351V381.47H545.316V388.179C545.271 388.679 545.386 389.18 545.644 389.61C545.745 389.746 545.878 389.855 546.03 389.929C546.183 390.003 546.351 390.039 546.52 390.034C546.682 390.043 546.844 390.043 547.006 390.034C547.196 390.019 547.385 389.993 547.572 389.955L547.725 390.804C547.526 390.894 547.317 390.958 547.103 390.996C546.858 391.036 546.61 391.057 546.362 391.058C546.073 391.073 545.785 391.019 545.521 390.9C545.258 390.781 545.026 390.6 544.846 390.374C544.425 389.734 544.226 388.972 544.281 388.207V381.481H542.681V380.537H544.281V377.906L545.316 377.918Z" fill="#283C43"/>
<path d="M553 391.041C552.44 391.047 551.887 390.921 551.385 390.673C550.883 390.425 550.447 390.063 550.111 389.616C549.324 388.579 548.925 387.301 548.98 386.001V385.48C548.925 384.165 549.325 382.871 550.111 381.815C550.421 381.369 550.835 381.004 551.316 380.751C551.797 380.498 552.332 380.364 552.876 380.361C553.385 380.337 553.893 380.433 554.358 380.641C554.824 380.85 555.234 381.164 555.556 381.56C556.246 382.478 556.593 383.609 556.534 384.756V385.724H549.992V386.001C549.954 387.032 550.245 388.048 550.823 388.903C551.058 389.267 551.382 389.565 551.763 389.77C552.145 389.974 552.573 390.079 553.006 390.074C553.565 390.087 554.12 389.987 554.64 389.78C555.075 389.585 555.462 389.295 555.771 388.931L556.212 389.712C555.847 390.129 555.395 390.461 554.889 390.685C554.291 390.933 553.647 391.054 553 391.041ZM552.87 381.328C552.498 381.327 552.132 381.414 551.801 381.582C551.469 381.751 551.183 381.995 550.964 382.296C550.429 382.99 550.115 383.83 550.065 384.705V384.756H555.488V384.496C555.524 383.682 555.274 382.882 554.781 382.233C554.557 381.941 554.267 381.707 553.935 381.55C553.603 381.392 553.238 381.316 552.87 381.328Z" fill="#283C43"/>
<path d="M401.396 203.265L523.059 271.146C524.098 271.725 525.269 272.025 526.458 272.017C527.647 272.009 528.814 271.694 529.845 271.101L605.435 227.68C605.964 227.376 606.402 226.937 606.706 226.408C607.009 225.88 607.167 225.28 607.163 224.67C607.159 224.06 606.993 223.463 606.683 222.938C606.372 222.413 605.928 221.98 605.396 221.684L483.732 153.802C482.694 153.223 481.523 152.922 480.334 152.929C479.145 152.936 477.978 153.25 476.946 153.842L401.356 197.258C400.825 197.561 400.384 198 400.078 198.53C399.773 199.059 399.614 199.661 399.618 200.273C399.622 200.885 399.789 201.484 400.101 202.01C400.414 202.536 400.86 202.969 401.396 203.265Z" fill="#18C2A4"/>
<path d="M605.814 210.704L483.731 146.624C482.693 146.044 481.523 145.742 480.333 145.749C479.144 145.756 477.977 146.071 476.946 146.664L401.355 190.091H401.327C400.598 190.459 399.631 189.05 399.631 189.05V193.089C399.633 193.699 399.799 194.298 400.11 194.823C400.421 195.348 400.867 195.781 401.401 196.076L523.065 263.957C523.585 264.244 524.14 264.463 524.716 264.608H524.755C525.014 264.674 525.276 264.723 525.541 264.755H525.796C525.982 264.755 526.175 264.755 526.361 264.789H527.175C527.347 264.774 527.517 264.747 527.684 264.709L527.984 264.647C528.171 264.602 528.357 264.545 528.55 264.489L528.776 264.41C528.968 264.336 529.155 264.257 529.341 264.166L529.443 264.127C529.573 264.065 529.709 264.008 529.839 263.935L605.429 220.507C607.753 219.161 608.155 212.005 605.814 210.704Z" fill="#D2D2D2"/>
<path d="M401.396 191.952L523.059 259.833C524.098 260.412 525.269 260.711 526.458 260.704C527.647 260.696 528.814 260.38 529.845 259.788L605.435 216.366C605.964 216.062 606.402 215.624 606.706 215.095C607.009 214.566 607.167 213.966 607.163 213.357C607.159 212.747 606.993 212.149 606.683 211.624C606.372 211.1 605.928 210.667 605.396 210.37L483.732 142.489C482.694 141.909 481.523 141.608 480.334 141.615C479.145 141.622 477.978 141.937 476.946 142.528L401.356 185.944C400.825 186.247 400.384 186.686 400.078 187.216C399.773 187.746 399.614 188.348 399.618 188.959C399.622 189.571 399.789 190.171 400.101 190.697C400.414 191.222 400.86 191.656 401.396 191.952Z" fill="#F2F2F2"/>
<path d="M487.391 144.65L605.571 210.591C606.094 210.878 606.683 211.023 607.279 211.013C607.875 211.004 608.459 210.839 608.972 210.535C609.485 210.232 609.911 209.8 610.207 209.282C610.503 208.764 610.659 208.178 610.66 207.582V115.902C610.661 113.449 610.006 111.039 608.765 108.923C607.523 106.807 605.739 105.061 603.598 103.865L485.417 37.9236C485.02 37.7075 484.584 37.5717 484.134 37.524C483.685 37.4764 483.23 37.5179 482.796 37.646C482.362 37.7742 481.958 37.9866 481.606 38.271C481.255 38.5555 480.963 38.9065 480.747 39.3039C480.473 39.8032 480.329 40.3635 480.328 40.933V132.613C480.328 135.066 480.982 137.475 482.224 139.592C483.465 141.708 485.249 143.454 487.391 144.65Z" fill="#283C43"/>
<path opacity="0.15" d="M545.52 80.4164C545.86 80.4164 546.136 80.0339 546.136 79.5622C546.136 79.0904 545.86 78.708 545.52 78.708C545.179 78.708 544.903 79.0904 544.903 79.5622C544.903 80.0339 545.179 80.4164 545.52 80.4164Z" fill="white"/>
<path d="M450.839 209.137L481.373 226.18C482.217 226.651 483.169 226.895 484.135 226.889C485.101 226.883 486.049 226.627 486.887 226.147L504.766 215.874C505.021 215.724 505.232 215.51 505.378 215.254C505.525 214.997 505.602 214.707 505.602 214.412C505.602 214.116 505.525 213.826 505.378 213.569C505.232 213.313 505.021 213.099 504.766 212.949L474.232 195.905C473.388 195.434 472.436 195.19 471.47 195.197C470.504 195.204 469.556 195.462 468.718 195.945L450.822 206.195C450.563 206.344 450.349 206.558 450.199 206.816C450.05 207.075 449.972 207.368 449.972 207.666C449.972 207.964 450.05 208.257 450.199 208.515C450.349 208.773 450.563 208.988 450.822 209.137H450.839Z" fill="#D2D2D2"/>
<path d="M558.288 155.997L507.204 127.549V72.8145L558.288 101.262V155.997Z" fill="#70ECBF"/>
<path d="M585.068 186.652L533.979 158.204V103.469L585.068 131.917V186.652Z" fill="#38C2E0"/>
<path opacity="0.15" d="M480.316 132.612V40.9322C480.316 40.3315 480.473 39.7411 480.771 39.2196C481.069 38.6982 481.499 38.2638 482.016 37.9596C482.534 37.6555 483.123 37.492 483.723 37.4856C484.324 37.4791 484.915 37.6298 485.439 37.9228L563.071 81.2368L493.582 147.987L492.632 147.574L487.385 144.644C485.242 143.45 483.456 141.705 482.214 139.59C480.971 137.475 480.316 135.065 480.316 132.612Z" fill="white"/>
<path d="M472.751 231.758L444.467 215.981L447.379 214.437L475.42 230.23L472.751 231.758Z" fill="#D2D2D2"/>
<path d="M590.954 209.499L589.099 208.452L576.133 201.132L570.659 198.044L568.725 196.952L563.241 193.863L561.307 192.772L559.672 191.85L553.893 188.586L548.414 185.497L546.48 184.405L541.001 181.317L536.624 178.845L533.594 177.148L531.665 176.061L528.007 173.997L524.258 171.881L523.07 171.214L516.85 167.701L511.371 164.606L509.437 163.515L503.958 160.426L502.024 159.334L496.573 156.246L492.174 153.762L485.812 150.17C485.606 150.081 485.382 150.04 485.157 150.052C484.932 150.064 484.713 150.127 484.518 150.238L481.933 151.766L450.72 170.212L450.155 170.546L449.623 170.857L445.524 173.278C445.145 173.505 445.105 173.844 445.439 174.031L450.918 177.125L455.295 179.597L458.331 181.294L460.265 182.386L465.744 185.474L475.086 190.752L482.182 194.751L500.181 204.905L519.248 215.653L521.182 216.745L528.205 220.705L548.148 231.956L550.563 233.319C550.77 233.41 550.995 233.452 551.221 233.44C551.447 233.428 551.667 233.364 551.864 233.252L555.171 231.294L573.537 220.45C573.604 220.43 573.668 220.403 573.73 220.371L578.915 217.305C578.966 217.272 579.015 217.237 579.062 217.198L580.905 216.111L581.007 216.066L586.198 213L586.26 212.955L588.273 211.773L590.852 210.251C591.253 210.025 591.287 209.702 590.954 209.499Z" fill="#D2D2D2"/>
<path d="M123.937 242.144C121.217 243.722 116.795 243.722 114.058 242.144L59.2935 210.505C56.5567 208.927 56.5454 206.364 59.2596 204.786L142.331 156.494C145.045 154.916 149.467 154.916 152.198 156.494L206.968 188.127C209.7 189.705 209.717 192.268 207.002 193.846" fill="#0099CC"/>
<path d="M206.957 182.154C209.688 183.733 209.705 186.295 206.991 187.873L123.937 236.165C121.217 237.743 116.795 237.743 114.058 236.165L59.2935 204.533C56.5567 202.954 56.5454 200.392 59.2596 198.814L142.331 150.522C145.045 148.943 149.467 148.943 152.198 150.522L206.957 182.154Z" fill="#FBD898"/>
<path d="M160.048 65.528C157.826 63.8703 155.171 62.8946 152.405 62.7198C149.639 62.5451 146.882 63.1788 144.469 64.5437L39.4639 125.756L56.8913 202.247C56.6934 201.081 57.3606 199.882 58.893 198.988L142.315 150.493C145.04 148.903 149.479 148.903 152.227 150.493L207.229 182.261C208.965 183.263 209.604 184.66 209.152 185.955H209.322L226.777 104.09L160.048 65.528ZM68.3079 181.023L58.4746 129.636L66.538 124.647L76.3656 176.361L68.3079 181.023ZM81.7318 173.165L74.9124 120.195L82.9702 115.234L89.7896 168.532L81.7318 173.165ZM95.4725 165.172L90.4738 111.274L98.5316 106.279L103.53 160.488L95.4725 165.172ZM109.49 157.541L106.878 102.105L114.936 97.1325L117.548 152.897L109.49 157.541ZM122.948 149.656L122.128 93.2802L130.186 88.2909L131.011 144.994L122.948 149.656ZM172.245 145.9L164.187 141.255L169.525 83.7146L177.583 88.7039L172.245 145.9ZM188.077 154.803L180.02 150.142L187.58 93.5178L195.643 98.5071L188.077 154.803ZM204.329 163.441L196.254 158.791L205.177 103.089L213.235 108.078L204.329 163.441Z" fill="#F8C77D"/>
<path d="M123.672 171.989C121.082 173.514 118.135 174.327 115.13 174.345C112.125 174.363 109.169 173.585 106.561 172.091L42.5684 139.383L56.8914 202.247H56.931C57.0837 203.158 57.7622 204.046 58.9666 204.741L113.969 236.51C116.717 238.094 121.156 238.094 123.887 236.51L207.309 188.009C208.164 187.571 208.836 186.843 209.203 185.955H209.322L224.097 116.756L123.672 171.989ZM61.268 200.686L52.3508 152.343L60.4085 157.332L69.3315 205.347L61.268 200.686ZM77.1009 209.584L70.3945 162.185L78.4523 167.175L85.1473 214.228L77.1009 209.584ZM93.3521 218.227L88.0142 171.717L96.072 176.706L101.41 222.888L93.3521 218.227ZM146.03 216.53L137.972 221.191V175.841L146.03 170.852V216.53ZM159.454 208.673L151.391 213.334L154.405 166.383L162.462 161.388L159.454 208.673ZM173.189 200.68L165.131 205.341L169.966 157.49L178.024 152.501L173.189 200.68ZM179.149 197.71L186.37 148.298L194.428 143.309L187.212 193.049L179.149 197.71ZM200.67 185.163L192.613 189.825L201.62 139.479L209.678 134.467L200.67 185.163Z" fill="#F5AE53"/>
<path d="M35.8105 121.621L41.0579 124.653L144.706 64.3972C148.269 62.3268 154.059 62.3268 157.644 64.3972L224.221 102.863L229.514 99.7917C233.076 97.7213 233.053 94.3612 229.468 92.2908L157.655 50.8096C154.07 48.7392 148.28 48.7392 144.718 50.8096L35.7709 114.103C32.2085 116.191 32.2255 119.551 35.8105 121.621Z" fill="#D28A3C"/>
<path d="M229.514 99.7751L120.579 163.131C117.016 165.201 111.215 165.201 107.63 163.131L35.8167 121.65C34.0129 120.609 33.1138 119.24 33.1138 117.877L33.0742 131.708C33.0742 133.077 33.9733 134.44 35.7771 135.481L107.59 176.968C111.175 179.038 116.977 179.038 120.539 176.968L229.475 113.612C231.245 112.582 232.127 111.241 232.132 109.889L232.172 96.0586C232.166 97.3993 231.284 98.7456 229.514 99.7751Z" fill="#D28A3C"/>
<path d="M151.164 52.0651C152.932 52.0212 154.683 52.426 156.253 53.2417L228.066 94.7229C229.01 95.2886 229.355 95.809 229.355 96.0409C229.355 96.2728 229.022 96.7933 228.106 97.325L119.17 160.681C117.596 161.454 115.866 161.856 114.112 161.856C112.359 161.856 110.628 161.454 109.054 160.681L37.2241 119.194C36.2798 118.628 35.9349 118.108 35.9349 117.876C35.9349 117.644 36.2685 117.124 37.1902 116.586L146.126 53.2304C147.679 52.4192 149.412 52.0163 151.164 52.0594V52.0651ZM151.164 49.231C148.914 49.1868 146.69 49.7225 144.706 50.7867L35.7709 114.103C32.2085 116.173 32.2255 119.534 35.8105 121.604L107.624 163.085C109.628 164.109 111.847 164.642 114.098 164.642C116.349 164.642 118.568 164.109 120.573 163.085L229.514 99.7744C233.076 97.704 233.053 94.3439 229.468 92.2735L157.655 50.7923C155.664 49.728 153.433 49.1924 151.175 49.2367L151.164 49.231Z" fill="#FBD898"/>
<path d="M92.2715 36.9618C90.4281 38.0309 89.2858 40.3106 89.2745 43.5463L89.1162 99.8369L97.0835 95.204L97.2418 38.9077C97.2418 35.6777 98.3727 33.398 100.244 32.3232L92.2715 36.9618Z" fill="#48595F"/>
<path d="M159.295 68.894C166.521 73.0687 172.379 83.2169 172.357 91.5211L172.198 129.795L169.371 131.384L169.53 89.8863C169.53 83.3753 164.955 75.4162 159.295 72.1466L99.5881 37.6403C93.9335 34.3706 89.3024 37.0067 89.2854 43.5176L89.1271 99.8083L86.2998 98.1735L86.4638 41.8772C86.4638 33.5674 92.3841 30.2072 99.6107 34.3819L159.295 68.894Z" fill="#283C43"/>
<path d="M167.268 64.2609L107.539 29.7772C103.903 27.6785 100.606 27.4862 98.22 28.8721L90.2471 33.505C92.6333 32.1191 95.9356 32.3114 99.5715 34.4101L159.272 68.9164C166.499 73.0911 172.357 83.2394 172.335 91.5436L172.176 129.817L180.149 125.184L180.307 86.9107C180.353 78.5839 174.495 68.4356 167.268 64.2609Z" fill="#48595F"/>
<path d="M368.73 278.976L339.314 264.828" stroke="white" stroke-miterlimit="10"/>
<path d="M369.475 352.56C369.475 311.559 334.315 315.298 295.27 333.326C221.376 366.962 221.06 384.877 221.06 425.883V430.77C221.761 455.094 250.288 447.214 277.396 446.106C318.347 444.409 369.458 414.388 369.458 389.708L369.475 352.56Z" fill="white"/>
<path opacity="0.2" d="M287.665 336.861C221.359 368.285 221.06 386.336 221.06 425.882V430.77C221.761 455.094 250.288 447.214 277.396 446.105C285.656 445.696 293.847 444.387 301.824 442.202C305.737 395.392 287.654 336.946 287.665 336.861Z" fill="#283C43"/>
<path opacity="0.2" d="M330.747 321.781C342.667 378.173 339.76 425.967 339.76 425.967C358.291 413.93 369.475 402.48 369.475 389.074V352.559C369.475 327.115 350.351 320.044 330.747 321.781Z" fill="#283C43"/>
<path d="M292.63 334.536L317.51 357.384C318.308 358.116 319.286 358.623 320.344 358.852C321.402 359.082 322.502 359.027 323.531 358.692C324.561 358.357 325.483 357.755 326.203 356.947C326.924 356.138 327.417 355.153 327.632 354.092L331.969 332.794C331.969 332.794 371.274 326.006 367.27 302.01C362.051 270.547 360.298 265.303 360.298 265.303C360.298 265.303 355.062 270.547 341.073 265.303C327.083 260.059 300.891 258.317 307.88 275.791C311.901 285.848 295.649 312.492 295.649 312.492L292.63 334.536Z" fill="#F9D4BB"/>
<path d="M369.961 307.667C369.382 305.968 368.159 304.564 366.556 303.757C364.953 302.95 363.098 302.804 361.389 303.351C356.017 305.002 348.14 308.566 342.836 315.988C337.018 324.139 321.309 323.738 310.317 314.856C307.536 312.611 305.648 309.446 304.992 305.932C304.336 302.417 304.955 298.784 306.737 295.686C308.69 292.296 309.694 288.442 309.644 284.53C309.644 272.295 315.146 271.084 334.36 278.07C353.574 285.056 385.019 260.698 356.814 242.585C329.672 225.179 286.929 219.862 283.435 247.829C283.435 247.829 268.388 260.376 274.388 282.273C276.198 288.686 279.475 294.589 283.961 299.515L295.638 312.492C295.638 312.492 319.019 360.62 360.298 343.638C364.434 341.934 367.916 338.951 370.237 335.125C372.558 331.299 373.594 326.831 373.196 322.374C372.981 319.823 370.776 310.184 369.961 307.667Z" fill="#48595F"/>
<path d="M282.83 248.389C283.435 251.743 287.546 268.883 309.82 279.286C309.69 280.926 309.65 282.68 309.65 284.53C309.701 288.443 308.695 292.297 306.738 295.685C304.959 298.785 304.343 302.418 305 305.931C305.657 309.445 307.544 312.609 310.323 314.856C321.315 323.743 337.018 324.144 342.837 315.987C348.141 308.566 356.018 305.002 361.389 303.35C363.099 302.803 364.954 302.949 366.557 303.756C368.16 304.563 369.382 305.967 369.962 307.666C370.776 310.183 372.981 319.823 373.213 322.374C373.612 326.833 372.573 331.303 370.249 335.129C367.925 338.955 364.438 341.937 360.298 343.638C318.975 360.608 295.649 312.491 295.649 312.491L283.961 299.526C279.448 294.568 276.156 288.623 274.349 282.165C269.158 262.994 280.088 250.996 282.83 248.389Z" fill="#283C43"/>
<path d="M296.73 285.956L302.52 305.398C300.073 306.606 297.247 306.792 294.663 305.915C292.08 305.038 289.95 303.171 288.743 300.723C287.535 298.275 287.349 295.448 288.226 292.863C289.102 290.279 290.969 288.148 293.416 286.94C294.458 286.43 295.578 286.097 296.73 285.956Z" fill="#F9D4BB"/>
<path d="M333.987 305.987L297.747 289.379" stroke="white" stroke-miterlimit="10"/>
<path d="M367.887 279.411C363.126 282.178 359.241 288.898 359.258 294.385C359.275 299.872 363.16 302.101 367.943 299.34C372.727 296.58 376.595 289.876 376.578 284.378C376.561 278.88 372.671 276.651 367.887 279.411Z" stroke="white" stroke-miterlimit="10"/>
<path d="M341.509 295.544C336.725 298.304 332.857 305.013 332.874 310.512C332.891 316.01 336.781 318.228 341.565 315.467C346.349 312.707 350.211 306.003 350.2 300.505C350.188 295.007 346.292 292.778 341.509 295.544Z" stroke="white" stroke-miterlimit="10"/>
<path d="M359.518 292.224C359.518 292.224 355.87 286.137 349.786 297.089" stroke="white" stroke-miterlimit="10"/>
<path d="M358.274 315.45C358.789 315.152 359.376 315 359.971 315.01C360.566 315.021 361.146 315.194 361.65 315.511C362.154 315.827 362.562 316.276 362.83 316.807C363.098 317.339 363.216 317.934 363.171 318.527C362.973 320.943 362.39 323.364 360.943 324.184C360.616 324.372 360.258 324.5 359.885 324.563C356.532 325.129 357.239 322.866 354.943 323.579C354.553 323.703 354.163 324.28 353.558 325.276C352.337 327.222 353.072 328.953 349.097 330.621C348.113 331.04 346.778 330.118 346.388 327.708C346.186 326.204 346.444 324.674 347.127 323.32C347.811 321.965 348.887 320.848 350.216 320.117L358.274 315.45Z" fill="#F9D4BB"/>
<path d="M552.634 136.21L579.414 151.121" stroke="white" stroke-miterlimit="10"/>
<path d="M552.634 145.227L566.024 152.682" stroke="white" stroke-miterlimit="10"/>
<path d="M370.053 155.996C375.221 155.996 379.411 151.805 379.411 146.634C379.411 141.464 375.221 137.272 370.053 137.272C364.884 137.272 360.694 141.464 360.694 146.634C360.694 151.805 364.884 155.996 370.053 155.996Z" fill="#18C2A4"/>
<path d="M340.428 147.818C342.539 147.818 344.25 146.106 344.25 143.994C344.25 141.882 342.539 140.17 340.428 140.17C338.317 140.17 336.605 141.882 336.605 143.994C336.605 146.106 338.317 147.818 340.428 147.818Z" fill="#F4AD53"/>
<path d="M320.162 142.901H306.631" stroke="#4DBFE5" stroke-width="8" stroke-miterlimit="10" stroke-linecap="round"/>
<path d="M468.809 383.865C469.636 378.746 466.158 373.926 461.042 373.099C455.925 372.272 451.107 375.751 450.28 380.869C449.453 385.988 452.93 390.808 458.047 391.636C463.164 392.463 467.982 388.984 468.809 383.865Z" fill="#18C2A4"/>
<path d="M503.67 356.825C505.781 356.825 507.493 355.113 507.493 353.001C507.493 350.889 505.781 349.177 503.67 349.177C501.559 349.177 499.848 350.889 499.848 353.001C499.848 355.113 501.559 356.825 503.67 356.825Z" fill="#F4AD53"/>
<path d="M527.589 323.473L520.538 334.294" stroke="#4DBFE5" stroke-width="8" stroke-miterlimit="10" stroke-linecap="round"/>
<path d="M112.769 354.205C117.938 354.205 122.128 350.014 122.128 344.843C122.128 339.673 117.938 335.481 112.769 335.481C107.601 335.481 103.411 339.673 103.411 344.843C103.411 350.014 107.601 354.205 112.769 354.205Z" fill="#18C2A4"/>
<path d="M129.772 366.78C131.883 366.78 133.594 365.068 133.594 362.956C133.594 360.844 131.883 359.132 129.772 359.132C127.661 359.132 125.949 360.844 125.949 362.956C125.949 365.068 127.661 366.78 129.772 366.78Z" fill="#F4AD53"/>
<path d="M159.51 382.03L148.297 374.62" stroke="#4DBFE5" stroke-width="8" stroke-miterlimit="10" stroke-linecap="round"/>
<path d="M52.446 13.6283H45.4852L43.9189 18.3404H42.624L48.3973 1.44922H49.5735L55.3072 18.3404H54.0123L52.446 13.6283ZM45.9037 12.3894H52.0389L49.0137 3.23111H48.9515L45.9037 12.3894Z" fill="#283C43"/>
<path d="M56.7997 12.1686C56.7146 10.4911 57.1068 8.8239 57.9307 7.36037C58.2495 6.79924 58.7144 6.33508 59.276 6.01732C59.8376 5.69956 60.4748 5.54008 61.1199 5.55586C61.8407 5.54226 62.55 5.73881 63.1611 6.12154C63.7631 6.52228 64.2581 7.06406 64.6031 7.69977V0.244141H65.8471V18.3458H64.7162L64.6144 16.5244C64.2728 17.154 63.7716 17.6827 63.1611 18.0574C62.5281 18.4241 61.8059 18.6081 61.0746 18.5891C60.4449 18.6059 59.8217 18.4582 59.2664 18.1606C58.7111 17.863 58.243 17.4258 57.9081 16.892C57.0819 15.5329 56.6875 13.9548 56.7771 12.3666L56.7997 12.1686ZM58.0494 12.4119C57.9868 13.6764 58.2703 14.934 58.8693 16.0492C59.1168 16.4791 59.4776 16.8326 59.9125 17.0711C60.3473 17.3095 60.8394 17.4237 61.3347 17.4012C62.0575 17.4262 62.7686 17.2136 63.3591 16.7959C63.9233 16.3543 64.3572 15.7677 64.6144 15.0988V9.19883C64.3607 8.5175 63.9454 7.90797 63.4043 7.4226C62.8312 6.94707 62.1011 6.70295 61.3573 6.73812C60.8429 6.72421 60.3354 6.85938 59.896 7.12735C59.4566 7.39532 59.104 7.78466 58.8806 8.24848C58.2795 9.46485 57.9937 10.8129 58.0494 12.1686V12.4119Z" fill="#283C43"/>
<path d="M72.3779 15.1953L72.7455 16.6717H72.8077L73.2035 15.1953L76.2739 5.78809H77.5688L73.277 18.3405H72.2762L67.9561 5.78809H69.2453L72.3779 15.1953Z" fill="#283C43"/>
<path d="M83.5466 18.5835C82.8638 18.591 82.1888 18.4372 81.5766 18.1344C80.9645 17.8316 80.4324 17.3886 80.0238 16.8412C79.0552 15.5818 78.5589 14.0224 78.6215 12.4346V11.7954C78.5609 10.1922 79.0519 8.61678 80.0125 7.33215C80.3952 6.78667 80.903 6.34077 81.4932 6.03176C82.0834 5.72274 82.7391 5.55958 83.4053 5.55593C84.0261 5.52751 84.6449 5.64468 85.2123 5.89808C85.7798 6.15148 86.2802 6.5341 86.6736 7.01538C87.5125 8.13802 87.9325 9.51875 87.8611 10.9186V12.1008H79.8881V12.4346C79.8439 13.6922 80.1981 14.9316 80.9003 15.9757C81.1881 16.4186 81.5832 16.7816 82.0488 17.0308C82.5145 17.28 83.0355 17.4075 83.5636 17.4012C84.2468 17.4201 84.9265 17.2968 85.5597 17.0392C86.1004 16.8063 86.5817 16.4544 86.9676 16.0097L87.4992 16.96C87.0584 17.4711 86.5073 17.8753 85.8876 18.1423C85.1479 18.4555 84.3495 18.606 83.5466 18.5835ZM83.3883 6.73819C82.9355 6.73635 82.4887 6.84205 82.0847 7.0466C81.6807 7.25114 81.3309 7.5487 81.0643 7.9148C80.4107 8.76234 80.0283 9.78764 79.9673 10.8563V10.9186H86.6171V10.5848C86.651 9.60342 86.3454 8.64036 85.7519 7.85823C85.4772 7.49493 85.1189 7.20337 84.7073 7.00837C84.2958 6.81336 83.8433 6.72067 83.3883 6.73819Z" fill="#283C43"/>
<path d="M95.551 6.98113L94.6237 6.91324C94.2676 6.89916 93.9123 6.95703 93.5791 7.08338C93.2459 7.20973 92.9415 7.40197 92.6842 7.64862C92.1421 8.20945 91.768 8.91102 91.6042 9.67375V18.3399H90.3545V5.78755H91.4458L91.6042 7.8749V8.01632C91.8795 7.30914 92.3335 6.68545 92.9217 6.20614C93.4805 5.76811 94.1741 5.53813 94.8838 5.55562C95.0393 5.55452 95.1945 5.56777 95.3475 5.59521C95.472 5.61669 95.5948 5.64694 95.715 5.68572L95.551 6.98113Z" fill="#283C43"/>
<path d="M100.024 2.57422V5.78728H102.506V6.91863H100.024V15.1096C99.9701 15.7183 100.111 16.3282 100.425 16.8519C100.549 17.0178 100.71 17.1515 100.896 17.2421C101.082 17.3326 101.287 17.3773 101.494 17.3724C101.697 17.3724 101.895 17.3724 102.088 17.3441C102.28 17.3158 102.5 17.2875 102.749 17.2423L102.936 18.2775C102.692 18.3853 102.435 18.4632 102.172 18.5094C101.877 18.561 101.579 18.5875 101.279 18.5886C100.926 18.6069 100.573 18.5404 100.25 18.3948C99.9276 18.2492 99.6445 18.0286 99.4243 17.7514C98.9196 16.9675 98.6871 16.039 98.7627 15.1096V6.92429H96.7949V5.79293H98.7458V2.57988L100.024 2.57422Z" fill="#283C43"/>
<path d="M106.56 2.19007H105.316V0.244141H106.56V2.19007ZM106.56 18.3402H105.316V5.78779H106.56V18.3402Z" fill="#283C43"/>
<path d="M116.773 15.144C116.774 14.8568 116.718 14.5723 116.606 14.3078C116.494 14.0433 116.329 13.8043 116.122 13.6054C115.445 13.0485 114.634 12.678 113.77 12.5306C112.691 12.3239 111.67 11.8837 110.779 11.2409C110.454 10.9636 110.198 10.6152 110.031 10.2227C109.863 9.83025 109.788 9.40433 109.812 8.97815C109.807 8.51784 109.902 8.06193 110.09 7.64196C110.279 7.22198 110.556 6.84796 110.903 6.54573C111.706 5.86084 112.739 5.50694 113.793 5.5558C114.9 5.49686 115.986 5.87462 116.818 6.60796C117.18 6.93826 117.463 7.34547 117.647 7.79967C117.831 8.25388 117.911 8.74355 117.881 9.2327V9.30058H116.75C116.75 8.96299 116.68 8.62907 116.544 8.32025C116.407 8.01144 116.208 7.73455 115.958 7.50738C115.674 7.244 115.34 7.04023 114.976 6.90809C114.612 6.77596 114.225 6.71815 113.838 6.73806C113.094 6.68144 112.358 6.91682 111.785 7.39425C111.569 7.58558 111.397 7.82076 111.279 8.08412C111.161 8.34748 111.1 8.63298 111.101 8.92158C111.091 9.1863 111.136 9.45022 111.234 9.69659C111.331 9.94296 111.478 10.1664 111.667 10.3527C112.363 10.8657 113.171 11.205 114.025 11.3427C115.121 11.5623 116.152 12.0306 117.038 12.7116C117.371 13.0046 117.634 13.3687 117.807 13.777C117.981 14.1853 118.06 14.6274 118.039 15.0705C118.057 15.5521 117.964 16.0313 117.768 16.4715C117.572 16.9117 117.278 17.3012 116.908 17.6104C116.052 18.2887 114.98 18.6343 113.889 18.5834C112.71 18.6518 111.551 18.2604 110.654 17.4916C110.281 17.1732 109.985 16.7739 109.789 16.324C109.593 15.8741 109.502 15.3854 109.523 14.8951V14.8273H110.654C110.646 15.2111 110.733 15.5909 110.906 15.9333C111.08 16.2757 111.335 16.57 111.65 16.7902C112.298 17.2068 113.056 17.4196 113.827 17.4011C114.595 17.4449 115.354 17.2099 115.964 16.7393C116.213 16.5536 116.415 16.3131 116.555 16.0364C116.695 15.7597 116.77 15.4543 116.773 15.144Z" fill="#283C43"/>
<path d="M125.135 18.5835C124.453 18.5915 123.777 18.4378 123.165 18.135C122.553 17.8322 122.021 17.3889 121.613 16.8412C120.644 15.5818 120.148 14.0224 120.21 12.4346V11.7954C120.15 10.1922 120.641 8.61678 121.601 7.33215C121.984 6.78633 122.491 6.34018 123.082 6.03113C123.672 5.72207 124.328 5.55912 124.994 5.55593C125.615 5.52751 126.234 5.64468 126.801 5.89808C127.369 6.15148 127.869 6.5341 128.262 7.01538C129.101 8.13802 129.521 9.51875 129.45 10.9186V12.1008H121.477V12.4346C121.433 13.6922 121.787 14.9316 122.489 15.9757C122.777 16.419 123.172 16.7822 123.637 17.0315C124.103 17.2808 124.624 17.408 125.152 17.4012C125.834 17.4206 126.512 17.2973 127.143 17.0392C127.686 16.8079 128.17 16.4558 128.557 16.0097L129.088 16.96C128.647 17.4711 128.096 17.8753 127.476 18.1423C126.737 18.4555 125.938 18.606 125.135 18.5835ZM124.977 6.73819C124.524 6.73635 124.078 6.84205 123.674 7.0466C123.27 7.25114 122.92 7.5487 122.653 7.9148C122 8.76234 121.617 9.78764 121.556 10.8563V10.9186H128.178V10.5848C128.212 9.60342 127.906 8.64036 127.312 7.85823C127.041 7.49892 126.687 7.20981 126.281 7.01498C125.874 6.82015 125.427 6.72526 124.977 6.73819Z" fill="#283C43"/>
<path d="M137.107 6.98113L136.179 6.91324C135.823 6.90013 135.468 6.95844 135.135 7.08474C134.802 7.21104 134.498 7.40277 134.24 7.64862C133.698 8.20945 133.324 8.91102 133.16 9.67375V18.3399H131.91V5.78755H132.985L133.137 7.8749V8.01632C133.415 7.31025 133.868 6.68704 134.455 6.20614C135.013 5.76811 135.707 5.53813 136.417 5.55562C136.572 5.55426 136.728 5.56751 136.881 5.59521C137.005 5.61669 137.128 5.64694 137.248 5.68572L137.107 6.98113Z" fill="#283C43"/>
<path d="M138.984 19.7885H137.854L144.198 1.44922H145.329L138.984 19.7885Z" fill="#283C43"/>
<path d="M149.224 10.7088V18.3398H147.979V1.45996H153.125C154.754 1.45996 156.003 1.85593 156.874 2.64788C157.745 3.43983 158.175 4.59947 158.175 6.1268C158.187 6.97954 157.945 7.81658 157.479 8.53093C157.002 9.24387 156.311 9.78667 155.506 10.0809C156.34 10.2672 157.069 10.7727 157.536 11.4894C157.974 12.2642 158.189 13.1453 158.158 14.035V15.6245C158.153 16.101 158.208 16.5761 158.322 17.0387C158.42 17.4227 158.615 17.7751 158.887 18.0626V18.3398H157.615C157.32 18.0104 157.124 17.6045 157.049 17.1688C156.942 16.6536 156.889 16.1283 156.891 15.6019V14.0576C156.916 13.6096 156.849 13.1613 156.694 12.7402C156.539 12.319 156.301 11.9338 155.992 11.6082C155.654 11.2964 155.256 11.056 154.823 10.9014C154.389 10.7469 153.929 10.6814 153.47 10.7088H149.224ZM149.224 9.52087H152.967C154.343 9.52087 155.346 9.21352 155.975 8.59882C156.298 8.27286 156.549 7.88314 156.712 7.45456C156.876 7.02599 156.948 6.56799 156.925 6.10983C156.954 5.63964 156.886 5.16847 156.723 4.72632C156.56 4.28417 156.308 3.88073 155.981 3.54166C155.181 2.8837 154.157 2.56133 153.125 2.64223H149.224V9.52087Z" fill="#283C43"/>
<path d="M165.973 18.5835C165.291 18.591 164.616 18.4372 164.003 18.1344C163.391 17.8316 162.859 17.3886 162.451 16.8412C161.482 15.5818 160.986 14.0224 161.048 12.4346V11.7954C160.988 10.1922 161.479 8.61678 162.439 7.33215C162.823 6.78734 163.331 6.34195 163.921 6.03301C164.511 5.72407 165.166 5.56051 165.832 5.55593C166.453 5.52751 167.072 5.64468 167.639 5.89808C168.207 6.15148 168.707 6.5341 169.1 7.01538C169.941 8.13727 170.363 9.51807 170.293 10.9186V12.1008H162.298V12.4346C162.254 13.6922 162.608 14.9316 163.31 15.9757C163.598 16.4186 163.993 16.7816 164.459 17.0308C164.924 17.28 165.445 17.4075 165.973 17.4012C166.657 17.4201 167.336 17.2968 167.969 17.0392C168.51 16.8063 168.991 16.4544 169.377 16.0097L169.909 16.96C169.468 17.4711 168.917 17.8753 168.297 18.1423C167.563 18.4531 166.771 18.6035 165.973 18.5835ZM165.815 6.73819C165.362 6.73681 164.916 6.84271 164.512 7.04722C164.108 7.25173 163.758 7.54904 163.491 7.9148C162.84 8.76371 162.458 9.78822 162.394 10.8563V10.9186H169.01V10.5848C169.044 9.60342 168.738 8.64036 168.145 7.85823C167.873 7.49971 167.52 7.21108 167.115 7.01629C166.71 6.8215 166.264 6.72616 165.815 6.73819Z" fill="#283C43"/>
<path d="M174.71 2.57422V5.78728H177.192V6.91863H174.71V15.1096C174.656 15.7183 174.797 16.3282 175.111 16.8519C175.234 17.0185 175.396 17.1527 175.582 17.2434C175.768 17.334 175.973 17.3782 176.18 17.3724C176.383 17.3724 176.581 17.3724 176.745 17.3441C176.909 17.3158 177.158 17.2875 177.413 17.2423L177.599 18.2775C177.355 18.3853 177.099 18.4632 176.836 18.5094C176.539 18.561 176.238 18.5875 175.937 18.5886C175.584 18.6064 175.232 18.5397 174.911 18.3941C174.589 18.2485 174.307 18.0281 174.088 17.7514C173.583 16.9675 173.35 16.039 173.426 15.1096V6.92429H171.492V5.79293H173.449V2.57988L174.71 2.57422Z" fill="#283C43"/>
<path d="M186.991 18.3407C186.912 17.9164 186.85 17.5487 186.816 17.2093C186.782 16.8975 186.765 16.584 186.765 16.2703C186.332 16.9379 185.752 17.4972 185.069 17.9051C184.365 18.3423 183.55 18.568 182.722 18.5556C182.251 18.5837 181.779 18.5115 181.337 18.3438C180.896 18.1761 180.495 17.9167 180.161 17.5827C179.527 16.8643 179.2 15.926 179.25 14.9692C179.234 14.4306 179.348 13.8959 179.583 13.4112C179.819 12.9265 180.168 12.5061 180.602 12.1861C181.674 11.4381 182.967 11.0734 184.271 11.1509H186.765V9.59528C186.786 9.20889 186.728 8.82226 186.594 8.45933C186.459 8.0964 186.252 7.76489 185.985 7.4853C185.692 7.21703 185.349 7.0106 184.975 6.8784C184.601 6.7462 184.204 6.69096 183.808 6.71598C183.021 6.68854 182.252 6.94786 181.642 7.4457C181.372 7.65879 181.155 7.93051 181.006 8.24024C180.857 8.54996 180.781 8.88956 180.783 9.23325H179.652V9.16537C179.636 8.68814 179.73 8.21368 179.926 7.77833C180.122 7.34298 180.415 6.95829 180.783 6.65376C181.631 5.89091 182.741 5.48556 183.881 5.5224C184.982 5.46979 186.059 5.84938 186.884 6.58022C187.276 6.97552 187.58 7.44983 187.775 7.97162C187.97 8.49342 188.052 9.05076 188.015 9.6066V15.7781C188.014 16.209 188.037 16.6395 188.083 17.0679C188.13 17.4855 188.206 17.8993 188.309 18.3067L186.991 18.3407ZM182.892 17.3734C183.738 17.3868 184.568 17.1421 185.272 16.6719C185.935 16.2339 186.454 15.6102 186.765 14.8787V12.254H184.249C183.276 12.2046 182.316 12.4901 181.529 13.0629C181.213 13.2919 180.955 13.5929 180.778 13.9412C180.601 14.2894 180.51 14.6747 180.511 15.0654C180.499 15.371 180.549 15.676 180.657 15.9618C180.766 16.2477 180.932 16.5085 181.144 16.7285C181.375 16.9507 181.65 17.1227 181.951 17.2337C182.251 17.3446 182.572 17.3922 182.892 17.3734Z" fill="#283C43"/>
<path d="M192.736 2.19007H191.492V0.244141H192.736V2.19007ZM192.736 18.3402H191.492V5.78779H192.736V18.3402Z" fill="#283C43"/>
<path d="M197.588 18.34H196.344V0.238281H197.588V18.34Z" fill="#283C43"/>
<path d="M205.278 18.5835C204.595 18.591 203.92 18.4372 203.308 18.1344C202.696 17.8316 202.164 17.3886 201.755 16.8412C200.787 15.5818 200.29 14.0224 200.353 12.4346V11.7954C200.292 10.1922 200.783 8.61678 201.744 7.33215C202.127 6.78734 202.635 6.34195 203.225 6.03301C203.815 5.72407 204.471 5.56051 205.137 5.55593C205.757 5.52751 206.376 5.64468 206.944 5.89808C207.511 6.15148 208.012 6.5341 208.405 7.01538C209.244 8.13802 209.664 9.51875 209.592 10.9186V12.1008H201.62V12.4346C201.575 13.6922 201.93 14.9316 202.632 15.9757C202.92 16.4186 203.315 16.7816 203.78 17.0308C204.246 17.28 204.767 17.4075 205.295 17.4012C205.978 17.4201 206.658 17.2968 207.291 17.0392C207.832 16.8063 208.313 16.4544 208.699 16.0097L209.231 16.96C208.79 17.4711 208.239 17.8753 207.619 18.1423C206.879 18.4555 206.081 18.606 205.278 18.5835ZM205.12 6.73819C204.667 6.73635 204.22 6.84205 203.816 7.0466C203.412 7.25114 203.062 7.5487 202.796 7.9148C202.142 8.76234 201.76 9.78764 201.699 10.8563V10.9186H208.315V10.5848C208.349 9.60342 208.043 8.64036 207.449 7.85823C207.178 7.49971 206.825 7.21108 206.42 7.01629C206.015 6.8215 205.569 6.72616 205.12 6.73819Z" fill="#283C43"/>
<path d="M217.238 6.98113L216.31 6.91324C215.954 6.90013 215.599 6.95844 215.266 7.08474C214.933 7.21104 214.629 7.40277 214.371 7.64862C213.831 8.21087 213.457 8.91185 213.291 9.67375V18.3399H212.041V5.78755H213.138L213.291 7.8749V8.01632C213.568 7.31025 214.022 6.68704 214.608 6.20614C215.167 5.76811 215.861 5.53813 216.57 5.55562C216.726 5.55426 216.881 5.56751 217.034 5.59521C217.16 5.61676 217.285 5.647 217.407 5.68572L217.238 6.98113Z" fill="#283C43"/>
<path d="M266.648 555.479V555.547C266.604 557.031 266.028 558.451 265.025 559.546C264.519 560.038 263.918 560.421 263.259 560.671C262.599 560.921 261.896 561.033 261.191 561C260.396 561.018 259.607 560.842 258.895 560.488C258.183 560.133 257.568 559.61 257.103 558.963C256.009 557.43 255.462 555.573 255.548 553.691V550.942C255.464 549.06 256.011 547.205 257.103 545.67C257.566 545.021 258.181 544.496 258.893 544.139C259.606 543.782 260.394 543.605 261.191 543.622C261.894 543.586 262.598 543.693 263.258 543.938C263.918 544.183 264.521 544.561 265.031 545.048C266.041 546.145 266.616 547.573 266.648 549.064V549.132H265.477C265.4 547.949 264.944 546.822 264.177 545.919C263.79 545.531 263.325 545.23 262.814 545.035C262.302 544.84 261.755 544.755 261.208 544.787C260.575 544.776 259.949 544.926 259.389 545.223C258.829 545.52 258.354 545.954 258.008 546.485C257.16 547.789 256.739 549.325 256.803 550.88V553.652C256.734 555.216 257.155 556.762 258.008 558.075C258.354 558.606 258.83 559.039 259.389 559.336C259.949 559.633 260.575 559.783 261.208 559.772C261.747 559.809 262.288 559.736 262.798 559.556C263.307 559.376 263.775 559.093 264.171 558.726C264.951 557.815 265.406 556.671 265.466 555.473L266.648 555.479Z" fill="#283C43"/>
<path d="M268.836 554.296C268.773 552.677 269.255 551.083 270.204 549.77C270.633 549.217 271.183 548.769 271.812 548.461C272.441 548.153 273.132 547.993 273.832 547.993C274.532 547.993 275.223 548.153 275.851 548.461C276.48 548.769 277.03 549.217 277.459 549.77C278.409 551.083 278.89 552.677 278.828 554.296V554.675C278.897 556.303 278.417 557.907 277.465 559.229C277.034 559.78 276.483 560.226 275.854 560.533C275.225 560.839 274.534 560.999 273.835 560.999C273.135 560.999 272.444 560.839 271.815 560.533C271.186 560.226 270.635 559.78 270.204 559.229C269.248 557.909 268.765 556.304 268.836 554.675V554.296ZM270.091 554.669C270.046 555.963 270.391 557.24 271.081 558.335C271.382 558.79 271.791 559.163 272.271 559.422C272.752 559.68 273.289 559.815 273.835 559.815C274.38 559.815 274.917 559.68 275.398 559.422C275.878 559.163 276.287 558.79 276.588 558.335C277.28 557.241 277.627 555.963 277.584 554.669V554.29C277.623 553.003 277.275 551.733 276.583 550.647C276.285 550.188 275.877 549.811 275.397 549.55C274.916 549.289 274.378 549.153 273.832 549.153C273.285 549.153 272.747 549.289 272.266 549.55C271.786 549.811 271.378 550.188 271.081 550.647C270.395 551.736 270.05 553.004 270.091 554.29V554.669Z" fill="#283C43"/>
<path d="M282.543 548.203L282.656 550.398C282.973 549.679 283.479 549.059 284.121 548.605C284.767 548.173 285.532 547.952 286.309 547.971C286.846 547.935 287.384 548.03 287.877 548.248C288.369 548.466 288.801 548.8 289.136 549.222C289.777 550.055 290.096 551.352 290.092 553.113V560.756H288.842V553.108C288.842 551.663 288.601 550.643 288.118 550.047C287.867 549.749 287.55 549.512 287.192 549.357C286.834 549.202 286.444 549.132 286.054 549.154C285.266 549.123 284.497 549.401 283.911 549.929C283.331 550.489 282.918 551.2 282.718 551.982V560.756H281.463V548.203H282.543Z" fill="#283C43"/>
<path d="M300.095 557.56C300.096 557.273 300.039 556.989 299.928 556.724C299.816 556.459 299.651 556.22 299.444 556.022C298.767 555.465 297.956 555.094 297.092 554.947C296.013 554.74 294.992 554.3 294.101 553.657C293.776 553.38 293.52 553.031 293.353 552.639C293.185 552.246 293.11 551.821 293.134 551.394C293.127 550.934 293.221 550.477 293.41 550.057C293.598 549.637 293.877 549.263 294.225 548.962C295.025 548.276 296.057 547.922 297.109 547.972C298.218 547.912 299.306 548.29 300.14 549.024C300.501 549.355 300.783 549.763 300.967 550.217C301.151 550.671 301.232 551.16 301.203 551.649V551.717H300.021C300.022 551.38 299.953 551.046 299.818 550.737C299.682 550.428 299.484 550.151 299.235 549.924C298.95 549.66 298.615 549.456 298.25 549.324C297.885 549.191 297.497 549.134 297.109 549.154C296.367 549.095 295.631 549.331 295.062 549.81C294.846 550.002 294.673 550.237 294.555 550.5C294.437 550.763 294.376 551.049 294.378 551.338C294.368 551.602 294.413 551.866 294.51 552.113C294.608 552.359 294.755 552.583 294.943 552.769C295.637 553.282 296.444 553.621 297.296 553.759C298.394 553.977 299.427 554.446 300.315 555.128C300.648 555.421 300.911 555.785 301.084 556.193C301.257 556.602 301.337 557.044 301.316 557.487C301.333 557.968 301.241 558.447 301.045 558.888C300.849 559.328 300.555 559.717 300.185 560.027C299.327 560.706 298.253 561.052 297.16 561C295.983 561.067 294.826 560.676 293.931 559.908C293.557 559.59 293.26 559.191 293.064 558.741C292.868 558.291 292.778 557.802 292.8 557.311V557.243H293.931C293.925 557.628 294.013 558.007 294.188 558.349C294.362 558.691 294.618 558.986 294.932 559.206C295.579 559.622 296.335 559.835 297.103 559.817C297.874 559.861 298.635 559.626 299.246 559.155C299.502 558.974 299.712 558.735 299.859 558.458C300.007 558.181 300.087 557.874 300.095 557.56Z" fill="#283C43"/>
<path d="M311.618 558.726C311.294 559.415 310.788 560.001 310.154 560.423C309.503 560.819 308.75 561.016 307.988 560.988C307.442 561.016 306.898 560.908 306.404 560.672C305.911 560.437 305.483 560.083 305.161 559.642C304.488 558.748 304.148 557.351 304.148 555.467V548.204H305.449V555.518C305.449 557.053 305.685 558.153 306.156 558.816C306.376 559.139 306.675 559.4 307.024 559.575C307.374 559.75 307.762 559.834 308.152 559.817C308.967 559.86 309.77 559.607 310.414 559.105C311.003 558.595 311.415 557.912 311.59 557.153V548.204H312.845V560.756H311.714L311.618 558.726Z" fill="#283C43"/>
<path d="M317.172 548.204L317.285 550.28C317.606 549.595 318.106 549.009 318.732 548.583C319.373 548.169 320.124 547.958 320.887 547.978C321.667 547.954 322.432 548.2 323.052 548.674C323.688 549.226 324.124 549.971 324.296 550.795C324.589 549.987 325.093 549.273 325.755 548.725C326.416 548.215 327.234 547.951 328.068 547.978C328.607 547.953 329.143 548.062 329.63 548.295C330.116 548.528 330.537 548.878 330.856 549.313C331.508 550.203 331.834 551.58 331.834 553.443V560.763H330.584V553.409C330.584 551.859 330.337 550.765 329.843 550.128C329.606 549.814 329.295 549.562 328.939 549.394C328.582 549.227 328.19 549.149 327.797 549.166C327.366 549.141 326.936 549.22 326.542 549.397C326.149 549.573 325.803 549.841 325.535 550.179C324.974 550.935 324.633 551.831 324.551 552.769C324.551 552.826 324.551 552.905 324.551 553.001C324.551 553.098 324.551 553.177 324.551 553.222V560.768H323.29V553.414C323.29 551.906 323.041 550.82 322.543 550.156C322.307 549.837 321.997 549.581 321.639 549.409C321.281 549.238 320.887 549.156 320.491 549.172C320.109 549.151 319.726 549.207 319.366 549.336C319.006 549.465 318.675 549.665 318.393 549.924C317.852 550.48 317.481 551.178 317.324 551.938V560.774H316.058V548.204H317.172Z" fill="#283C43"/>
<path d="M339.298 560.989C338.615 560.997 337.94 560.843 337.327 560.54C336.715 560.237 336.183 559.794 335.775 559.246C334.806 557.987 334.31 556.428 334.372 554.84V554.201C334.312 552.597 334.803 551.022 335.763 549.737C336.146 549.191 336.654 548.745 337.244 548.436C337.834 548.127 338.49 547.964 339.156 547.961C339.777 547.933 340.396 548.05 340.963 548.304C341.53 548.557 342.031 548.94 342.425 549.421C343.263 550.543 343.683 551.924 343.612 553.324V554.506H335.639V554.84C335.595 556.097 335.949 557.337 336.651 558.381C336.938 558.825 337.333 559.189 337.799 559.438C338.265 559.687 338.786 559.814 339.315 559.806C339.996 559.826 340.674 559.702 341.305 559.444C341.846 559.212 342.327 558.86 342.713 558.415L343.278 559.365C342.834 559.875 342.282 560.279 341.661 560.547C340.915 560.864 340.108 561.015 339.298 560.989ZM339.139 549.143C338.686 549.141 338.238 549.247 337.833 549.451C337.428 549.656 337.077 549.953 336.81 550.32C336.16 551.169 335.78 552.194 335.718 553.261V553.324H342.334V552.973C342.367 551.99 342.062 551.025 341.469 550.241C341.194 549.888 340.84 549.606 340.435 549.418C340.03 549.229 339.586 549.139 339.139 549.155V549.143Z" fill="#283C43"/>
<path d="M351.251 549.398L350.318 549.33C349.963 549.317 349.609 549.375 349.276 549.501C348.944 549.627 348.641 549.819 348.384 550.066C347.842 550.627 347.468 551.328 347.304 552.091V560.757H346.049V548.205H347.146L347.304 550.292V550.433C347.58 549.726 348.033 549.103 348.622 548.623C349.18 548.184 349.874 547.954 350.584 547.973C350.739 547.972 350.894 547.985 351.047 548.012C351.172 548.034 351.295 548.064 351.415 548.103L351.251 549.398Z" fill="#283C43"/>
<path d="M427.023 11.319V18.3391H425.784V1.44794H431.009C431.681 1.40849 432.354 1.50688 432.987 1.73708C433.62 1.96728 434.199 2.32444 434.689 2.78662C435.179 3.2488 435.569 3.80626 435.836 4.42478C436.103 5.0433 436.241 5.70984 436.241 6.38348C436.241 7.05712 436.103 7.72367 435.836 8.34219C435.569 8.96071 435.179 9.51817 434.689 9.98035C434.199 10.4425 433.62 10.7997 432.987 11.0299C432.354 11.2601 431.681 11.3585 431.009 11.319H427.023ZM427.023 10.1368H431.009C431.529 10.1764 432.052 10.1017 432.54 9.91798C433.029 9.73428 433.471 9.44598 433.836 9.07328C434.477 8.33465 434.814 7.38069 434.781 6.40328C434.813 5.41759 434.476 4.4554 433.836 3.70499C433.474 3.32803 433.032 3.03614 432.543 2.8503C432.054 2.66447 431.53 2.5893 431.009 2.63021H427.023V10.1368Z" fill="#283C43"/>
<path d="M446.078 16.2861C445.756 16.9764 445.249 17.5638 444.614 17.9831C443.965 18.3944 443.21 18.6032 442.442 18.5827C441.902 18.6047 441.365 18.4934 440.877 18.2586C440.39 18.0239 439.968 17.6728 439.649 17.2364C438.97 16.3427 438.637 14.9737 438.637 13.0617V5.78711H439.886V13.1013C439.886 14.6324 440.122 15.7317 440.593 16.3992C440.814 16.7219 441.113 16.9831 441.462 17.1583C441.811 17.3334 442.199 17.4168 442.589 17.4005C443.403 17.4409 444.205 17.1902 444.851 16.6934C445.439 16.1809 445.851 15.496 446.027 14.7361V5.78711H447.283V18.3395H446.152L446.078 16.2861Z" fill="#283C43"/>
<path d="M459.677 12.4109C459.767 13.9992 459.373 15.5772 458.546 16.9364C458.21 17.4689 457.742 17.9053 457.187 18.2027C456.632 18.5001 456.009 18.6485 455.38 18.6334C454.628 18.649 453.888 18.453 453.242 18.0677C452.626 17.6794 452.126 17.1322 451.795 16.4838L451.659 18.3732H450.579V0.271484H451.834V7.75541C452.165 7.09604 452.662 6.53447 453.276 6.12625C453.9 5.73399 454.627 5.53702 455.363 5.56057C456.007 5.54765 456.642 5.7084 457.202 6.02593C457.762 6.34345 458.227 6.80604 458.546 7.36509C459.37 8.82861 459.762 10.4959 459.677 12.1734V12.4109ZM458.411 12.1677C458.466 10.8119 458.181 9.46391 457.579 8.24755C457.355 7.78461 457.002 7.39606 456.563 7.12825C456.124 6.86044 455.617 6.72468 455.103 6.73719C454.335 6.70195 453.583 6.9609 452.999 7.46125C452.452 7.96514 452.045 8.60251 451.817 9.31102V15.0131C452.064 15.6971 452.495 16.2999 453.061 16.7554C453.656 17.1983 454.384 17.4257 455.125 17.4002C455.621 17.4215 456.112 17.3068 456.547 17.0685C456.981 16.8301 457.342 16.4773 457.591 16.0483C458.19 14.933 458.473 13.6754 458.411 12.4109V12.1677Z" fill="#283C43"/>
<path d="M463.874 18.34H462.646V0.238281H463.89L463.874 18.34Z" fill="#283C43"/>
<path d="M468.725 2.1891H467.481V0.243164H468.725V2.1891ZM468.725 18.3392H467.481V5.78681H468.725V18.3392Z" fill="#283C43"/>
<path d="M478.943 15.1432C478.943 14.8562 478.886 14.572 478.774 14.3077C478.662 14.0434 478.499 13.8042 478.293 13.6045C477.614 13.0467 476.801 12.6762 475.935 12.5297C474.856 12.3219 473.835 11.8818 472.943 11.24C472.621 10.9617 472.366 10.6129 472.199 10.2206C472.033 9.82827 471.958 9.40291 471.982 8.97729C471.976 8.5168 472.07 8.06054 472.259 7.64039C472.447 7.22024 472.725 6.84636 473.073 6.54487C473.873 5.85933 474.905 5.50524 475.957 5.55494C477.064 5.49538 478.151 5.87322 478.982 6.6071C479.345 6.93687 479.63 7.34384 479.815 7.79807C480 8.25231 480.08 8.74225 480.051 9.23184V9.29972H478.92C478.92 8.96271 478.85 8.62936 478.715 8.32072C478.58 8.01208 478.382 7.73485 478.134 7.50652C477.548 7.02911 476.82 6.75914 476.064 6.73868C475.308 6.71821 474.567 6.9484 473.955 7.39339C473.741 7.58564 473.569 7.821 473.451 8.08416C473.333 8.34731 473.272 8.63235 473.271 8.92072C473.26 9.18557 473.305 9.44979 473.402 9.69631C473.5 9.94283 473.648 10.1662 473.837 10.3519C474.53 10.8661 475.337 11.2057 476.189 11.3418C477.285 11.5615 478.316 12.0298 479.203 12.7108C479.536 13.0037 479.799 13.3679 479.972 13.7762C480.145 14.1845 480.224 14.6265 480.204 15.0696C480.221 15.5512 480.128 16.0304 479.932 16.4706C479.736 16.9108 479.442 17.3004 479.073 17.6095C478.219 18.292 477.145 18.6381 476.053 18.5825C474.876 18.6536 473.717 18.2619 472.825 17.4907C472.451 17.1729 472.154 16.7737 471.958 16.3236C471.762 15.8736 471.672 15.3847 471.694 14.8943V14.8264H472.825C472.817 15.21 472.904 15.5896 473.078 15.9318C473.251 16.274 473.506 16.5684 473.82 16.7893C474.468 17.206 475.226 17.4188 475.997 17.4002C476.766 17.4441 477.525 17.2091 478.134 16.7384C478.383 16.5534 478.586 16.313 478.726 16.0361C478.867 15.7593 478.941 15.4536 478.943 15.1432Z" fill="#283C43"/>
<path d="M484.315 7.93036C484.657 7.22753 485.175 6.62533 485.819 6.18242C486.47 5.75649 487.235 5.5376 488.013 5.55451C488.534 5.52571 489.055 5.62211 489.531 5.83567C490.007 6.04923 490.425 6.37373 490.75 6.78203C491.387 7.60038 491.706 8.87316 491.706 10.6004V18.3388H490.456V10.5834C490.456 9.22199 490.213 8.24337 489.727 7.64752C489.486 7.35467 489.18 7.12195 488.833 6.9678C488.487 6.81365 488.109 6.74231 487.73 6.75941C486.947 6.73263 486.182 7.00114 485.587 7.51176C484.988 8.0459 484.548 8.73485 484.315 9.50294V18.3615H483.065V0.259766H484.315V7.93036Z" fill="#283C43"/>
<path d="M499.198 18.5829C498.516 18.5905 497.842 18.4365 497.23 18.1338C496.619 17.831 496.088 17.3879 495.681 16.8406C494.71 15.582 494.212 14.0225 494.273 12.434V11.7948C494.211 10.1906 494.705 8.61437 495.669 7.33156C496.052 6.78574 496.559 6.33959 497.15 6.03053C497.74 5.72148 498.396 5.55852 499.062 5.55533C499.682 5.52557 500.301 5.64216 500.867 5.89569C501.434 6.14922 501.933 6.53258 502.325 7.01478C503.168 8.13557 503.59 9.51717 503.518 10.918V12.1002H495.545V12.434C495.498 13.6919 495.852 14.9322 496.557 15.9751C496.843 16.4183 497.237 16.7816 497.702 17.031C498.167 17.2803 498.687 17.4075 499.215 17.4006C499.898 17.42 500.578 17.2967 501.211 17.0386C501.752 16.8058 502.233 16.4538 502.619 16.0091L503.15 16.9594C502.71 17.4705 502.159 17.8747 501.539 18.1417C500.799 18.4549 500.001 18.6054 499.198 18.5829ZM499.045 6.7376C498.591 6.73532 498.144 6.84079 497.739 7.04534C497.334 7.24988 496.983 7.54766 496.715 7.91421C496.064 8.76311 495.682 9.78763 495.618 10.8557V10.918H502.234V10.5842C502.268 9.60282 501.963 8.63976 501.369 7.85764C501.098 7.4999 500.746 7.21176 500.342 7.01701C499.938 6.82225 499.494 6.72647 499.045 6.7376Z" fill="#283C43"/>
<path d="M511.168 6.98015L510.241 6.91226C509.886 6.89863 509.531 6.95672 509.199 7.08306C508.867 7.20941 508.563 7.40143 508.307 7.64765C507.765 8.20848 507.391 8.91004 507.227 9.67277V18.339H505.972V5.78657H507.069L507.227 7.87392V8.01534C507.503 7.30977 507.954 6.68657 508.539 6.20517C509.098 5.76713 509.791 5.53716 510.501 5.55464C510.656 5.55305 510.812 5.5663 510.965 5.59423C511.091 5.61512 511.216 5.64538 511.338 5.68474L511.168 6.98015Z" fill="#283C43"/>
<path d="M513.051 19.7875H511.92L518.27 1.44824H519.401L513.051 19.7875Z" fill="#283C43"/>
<path d="M530.242 13.6273H523.275L521.715 18.3394H520.42L526.188 1.44824H527.369L533.097 18.3394H531.803L530.242 13.6273ZM523.717 12.3885H529.857L526.804 3.23013H526.742L523.717 12.3885Z" fill="#283C43"/>
<path d="M535.992 18.3396V6.92422H534.12V5.79287H535.992V3.96007C535.925 2.91615 536.225 1.88182 536.84 1.03552C537.132 0.691806 537.499 0.420089 537.913 0.241519C538.327 0.0629503 538.776 -0.0176529 539.226 0.00598133C539.459 0.00535255 539.692 0.0242739 539.922 0.0625483C540.166 0.101645 540.408 0.156441 540.645 0.226595L540.487 1.35795C540.318 1.31099 540.146 1.27322 539.973 1.24481C539.767 1.21569 539.559 1.20245 539.351 1.20522C539.051 1.18778 538.751 1.24415 538.478 1.3694C538.205 1.49464 537.967 1.68494 537.784 1.92363C537.381 2.5173 537.183 3.22632 537.219 3.9431V5.7759H539.91V6.90725H537.219V18.3226L535.992 18.3396Z" fill="#283C43"/>
<path d="M542.833 18.3393V6.92388H540.956V5.79252H542.833V4.19165C542.763 3.07331 543.119 1.96984 543.829 1.10305C544.18 0.73033 544.608 0.438975 545.084 0.249403C545.56 0.0598314 546.071 -0.0233662 546.582 0.00563471C547.06 0.00745215 547.537 0.0643933 548.002 0.175336C548.503 0.300513 548.992 0.472872 549.461 0.690105L549.251 1.88368C548.855 1.70028 548.445 1.54895 548.024 1.43114C547.581 1.3175 547.125 1.26235 546.667 1.26709C546.31 1.24198 545.951 1.297 545.617 1.42813C545.284 1.55926 544.984 1.76321 544.739 2.0251C544.265 2.64383 544.034 3.41431 544.089 4.19165V5.79252H546.729V6.92388H544.072V18.3393H542.833ZM550.139 18.3393H548.889V5.78687H550.139V18.3393Z" fill="#283C43"/>
<path d="M554.985 18.34H553.741V0.238281H554.985V18.34Z" fill="#283C43"/>
<path d="M559.838 2.1891H558.594V0.243164H559.838V2.1891ZM559.838 18.3392H558.594V5.78681H559.838V18.3392Z" fill="#283C43"/>
<path d="M570.44 18.3397C570.355 17.9154 570.298 17.5477 570.265 17.2083C570.23 16.8965 570.213 16.583 570.214 16.2693C569.781 16.9369 569.2 17.4962 568.517 17.9041C567.813 18.3412 566.999 18.567 566.171 18.5546C565.699 18.5834 565.227 18.5116 564.785 18.3438C564.344 18.1761 563.943 17.9163 563.609 17.5816C562.974 16.8638 562.645 15.9257 562.693 14.9682C562.678 14.4297 562.792 13.8954 563.028 13.4108C563.263 12.9262 563.612 12.5057 564.044 12.1851C565.11 11.4415 566.394 11.0752 567.692 11.1442H570.191V9.58861C570.212 9.20221 570.154 8.81559 570.02 8.45266C569.885 8.08973 569.678 7.75821 569.411 7.47862C569.118 7.21089 568.774 7.00482 568.4 6.87265C568.026 6.74049 567.63 6.68493 567.234 6.7093C566.447 6.68134 565.677 6.94073 565.068 7.43903C564.798 7.65212 564.581 7.92383 564.432 8.23356C564.283 8.54328 564.207 8.88288 564.208 9.22657H563.078V9.15869C563.062 8.68146 563.156 8.207 563.352 7.77165C563.548 7.3363 563.841 6.95161 564.208 6.64707C565.055 5.8851 566.163 5.47976 567.302 5.51572C568.404 5.46222 569.483 5.84183 570.31 6.57354C570.702 6.96884 571.006 7.44315 571.201 7.96495C571.396 8.48675 571.478 9.04408 571.441 9.59992V15.7715C571.44 16.2023 571.463 16.6328 571.509 17.0612C571.553 17.4792 571.629 17.8933 571.735 18.3L570.44 18.3397ZM566.34 17.3554C567.186 17.3681 568.017 17.1235 568.721 16.6539C569.381 16.2127 569.899 15.5899 570.214 14.8607V12.236H567.697C566.725 12.1866 565.765 12.4721 564.977 13.0449C564.661 13.2739 564.404 13.575 564.227 13.9232C564.05 14.2714 563.958 14.6568 563.96 15.0474C563.947 15.353 563.997 15.658 564.106 15.9438C564.215 16.2297 564.381 16.4905 564.593 16.7105C564.823 16.9357 565.096 17.1109 565.397 17.2248C565.698 17.3387 566.019 17.389 566.34 17.3723V17.3554Z" fill="#283C43"/>
<path d="M576.744 2.57422V5.78728H579.226V6.91863H576.744V15.1096C576.69 15.7183 576.831 16.3282 577.145 16.8519C577.268 17.0185 577.43 17.1527 577.616 17.2434C577.802 17.334 578.007 17.3782 578.214 17.3724C578.418 17.3724 578.616 17.3724 578.78 17.3441C578.944 17.3158 579.192 17.2875 579.447 17.2423L579.633 18.2775C579.389 18.3853 579.133 18.4632 578.87 18.5094C578.573 18.561 578.272 18.5875 577.971 18.5886C577.618 18.6064 577.267 18.5397 576.945 18.3941C576.623 18.2485 576.341 18.0281 576.122 17.7514C575.617 16.9675 575.385 16.039 575.46 15.1096V6.92429H573.504V5.79293H575.46V2.57988L576.744 2.57422Z" fill="#283C43"/>
<path d="M586.114 18.5829C585.431 18.59 584.756 18.4359 584.144 18.1332C583.532 17.8305 583 17.3876 582.591 16.8406C581.623 15.5812 581.126 14.0218 581.189 12.434V11.7948C581.128 10.1906 581.621 8.61437 582.586 7.33156C582.968 6.78574 583.476 6.33959 584.066 6.03053C584.656 5.72148 585.312 5.55852 585.978 5.55533C586.598 5.52557 587.217 5.64216 587.784 5.89569C588.35 6.14922 588.85 6.53258 589.241 7.01478C590.084 8.13557 590.506 9.51717 590.434 10.918V12.1002H582.461V12.434C582.414 13.6919 582.769 14.9322 583.473 15.9751C583.759 16.4183 584.153 16.7816 584.618 17.031C585.083 17.2803 585.604 17.4075 586.131 17.4006C586.814 17.42 587.494 17.2967 588.127 17.0386C588.668 16.8058 589.149 16.4538 589.535 16.0091L590.067 16.9594C589.626 17.4705 589.075 17.8747 588.455 18.1417C587.715 18.4549 586.917 18.6054 586.114 18.5829ZM585.961 6.7376C585.508 6.73532 585.06 6.84079 584.655 7.04534C584.25 7.24988 583.899 7.54766 583.632 7.91421C582.98 8.76311 582.598 9.78763 582.535 10.8557V10.918H589.15V10.5842C589.184 9.60282 588.879 8.63976 588.285 7.85764C588.015 7.4999 587.663 7.21176 587.258 7.01701C586.854 6.82225 586.41 6.72647 585.961 6.7376Z" fill="#283C43"/>
<path d="M459.943 27.6895V64.945C459.939 66.5455 460.355 68.119 461.149 69.5087C461.943 70.8983 463.087 72.0554 464.467 72.8645L480.3 82.119" stroke="#283C43" stroke-miterlimit="10"/>
<path d="M64.7217 24.8555V62.1054C64.7194 63.7055 65.1358 65.2784 65.9294 66.6677C66.723 68.0571 67.8662 69.2144 69.2453 70.0249L85.0782 79.2794" stroke="#283C43" stroke-miterlimit="10"/>
<path d="M297.747 534.357V502" stroke="#283C43" stroke-miterlimit="10"/>
</g>
<defs>
<clipPath id="clip0_381_1050">
<rect width="618" height="561" fill="white"/>
</clipPath>
</defs>
</svg>
