<svg width="437" height="478" viewBox="0 0 437 478" fill="none" xmlns="http://www.w3.org/2000/svg">
<path d="M106.665 257.324L371.811 410.405" stroke="#283C43" stroke-miterlimit="10"/>
<path d="M368.097 320.045C375.563 324.357 375.602 331.341 368.188 335.653L244.504 407.517C237.086 411.829 225.024 411.829 217.558 407.517L93.068 335.653C85.6066 331.341 85.5632 324.357 92.986 320.045L216.665 248.18C224.083 243.873 236.146 243.873 243.607 248.18L368.097 320.045Z" fill="#38C2E0"/>
<path d="M368.188 335.654L244.504 407.518C237.086 411.83 225.023 411.83 217.557 407.518L93.0676 335.654C89.3104 333.483 87.439 330.638 87.4439 327.797L87.4053 342.392C87.4053 345.237 89.2718 348.083 93.0242 350.248L217.519 422.113C224.98 426.425 237.043 426.425 244.461 422.113L368.145 350.248C371.829 348.112 373.672 345.31 373.681 342.503L373.706 327.903C373.706 330.71 371.868 333.512 368.188 335.654Z" fill="#0099CC"/>
<path d="M246.602 362.585H321.842L358.025 341.556L285.543 301.139L246.602 362.585Z" fill="#0099CC"/>
<path d="M435.718 226.828C437.421 227.793 437.43 229.399 435.718 230.383L407.551 246.748C406.601 247.232 405.55 247.485 404.484 247.485C403.417 247.485 402.366 247.232 401.416 246.748L373.066 230.378C371.368 229.414 371.359 227.807 373.066 226.824L401.233 210.459C402.183 209.974 403.234 209.722 404.301 209.722C405.367 209.722 406.418 209.974 407.368 210.459L435.718 226.828Z" fill="#38C2E0"/>
<path d="M435.742 230.383L407.575 246.748C406.625 247.232 405.574 247.485 404.508 247.485C403.441 247.485 402.39 247.232 401.44 246.748L373.09 230.378C372.236 229.896 371.807 229.235 371.812 228.589V234.324C371.812 234.975 372.236 235.621 373.09 236.113L401.44 252.483C402.39 252.967 403.441 253.22 404.508 253.22C405.574 253.22 406.625 252.967 407.575 252.483L435.742 236.113C436.581 235.631 437.001 234.989 437.001 234.348V228.613C437.001 229.259 436.576 229.896 435.742 230.383Z" fill="#0099CC"/>
<path d="M425.236 227.44C426.365 228.096 426.369 229.153 425.236 229.804L406.503 240.68C405.871 241.002 405.172 241.17 404.463 241.17C403.754 241.17 403.054 241.002 402.423 240.68L383.569 229.775C382.44 229.124 382.436 228.063 383.569 227.411L402.316 216.535C402.949 216.214 403.648 216.047 404.357 216.047C405.066 216.047 405.765 216.214 406.397 216.535L425.236 227.44Z" fill="#FAFCFF"/>
<path d="M403.266 229.051C407.607 231.573 407.645 235.659 403.309 238.172L387.519 229.027C391.859 226.524 398.906 226.529 403.266 229.051Z" fill="#70ECBF"/>
<path d="M413.399 223.269C415.627 224.557 415.637 226.646 413.399 227.929C411.161 229.211 407.611 229.207 405.359 227.929C403.106 226.65 403.126 224.552 405.359 223.274C407.592 221.996 411.176 221.982 413.399 223.269Z" fill="#E2E2E2"/>
<path d="M285.543 300.193V328.167C285.546 331.577 284.658 334.929 282.966 337.89C281.274 340.851 278.837 343.319 275.897 345.048L246.476 362.589L177.544 324.043L202.142 309.602C205.082 307.874 207.519 305.406 209.211 302.445C210.903 299.484 211.791 296.132 211.788 292.722V259.336L285.543 300.193Z" fill="#D2D2D2"/>
<path d="M280.715 298.515V325.043C280.718 328.453 279.83 331.805 278.138 334.766C276.446 337.727 274.009 340.195 271.069 341.924L246.471 356.364L177.544 317.842L202.142 303.401C205.082 301.672 207.519 299.205 209.211 296.244C210.903 293.283 211.791 289.931 211.788 286.52V259.993L280.715 298.515Z" fill="#FAFCFF"/>
<path d="M280.715 310.003V298.515L211.803 260.017V271.505L280.715 310.003Z" fill="#D2D2D2"/>
<path d="M177.544 324.024V317.778L246.601 356.344V362.585L177.544 324.024Z" fill="#E2E2E2"/>
<path d="M378.003 134.061L140.923 1.85907C139.436 1.02946 137.757 0.60291 136.055 0.621688C134.352 0.640466 132.683 1.10392 131.215 1.96613C129.746 2.82833 128.529 4.05934 127.682 5.53715C126.836 7.01495 126.391 8.68825 126.391 10.3912V185.62C126.393 191.049 127.844 196.378 130.593 201.059C133.343 205.74 137.292 209.603 142.032 212.248L379.112 344.46C380.6 345.288 382.278 345.714 383.98 345.694C385.683 345.675 387.351 345.211 388.819 344.348C390.287 343.485 391.504 342.254 392.349 340.776C393.195 339.299 393.64 337.625 393.64 335.923V160.689C393.637 155.261 392.187 149.932 389.438 145.251C386.69 140.57 382.742 136.708 378.003 134.061Z" fill="#D2D2D2"/>
<path d="M370.677 138.836L133.596 6.64428C132.109 5.80994 130.428 5.37957 128.723 5.39596C127.017 5.41234 125.345 5.87492 123.874 6.73768C122.403 7.60044 121.183 8.83334 120.335 10.3138C119.488 11.7942 119.043 13.4707 119.045 15.1764V190.391C119.048 195.82 120.499 201.15 123.249 205.832C125.998 210.513 129.946 214.377 134.686 217.024L371.776 349.23C373.263 350.059 374.941 350.484 376.643 350.465C378.345 350.446 380.013 349.982 381.481 349.12C382.949 348.258 384.166 347.027 385.012 345.55C385.858 344.073 386.303 342.401 386.304 340.698V165.484C386.306 160.054 384.858 154.721 382.111 150.037C379.364 145.352 375.417 141.486 370.677 138.836Z" fill="#FAFCFF"/>
<path d="M136.1 187.298L373.18 319.509C374.232 320.095 375.418 320.396 376.621 320.382C377.825 320.369 379.004 320.041 380.041 319.431C381.079 318.821 381.939 317.951 382.537 316.906C383.135 315.862 383.449 314.679 383.449 313.476V165.483C383.446 160.566 382.132 155.739 379.641 151.5C377.15 147.261 373.573 143.763 369.279 141.368L132.203 9.14654C131.152 8.55979 129.966 8.25794 128.762 8.27091C127.558 8.28388 126.379 8.61123 125.341 9.2205C124.302 9.82977 123.442 10.6998 122.843 11.7443C122.245 12.7889 121.93 13.9717 121.93 15.1754V163.173C121.929 168.092 123.242 172.921 125.734 177.163C128.225 181.404 131.804 184.903 136.1 187.298Z" fill="#283C43"/>
<path d="M168.679 117.088V120.541L159.998 115.535L159.925 140.716L156.38 138.671V113.524L151.398 110.63C150.916 110.355 150.646 110.509 150.646 111.064V112.868L147.501 111.064V107.302C147.501 105.493 148.056 105.184 149.628 106.091L168.679 117.088Z" fill="white"/>
<path d="M176.165 129.349C176.473 129.528 176.769 129.726 177.052 129.942V133.863C176.737 133.581 176.395 133.33 176.03 133.116C173.84 131.852 171.79 132.474 171.028 135.103C170.706 136.223 170.564 137.387 170.609 138.551V146.948L167.194 144.976L167.102 128.577C167.116 128.304 167.049 128.033 166.908 127.798C166.767 127.563 166.559 127.376 166.311 127.261L164.864 126.436V123.06L168.144 124.955C169.711 125.862 170.464 127 170.459 128.65V129.981C170.459 130.44 170.435 130.899 170.387 131.355L170.454 131.394C171.313 128.905 173.367 127.743 176.165 129.349Z" fill="white"/>
<path d="M193.528 156.682L194.975 157.512V160.888L191.767 159.036C190.195 158.129 189.515 156.87 189.52 155.38C189.517 154.973 189.541 154.567 189.592 154.164L189.52 154.126C189.447 154.29 188.073 157.376 183.843 154.931C180.771 153.161 177.776 149.312 177.785 145.15C177.785 138.716 185.589 142.82 188.594 144.552L189.341 144.986V144.75C189.341 141.137 188.198 139.14 185.401 137.515C184.576 137.033 182.464 136.068 182.459 137.389V138.566L179.247 136.714V134.674C179.247 131.298 183.694 133.391 185.473 134.418C191.261 137.77 192.838 142.135 192.824 146.679V155.389C192.805 155.65 192.861 155.91 192.986 156.139C193.111 156.368 193.299 156.557 193.528 156.682ZM189.375 148.627V147.904L188.497 147.393C185.903 145.893 181.263 143.37 181.263 147.137C181.263 148.786 182.348 151.063 184.595 152.36C187.489 154.02 189.39 151.589 189.419 148.608" fill="white"/>
<path d="M213.26 168.053L214.707 168.882V172.259L211.432 170.368C209.86 169.461 209.247 168.323 209.252 166.91C209.245 166.587 209.27 166.264 209.325 165.945C209.252 165.902 207.743 168.8 203.373 166.278C198.55 163.48 195.535 157.355 195.55 150.998C195.434 144.405 198.791 142.182 203.571 144.863C206.08 146.28 208.029 148.513 209.093 151.191C209.135 150.721 209.135 150.248 209.093 149.778V144.603C209.107 144.338 209.043 144.074 208.911 143.844C208.778 143.614 208.582 143.427 208.346 143.305L206.899 142.476V139.1L210.313 141.072C211.03 141.426 211.626 141.984 212.026 142.676C212.426 143.367 212.612 144.162 212.561 144.96L212.498 166.775C212.489 167.038 212.555 167.299 212.691 167.526C212.826 167.753 213.024 167.936 213.26 168.053ZM203.903 163.278C206.566 164.725 209.098 164.079 209.112 158.826C209.112 155.136 207.497 150.583 204.014 148.572C201.217 146.956 198.887 148.283 198.873 152.99C198.873 157.461 200.966 161.585 203.903 163.278Z" fill="white"/>
<path d="M231.853 170.851C231.853 171.401 231.718 172.371 231.713 172.424L218.691 164.895C218.884 169.404 221.676 173.451 224.816 175.264C227.956 177.078 229.967 175.925 230.078 175.867L231.573 179.562C231.443 179.629 228.901 181.009 224.667 178.559C219.004 175.289 215.189 168.454 215.208 162.334C215.16 155.779 219.067 153.792 224.184 156.748C229.147 159.628 231.868 165.517 231.853 170.851ZM218.831 162.068L228.323 167.547C228.197 164.094 226.355 161.147 224.102 159.83C221.507 158.335 219.385 158.919 218.831 162.054" fill="white"/>
<path d="M251.632 190.207L253.079 191.037V194.413L249.799 192.517C248.232 191.611 247.619 190.472 247.624 189.059C247.617 188.736 247.642 188.413 247.696 188.095L247.624 188.056C247.547 188.201 246.114 190.95 241.745 188.427C236.897 185.63 233.902 179.505 233.921 173.153C233.873 166.598 237.23 164.293 241.942 167.013C244.451 168.431 246.398 170.666 247.46 173.346L247.532 173.384C247.532 173.35 247.465 172.719 247.465 171.937V166.762C247.48 166.496 247.417 166.232 247.284 166.002C247.151 165.772 246.954 165.585 246.717 165.465L245.27 164.635V161.259L248.685 163.231C249.402 163.585 249.999 164.144 250.399 164.837C250.799 165.53 250.985 166.325 250.933 167.124L250.87 188.934C250.86 189.197 250.927 189.458 251.062 189.684C251.197 189.91 251.395 190.092 251.632 190.207ZM242.343 185.476C245.005 186.923 247.537 186.194 247.552 181.019C247.552 177.329 245.936 172.776 242.454 170.765C239.651 169.149 237.322 170.476 237.312 175.183C237.312 179.654 239.405 183.778 242.343 185.476Z" fill="#38C2E0"/>
<path d="M263.222 179.297C268.528 182.374 272.835 189.324 272.82 195.609C272.806 201.893 268.48 203.948 263.174 200.871C257.869 197.794 253.562 190.766 253.576 184.472C253.591 178.178 257.898 176.225 263.222 179.297ZM263.169 197.422C266.584 199.39 269.324 197.905 269.338 193.598C269.353 189.291 266.623 184.718 263.213 182.75C259.803 180.783 257.059 182.268 257.116 186.541C257.034 190.737 259.827 195.488 263.169 197.422Z" fill="#38C2E0"/>
<path d="M304.943 203.383C309.723 206.142 312.78 212.31 312.761 218.667C312.761 225.179 309.317 227.441 304.605 224.72C300.645 222.434 299.102 218.257 299.02 218.04L298.948 217.997C298.948 218.031 299.015 218.667 299.015 219.608V221.021L295.736 219.126V194.687C295.75 194.421 295.687 194.157 295.555 193.927C295.422 193.696 295.225 193.51 294.988 193.389L293.541 192.56V189.184L296.951 191.151C297.668 191.506 298.263 192.065 298.663 192.758C299.063 193.45 299.249 194.246 299.199 195.044V201.714C299.199 202.655 299.131 203.364 299.126 203.402C299.121 203.441 300.776 200.981 304.943 203.383ZM304.137 221.069C306.94 222.69 309.332 221.397 309.279 216.656C309.279 212.18 307.186 208.056 304.176 206.32C301.514 204.786 299.054 205.563 299.039 210.743C299.092 214.466 300.723 219.101 304.137 221.069Z" fill="#38C2E0"/>
<path d="M291.486 196.008L291.443 212.253C291.428 212.518 291.492 212.782 291.626 213.012C291.759 213.241 291.957 213.427 292.195 213.545L293.642 214.375V217.751L290.367 215.86C288.863 214.992 288.115 213.777 288.12 212.282V211.5C288.124 211.12 288.149 210.74 288.192 210.362L288.125 210.323C287.367 211.925 285.11 213.295 281.556 211.245C277.528 208.92 275.488 205.303 275.503 199.891L275.459 191.065C275.472 190.8 275.408 190.536 275.276 190.306C275.143 190.076 274.947 189.889 274.712 189.767L273.265 188.943V185.566L276.612 187.496C278.252 188.46 278.932 189.618 278.927 191.354L278.888 201.053C278.888 203.88 279.371 206.431 282.221 208.086C285.906 210.213 288.009 207.748 288.048 203.668L288.076 194.021L291.486 196.008Z" fill="#38C2E0"/>
<path d="M316.363 202.279C317.08 202.632 317.676 203.19 318.075 203.882C318.475 204.574 318.659 205.369 318.606 206.167L318.548 227.982C318.533 228.247 318.596 228.51 318.728 228.74C318.861 228.969 319.058 229.155 319.295 229.274L320.742 230.104V233.48L317.332 231.512C316.615 231.158 316.019 230.6 315.619 229.907C315.219 229.214 315.033 228.418 315.085 227.62L315.148 205.81C315.161 205.544 315.097 205.28 314.963 205.05C314.83 204.82 314.632 204.633 314.395 204.512L312.948 203.683V200.307L316.363 202.279Z" fill="#38C2E0"/>
<path d="M338.709 232.467C338.709 233.016 338.573 233.986 338.569 234.039L325.546 226.51C325.739 231.02 328.532 235.066 331.672 236.88C334.811 238.693 336.823 237.54 336.934 237.483L338.429 241.172C338.294 241.245 335.757 242.619 331.522 240.174C325.86 236.904 322.045 230.045 322.064 223.949C322.016 217.394 325.922 215.407 331.04 218.364C336.003 221.243 338.723 227.132 338.709 232.467ZM325.686 223.684L335.178 229.163C335.053 225.714 333.21 222.762 330.958 221.446C328.363 219.951 326.241 220.529 325.686 223.669" fill="#38C2E0"/>
<path d="M351.438 230.474C351.744 230.654 352.04 230.85 352.325 231.063V234.984C352.007 234.703 351.663 234.453 351.298 234.236C349.113 232.977 347.063 233.6 346.301 236.223C345.974 237.344 345.833 238.51 345.882 239.677V248.069L342.467 246.101L342.375 229.702C342.389 229.438 342.326 229.175 342.193 228.945C342.06 228.716 341.864 228.53 341.628 228.41L340.181 227.58V224.204L343.456 226.095C345.023 227.002 345.775 228.14 345.771 229.789V231.12C345.773 231.581 345.749 232.042 345.698 232.5L345.771 232.538C346.581 230.021 348.626 228.849 351.438 230.474Z" fill="#38C2E0"/>
<path d="M114.034 416.257C115.737 417.222 115.746 418.833 114.058 419.812L85.8911 436.181C84.9412 436.666 83.89 436.918 82.8236 436.918C81.7573 436.918 80.7061 436.666 79.7561 436.181L51.4058 419.812C49.7081 418.847 49.6984 417.241 51.4058 416.257L79.5728 399.892C80.5228 399.408 81.574 399.155 82.6403 399.155C83.7067 399.155 84.7579 399.408 85.7079 399.892L114.034 416.257Z" fill="#38C2E0"/>
<path d="M114.057 419.812L85.8904 436.182C84.9405 436.666 83.8893 436.918 82.8229 436.918C81.7566 436.918 80.7054 436.666 79.7554 436.182L51.4051 419.812C50.5514 419.33 50.1222 418.674 50.127 418.022V423.762C50.127 424.408 50.5514 425.055 51.4051 425.551L79.7554 441.916C80.7054 442.401 81.7566 442.653 82.8229 442.653C83.8893 442.653 84.9405 442.401 85.8904 441.916L114.057 425.547C114.897 425.064 115.316 424.423 115.316 423.786V418.047C115.316 418.688 114.897 419.325 114.057 419.812Z" fill="#0099CC"/>
<path d="M423.543 416.704C425.241 417.669 425.25 419.275 423.543 420.259L395.41 436.624C394.46 437.108 393.409 437.361 392.342 437.361C391.276 437.361 390.225 437.108 389.275 436.624L360.924 420.259C359.227 419.294 359.217 417.683 360.924 416.704L389.091 400.335C390.041 399.85 391.093 399.598 392.159 399.598C393.225 399.598 394.276 399.85 395.226 400.335L423.543 416.704Z" fill="#38C2E0"/>
<path d="M423.562 420.259L395.409 436.624C394.459 437.108 393.408 437.361 392.341 437.361C391.275 437.361 390.224 437.108 389.274 436.624L360.924 420.259C360.07 419.777 359.641 419.116 359.646 418.47V424.204C359.646 424.851 360.07 425.502 360.924 425.994L389.274 442.359C390.224 442.843 391.275 443.096 392.341 443.096C393.408 443.096 394.459 442.843 395.409 442.359L423.576 425.994C424.415 425.511 424.835 424.865 424.835 424.229V418.494C424.83 419.13 424.401 419.772 423.562 420.259Z" fill="#0099CC"/>
<path d="M120.651 240.293C122.349 241.258 122.359 242.864 120.651 243.848L92.5181 260.213C91.5681 260.697 90.5169 260.95 89.4506 260.95C88.3842 260.95 87.333 260.697 86.3831 260.213L58.0328 243.848C56.335 242.883 56.3254 241.277 58.0328 240.293L86.1998 223.928C87.1498 223.444 88.201 223.191 89.2673 223.191C90.3337 223.191 91.3848 223.444 92.3348 223.928L120.651 240.293Z" fill="#38C2E0"/>
<path d="M120.67 243.848L92.5173 260.213C91.5674 260.697 90.5162 260.95 89.4498 260.95C88.3835 260.95 87.3323 260.697 86.3823 260.213L58.032 243.848C57.1783 243.366 56.7539 242.705 56.7539 242.059V247.793C56.7539 248.44 57.1783 249.091 58.032 249.583L86.3823 265.952C87.3323 266.437 88.3835 266.689 89.4498 266.689C90.5162 266.689 91.5674 266.437 92.5173 265.952L120.684 249.583C121.524 249.1 121.943 248.459 121.943 247.817V242.083C121.938 242.719 121.509 243.361 120.67 243.848Z" fill="#0099CC"/>
<path d="M103.679 410.536L150.405 383.382" stroke="#283C43" stroke-miterlimit="10"/>
<path d="M110.165 240.887C111.294 241.543 111.299 242.6 110.165 243.256L91.4275 254.141C90.796 254.465 90.0967 254.633 89.3873 254.633C88.6779 254.633 87.9786 254.465 87.3471 254.141L68.4984 243.256C67.3649 242.6 67.3601 241.543 68.4984 240.887L87.2121 229.992C87.8435 229.669 88.5428 229.5 89.2523 229.5C89.9617 229.5 90.661 229.669 91.2924 229.992L110.165 240.887Z" fill="#FAFCFF"/>
<path d="M88.2016 242.533C92.5424 245.051 92.5858 249.136 88.2498 251.653L72.4541 242.533C76.7853 240.001 83.8367 240.001 88.2016 242.533Z" fill="#F4AD53"/>
<path d="M98.3284 236.745C100.552 238.028 100.566 240.121 98.3525 241.4C96.1387 242.678 92.5406 242.683 90.3172 241.4C88.0937 240.117 88.0744 238.023 90.2882 236.74C92.502 235.458 96.1001 235.443 98.3284 236.745Z" fill="#E2E2E2"/>
<path d="M103.548 416.855C104.682 417.506 104.686 418.567 103.548 419.218L84.8104 430.109C84.1782 430.43 83.4792 430.597 82.7702 430.597C82.0612 430.597 81.3622 430.43 80.73 430.109L61.8668 419.218C60.7382 418.567 60.7334 417.506 61.8668 416.855L80.6046 405.964C81.2368 405.643 81.9358 405.476 82.6448 405.476C83.3538 405.476 84.0529 405.643 84.685 405.964L103.548 416.855Z" fill="#FAFCFF"/>
<path d="M81.5824 418.485C85.9474 421.002 85.9667 425.083 81.6355 427.605L65.835 418.485C70.1709 415.967 77.2223 415.962 81.5824 418.485Z" fill="#70ECBF"/>
<path d="M91.7173 412.692C93.9408 413.979 93.9553 416.068 91.7414 417.346C89.5276 418.624 85.9296 418.634 83.7013 417.346C81.473 416.058 81.4634 413.97 83.6772 412.692C85.891 411.414 89.489 411.404 91.7173 412.692Z" fill="#E2E2E2"/>
<path d="M413.062 417.317C414.19 417.968 414.195 419.029 413.062 419.68L394.314 430.552C393.683 430.874 392.983 431.042 392.274 431.042C391.565 431.042 390.866 430.874 390.234 430.552L371.38 419.647C370.252 418.991 370.247 417.935 371.38 417.283L390.128 406.407C390.76 406.085 391.459 405.917 392.168 405.917C392.877 405.917 393.576 406.085 394.208 406.407L413.062 417.317Z" fill="#FAFCFF"/>
<path d="M391.093 418.929C395.434 421.451 395.473 425.532 391.137 428.049L375.346 418.914C379.687 416.401 386.728 416.406 391.093 418.929Z" fill="#F4AD53"/>
<path d="M401.231 413.145C403.454 414.433 403.464 416.521 401.231 417.799C398.998 419.078 395.443 419.082 393.196 417.799C390.948 416.517 390.958 414.423 393.196 413.14C395.434 411.857 399.003 411.857 401.231 413.145Z" fill="#E2E2E2"/>
<path d="M126.984 271.268C128.25 271.268 129.275 270.243 129.275 268.978C129.275 267.712 128.25 266.687 126.984 266.687C125.719 266.687 124.693 267.712 124.693 268.978C124.693 270.243 125.719 271.268 126.984 271.268Z" fill="#18C2A4"/>
<path d="M115.032 406.181C116.297 406.181 117.323 405.155 117.323 403.89C117.323 402.624 116.297 401.599 115.032 401.599C113.767 401.599 112.741 402.624 112.741 403.89C112.741 405.155 113.767 406.181 115.032 406.181Z" fill="#18C2A4"/>
<path d="M340.721 394.75C341.986 394.75 343.012 393.724 343.012 392.459C343.012 391.194 341.986 390.168 340.721 390.168C339.455 390.168 338.43 391.194 338.43 392.459C338.43 393.724 339.455 394.75 340.721 394.75Z" fill="#18C2A4"/>
<path d="M242.444 257.523C244.557 258.743 246.269 261.705 246.26 264.131C246.25 266.557 244.533 267.545 242.401 266.32C240.269 265.095 238.576 262.144 238.586 259.713C238.596 257.282 240.332 256.303 242.444 257.523Z" fill="#E2E2E2"/>
<path d="M194.725 72.4825C196.895 73.7365 198.646 76.7654 198.636 79.2348L198.583 97.7267C198.583 100.215 196.818 101.223 194.648 99.9742L170.494 86.0258C168.323 84.7766 166.568 81.7332 166.577 79.2445L166.63 60.7526C166.63 58.2639 168.4 57.2607 170.571 58.5099L194.725 72.4825Z" fill="#38C2E0"/>
<path d="M179.383 71.6141C179.516 71.6946 179.634 71.7992 179.73 71.9228L187.211 81.2266C187.693 81.8005 187.669 82.5722 187.211 82.6156L179.701 83.2619C179.578 83.2659 179.457 83.2323 179.354 83.1655C179.15 83.0348 178.981 82.8578 178.86 82.649C178.738 82.4403 178.668 82.2057 178.654 81.9645L178.683 72.0144C178.683 71.5466 179.016 71.4019 179.383 71.6141Z" fill="#F2F2F2"/>
<path d="M199.591 69.6466L175.476 55.6981C174.386 55.0663 173.397 55.0084 172.678 55.4232L167.759 58.2881C168.473 57.8733 169.461 57.9312 170.556 58.5582L194.71 72.5067C196.881 73.7607 198.632 76.7896 198.622 79.2591L198.569 97.7509C198.569 98.9856 198.13 99.8586 197.426 100.269L202.307 97.4326C203.011 97.0226 203.45 96.1496 203.455 94.9101L203.508 76.4182C203.527 73.9295 201.776 70.8958 199.591 69.6466Z" fill="#0099CC"/>
<path d="M340.319 139.853C343.917 141.932 346.831 146.972 346.821 151.115L346.724 184.289C346.724 188.432 343.782 190.076 340.179 188.017L311.308 171.348C307.705 169.269 304.792 164.229 304.807 160.086L304.898 126.913C304.898 122.77 307.845 121.125 311.443 123.184L340.319 139.853Z" fill="#70ECBF"/>
<path d="M320.197 156.146L320.177 163.906L314.216 160.467L314.24 152.707L320.197 156.146Z" fill="white"/>
<path d="M328.792 156.174L328.758 168.859L322.807 165.425L322.84 152.74L328.792 156.174Z" fill="white"/>
<path d="M337.406 150.734L337.343 173.817L331.382 170.378L331.449 147.295L337.406 150.734Z" fill="white"/>
<path d="M346.956 135.995L318.09 119.326C316.276 118.279 314.632 118.183 313.445 118.872L306.809 122.731C307.995 122.041 309.635 122.138 311.448 123.184L340.324 139.853C343.927 141.932 346.836 146.967 346.826 151.11L346.73 184.096C346.73 186.155 346.001 187.597 344.829 188.282L351.466 184.612C352.599 183.951 353.308 182.398 353.357 180.43L353.453 147.261C353.448 143.109 350.554 138.073 346.956 135.995Z" fill="#18C2A4"/>
<path d="M269.078 65.0707C273.115 67.4003 276.376 73.0482 276.361 77.6784L276.279 109.318C276.279 113.958 272.985 115.824 268.948 113.495L261.038 108.932L255.733 113.167L249.405 102.209L241.408 97.5979C237.376 95.2683 234.111 89.6204 234.125 84.9854L234.217 53.3457C234.217 48.7156 237.516 46.849 241.543 49.1738L269.078 65.0707Z" fill="#F4AD53"/>
<path d="M260.532 75.7827C263.705 77.6107 266.276 82.0528 266.262 85.7135C266.262 87.5319 265.611 88.8148 264.569 89.408L255.704 94.0527L247.249 80.548C245.455 78.392 244.235 75.4982 244.244 72.9757C244.244 69.3342 246.834 67.8535 250.032 69.6911C252.381 71.0464 254.373 73.8342 255.275 76.6654C256.162 74.8856 258.178 74.4226 260.532 75.7827Z" fill="#FDF8F0"/>
<path d="M276.197 60.9372L248.662 45.0209C246.636 43.8488 244.804 43.7379 243.463 44.5096L236.344 48.6478C237.675 47.8761 239.517 47.9823 241.543 49.1302L269.078 65.0465C273.115 67.376 276.376 73.0239 276.361 77.6541L276.279 109.318C276.279 111.623 275.459 113.244 274.147 114.006L281.266 109.868C282.578 109.106 283.388 107.485 283.393 105.18L283.485 73.54C283.514 68.9001 280.234 63.2667 276.197 60.9372Z" fill="#D28A3C"/>
<path d="M342.403 423.882C344.241 424.948 344.25 426.67 342.403 427.741L277.093 465.978C276.063 466.501 274.923 466.774 273.768 466.774C272.612 466.774 271.473 466.501 270.442 465.978L239.729 448.244C237.891 447.183 237.881 445.461 239.729 444.385L305.043 406.147C306.073 405.624 307.211 405.352 308.366 405.352C309.521 405.352 310.66 405.624 311.689 406.147L342.403 423.882Z" fill="#70ECBF"/>
<path d="M308.363 408.738C308.929 408.719 309.492 408.837 310.003 409.08L338.064 425.281C338.16 425.337 338.24 425.417 338.295 425.514C338.35 425.61 338.38 425.72 338.38 425.831C338.38 425.942 338.35 426.051 338.295 426.148C338.24 426.244 338.16 426.325 338.064 426.381L275.416 463.036C274.911 463.284 274.353 463.402 273.791 463.379C273.225 463.398 272.662 463.28 272.151 463.036L244.09 446.836C243.994 446.78 243.914 446.699 243.859 446.603C243.804 446.506 243.774 446.397 243.774 446.286C243.774 446.175 243.804 446.065 243.859 445.969C243.914 445.872 243.994 445.792 244.09 445.736L306.738 409.075C307.244 408.833 307.802 408.717 308.363 408.738" stroke="#18C2A4" stroke-miterlimit="10"/>
<path d="M342.423 427.741L277.113 465.978C276.083 466.502 274.943 466.774 273.788 466.774C272.632 466.774 271.493 466.502 270.462 465.978L239.749 448.244C238.822 447.708 238.359 447.009 238.364 446.315V457.35C238.364 458.049 238.847 458.753 239.749 459.279L270.462 477.009C271.491 477.534 272.63 477.808 273.785 477.808C274.941 477.808 276.079 477.534 277.108 477.009L342.423 438.771C343.33 438.246 343.788 437.551 343.788 436.842L343.803 425.812C343.803 426.521 343.32 427.21 342.423 427.741Z" fill="#18C2A4"/>
<path d="M238.354 454.421C238.354 455.12 238.837 455.825 239.739 456.35L270.452 474.08C271.481 474.605 272.62 474.879 273.775 474.879C274.931 474.879 276.07 474.605 277.099 474.08L342.413 435.842C343.32 435.317 343.778 434.622 343.778 433.913" stroke="#18AA8E" stroke-miterlimit="10"/>
<path d="M238.354 451.934C238.354 452.633 238.837 453.337 239.739 453.863L270.452 471.593C271.482 472.116 272.621 472.389 273.775 472.389C274.93 472.389 276.069 472.116 277.099 471.593L342.413 433.355C343.32 432.824 343.778 432.135 343.778 431.426" stroke="#18AA8E" stroke-miterlimit="10"/>
<path d="M238.354 449.444C238.354 450.149 238.837 450.848 239.739 451.374L270.452 469.108C271.482 469.633 272.62 469.906 273.775 469.906C274.931 469.906 276.069 469.633 277.099 469.108L342.413 430.871C343.32 430.345 343.778 429.655 343.778 428.941" stroke="#18AA8E" stroke-miterlimit="10"/>
<path d="M281.531 429.887C286.789 426.896 295.239 426.949 300.419 430.002C305.599 433.055 305.541 437.951 300.284 440.946C295.026 443.941 286.571 443.878 281.391 440.825C276.211 437.772 276.279 432.872 281.531 429.887Z" stroke="#18C2A4" stroke-miterlimit="10"/>
<path d="M263.887 447.516C264.906 447.005 266.032 446.742 267.172 446.749C268.312 446.756 269.434 447.032 270.447 447.555C272.246 448.616 272.226 450.318 270.403 451.355C269.384 451.867 268.257 452.13 267.117 452.123C265.976 452.117 264.853 451.84 263.839 451.317C262.04 450.256 262.059 448.553 263.887 447.516Z" stroke="#18C2A4" stroke-miterlimit="10"/>
<path d="M312.711 420.241C313.731 419.729 314.857 419.466 315.998 419.473C317.139 419.479 318.262 419.756 319.276 420.279C321.075 421.341 321.055 423.043 319.228 424.085C318.207 424.596 317.081 424.858 315.94 424.851C314.799 424.843 313.677 424.566 312.663 424.041C310.864 422.98 310.884 421.278 312.711 420.241Z" stroke="#18C2A4" stroke-miterlimit="10"/>
<path d="M227.782 454.75C227.782 460.653 219.457 465.442 209.189 465.442C198.92 465.442 190.601 460.653 190.601 454.75V448.909C190.601 448.909 199.962 444.086 209.189 444.086C218.416 444.086 226.345 443.849 227.782 448.909C227.941 449.444 227.782 454.152 227.782 454.75Z" fill="#D28A3C"/>
<path opacity="0.5" d="M195.646 462.057C198.584 463.856 202.592 465.071 207.087 465.36V451.552H195.646V462.057Z" fill="#F4AD53"/>
<path d="M209.19 459.588C219.459 459.588 227.783 454.803 227.783 448.9C227.783 442.997 219.459 438.212 209.19 438.212C198.921 438.212 190.597 442.997 190.597 448.9C190.597 454.803 198.921 459.588 209.19 459.588Z" fill="#F4AD53"/>
<path d="M209.188 455.806C215.821 455.806 221.198 452.713 221.198 448.899C221.198 445.084 215.821 441.992 209.188 441.992C202.556 441.992 197.179 445.084 197.179 448.899C197.179 452.713 202.556 455.806 209.188 455.806Z" fill="white"/>
<path d="M209.188 443.449C215.396 443.449 220.498 446.155 221.13 449.627C221.175 449.387 221.197 449.143 221.198 448.899C221.198 445.084 215.82 441.992 209.188 441.992C202.557 441.992 197.179 445.103 197.179 448.899C197.179 449.143 197.202 449.387 197.246 449.627C197.883 446.155 202.966 443.449 209.188 443.449Z" fill="#D28A3C"/>
<path d="M212.271 451.157C212.271 451.771 211.818 452.339 210.911 452.86C210.012 453.368 208.991 453.62 207.959 453.588C206.86 453.581 205.778 453.309 204.805 452.797L202.451 454.157L201.342 453.516L203.686 452.151C203.245 451.871 202.833 451.548 202.456 451.186C202.071 450.821 201.722 450.421 201.414 449.99L203.459 448.799C203.673 449.281 203.954 449.731 204.294 450.135C204.625 450.517 205.016 450.842 205.451 451.099L208.022 449.609C207.192 448.895 206.774 448.252 206.768 447.68C206.768 447.101 207.168 446.57 207.983 446.098C208.861 445.589 209.863 445.332 210.877 445.355C211.965 445.374 213.033 445.647 213.998 446.151L215.845 445.075L216.954 445.717L215.112 446.797C215.466 447.026 215.806 447.278 216.129 447.549C216.458 447.822 216.767 448.117 217.056 448.432L215.054 449.594C214.919 449.256 214.723 448.945 214.475 448.678C214.153 448.337 213.79 448.038 213.395 447.786L210.983 449.18C211.856 449.884 212.285 450.54 212.271 451.157ZM207.708 451.992C208.082 451.986 208.448 451.883 208.769 451.693C208.897 451.637 209.011 451.553 209.101 451.447C209.192 451.341 209.256 451.215 209.29 451.08C209.29 450.945 209.256 450.811 209.191 450.693C209.126 450.574 209.033 450.473 208.919 450.4L206.56 451.77C206.921 451.93 207.314 452.006 207.708 451.992ZM210.062 448.447L212.271 447.164C211.94 447.008 211.58 446.928 211.215 446.927C210.875 446.932 210.542 447.027 210.25 447.202C210.132 447.256 210.028 447.336 209.945 447.435C209.861 447.534 209.801 447.651 209.768 447.776C209.763 447.904 209.789 448.031 209.841 448.147C209.894 448.263 209.973 448.366 210.072 448.447" fill="#F4AD53"/>
<path opacity="0.5" d="M209.328 443.454C211.521 443.448 213.697 443.829 215.757 444.578V443.131C213.696 442.384 211.52 442.004 209.328 442.007V443.454Z" fill="#F4AD53"/>
<path d="M37.3948 318.671L18.8065 329.475L0.0927734 318.671L18.6811 307.867L37.3948 318.671Z" fill="#F2C18B"/>
<path d="M37.3938 318.671L37.2973 336.613L18.7139 347.417L18.8055 329.475L37.3938 318.671Z" fill="#D28A3C"/>
<path d="M18.8063 329.475L18.7147 347.417L0.000976562 336.608L0.092617 318.671L18.8063 329.475Z" fill="#F4AD53"/>
<path d="M64.636 319.996L46.0477 330.8L27.334 319.996L45.9223 309.192L64.636 319.996Z" fill="#6DD7E8"/>
<path d="M64.635 319.995L64.5386 352.816L45.9551 363.615L46.0467 330.799L64.635 319.995Z" fill="#0099CC"/>
<path d="M46.0475 330.799L45.9559 363.615L27.2422 352.812L27.3338 319.995L46.0475 330.799Z" fill="#38C2E0"/>
<path d="M92.6868 308.459L74.0985 319.263L55.3848 308.454L73.9731 297.655L92.6868 308.459Z" fill="#9CEFCF"/>
<path d="M92.6858 308.459L92.5942 369.606L74.0059 380.41L74.0975 319.263L92.6858 308.459Z" fill="#18C2A4"/>
<path d="M74.0973 319.263L74.0057 380.41L55.292 369.606L55.3836 308.454L74.0973 319.263Z" fill="#70ECBF"/>
</svg>
