<svg width="70" height="84" viewBox="0 0 70 84" fill="none" xmlns="http://www.w3.org/2000/svg">
<path d="M35 52.5C40.799 52.5 45.5 47.799 45.5 42C45.5 36.201 40.799 31.5 35 31.5C29.201 31.5 24.5 36.201 24.5 42C24.5 47.799 29.201 52.5 35 52.5Z" stroke="#0099CC" stroke-width="7" stroke-linecap="round" stroke-linejoin="round"/>
<path d="M59.5 80.5H10.5C8.64348 80.5 6.86301 79.7625 5.55025 78.4497C4.2375 77.137 3.5 75.3565 3.5 73.5V31.5L35 3.5L66.5 31.5V73.5C66.5 75.3565 65.7625 77.137 64.4497 78.4497C63.137 79.7625 61.3565 80.5 59.5 80.5Z" stroke="#0099CC" stroke-width="7" stroke-linecap="round" stroke-linejoin="round"/>
</svg>
