<svg width="90" height="90" viewBox="0 0 90 90" fill="none" xmlns="http://www.w3.org/2000/svg">
<path d="M25.3996 22.6002C25.3996 17.961 21.6388 14.2002 16.9996 14.2002C12.3604 14.2002 8.59961 17.961 8.59961 22.6002C8.59961 27.2394 12.3604 31.0002 16.9996 31.0002C21.6388 31.0002 25.3996 27.2394 25.3996 22.6002Z" stroke="#0099CC" stroke-width="5.6" stroke-linecap="round" stroke-linejoin="round"/>
<path d="M19.8 81.4002H8.6V64.6002H3V47.8002C3 46.315 3.59 44.8906 4.6402 43.8404C5.69041 42.7902 7.11479 42.2002 8.6 42.2002H14.2" stroke="#0099CC" stroke-width="5.6" stroke-linecap="round" stroke-linejoin="round"/>
<path d="M64.6004 22.6C64.6004 27.2392 68.3612 31 73.0004 31C77.6396 31 81.4004 27.2392 81.4004 22.6C81.4004 17.9608 77.6396 14.2 73.0004 14.2C68.3612 14.2 64.6004 17.9608 64.6004 22.6Z" stroke="#0099CC" stroke-width="5.6" stroke-linecap="round" stroke-linejoin="round"/>
<path d="M70.2002 81.4002H81.4002V64.6002H87.0002V47.8002C87.0002 46.315 86.4102 44.8906 85.36 43.8404C84.3098 42.7902 82.8854 42.2002 81.4002 42.2002H75.8002" stroke="#0099CC" stroke-width="5.6" stroke-linecap="round" stroke-linejoin="round"/>
<path d="M56.1998 14.2C56.1998 8.01441 51.1854 3 44.9998 3C38.8142 3 33.7998 8.01441 33.7998 14.2C33.7998 20.3856 38.8142 25.4 44.9998 25.4C51.1854 25.4 56.1998 20.3856 56.1998 14.2Z" stroke="#0099CC" stroke-width="5.6" stroke-linecap="round" stroke-linejoin="round"/>
<path d="M59.0004 86.9996H31.0004V64.5996H25.4004V47.7996C25.4004 44.8292 26.5804 41.9804 28.6808 39.88C30.7812 37.7796 33.63 36.5996 36.6004 36.5996H53.4004C56.3708 36.5996 59.2196 37.7796 61.32 39.88C63.4204 41.9804 64.6004 44.8292 64.6004 47.7996V64.5996H59.0004V86.9996Z" stroke="#0099CC" stroke-width="5.6" stroke-linecap="round" stroke-linejoin="round"/>
</svg>
