<svg width="159" height="57" viewBox="0 0 159 57" fill="none" xmlns="http://www.w3.org/2000/svg">
<path d="M122.299 4.43026V0H113.958V8.33397H118.115C117.844 9.68244 116.994 11.1681 115.393 12.8105L117.775 15.1226C119.807 13.0297 121.012 11.3994 121.748 9.14544C122.232 7.65824 122.302 5.8026 122.299 4.43026Z" fill="#231F20"/>
<path d="M27.7361 30.6859V34.0556H8.18182C8.84412 39.6509 12.093 41.0351 14.9809 41.0351C18.5907 41.0351 20.1555 39.5912 20.9983 37.485L27.496 40.1327C25.6299 44.9463 21.2981 47.5925 14.681 47.5925C5.47443 47.5925 0 41.5766 0 31.7092C0 23.1664 5.05378 16.5479 14.4394 16.5479C22.742 16.5479 27.7361 22.7443 27.7361 30.6859ZM8.30264 28.7617H20.4568C20.336 25.4516 18.0492 22.9859 14.681 22.9859C11.0712 22.9859 8.96494 25.2115 8.30264 28.7617Z" fill="#231F20"/>
<path d="M58.4194 47.1122H50.2973V28.7617C50.2973 25.031 48.9742 23.2261 45.9058 23.2261C43.5594 23.2261 41.935 24.0077 40.3702 25.3323V47.1122H32.248V17.0282H40.0704V19.2552C42.7166 17.4503 45.3046 16.5479 48.012 16.5479C50.6583 16.5479 53.4865 17.51 55.2914 20.3979C57.517 18.1126 60.827 16.5479 65.0991 16.5479C70.3334 16.5479 76.4701 18.8346 76.4701 28.4007V47.1122H68.348V28.7617C68.348 25.0907 67.0845 23.2857 64.0758 23.2857C60.5853 23.2857 58.4194 25.6933 58.4194 28.9421V47.1122Z" fill="#231F20"/>
<path d="M81.585 17.0293H89.2253V19.1967C91.6329 17.4515 93.8584 16.7295 97.1088 16.7295C104.388 16.7295 109.261 22.2039 109.261 31.4702C109.261 40.2546 103.906 47.173 94.2806 47.173C92.7755 47.173 91.2122 47.1133 89.7071 46.9329V56.4378H81.585V17.0293ZM89.7071 25.0918V40.6156C91.1511 40.735 92.4145 40.735 94.2806 40.735C98.7332 40.735 101.078 37.0654 101.078 31.1092C101.078 25.8749 99.1539 23.4674 95.0025 23.4674C92.8963 23.4674 91.2122 23.9492 89.7071 25.0918Z" fill="#231F20"/>
<path d="M115.358 23.6469H111.147V17.0283H123.481V47.1124H115.358V23.6469Z" fill="#231F20"/>
<path d="M129.787 3.79395H137.909V28.5229H141.097L148.739 17.0295H157.462L148.017 30.7484L158.005 47.1136H148.979L141.277 35.0206H137.909V47.1136H129.787V3.79395Z" fill="#231F20"/>
</svg>
