<svg width="737" height="606" viewBox="0 0 737 606" fill="none" xmlns="http://www.w3.org/2000/svg">
<path d="M368.221 604.813C571.032 604.813 735.443 509.88 735.443 392.774C735.443 275.668 571.032 180.735 368.221 180.735C165.411 180.735 1 275.668 1 392.774C1 509.88 165.411 604.813 368.221 604.813Z" stroke="white" stroke-width="0.913904" stroke-miterlimit="10"/>
<path d="M681.855 386.938C681.855 464.37 591.886 530.066 467.137 553.197" stroke="white" stroke-width="0.913904" stroke-miterlimit="10"/>
<path d="M98.2715 297.74C152.896 246.277 253.354 211.763 368.239 211.763" stroke="white" stroke-width="0.913904" stroke-miterlimit="10"/>
<path d="M305.01 558.533C182.906 544.576 86.6526 490.994 61.2129 422.895" stroke="white" stroke-width="0.913904" stroke-miterlimit="10"/>
<path d="M257.27 246.048C258.4 245.724 259.537 245.406 260.673 245.094" stroke="white" stroke-width="0.913904" stroke-miterlimit="10"/>
<path d="M267.558 243.274C298.374 235.471 332.417 231.143 368.221 231.143C506.797 231.143 619.138 296.008 619.138 376.008C619.138 392.591 614.315 408.526 605.429 423.366" stroke="white" stroke-width="0.913904" stroke-miterlimit="10"/>
<path d="M603.533 426.428C602.903 427.412 602.249 428.395 601.578 429.373" stroke="white" stroke-width="0.913904" stroke-miterlimit="10"/>
<path d="M276.115 510.839C274.937 510.58 273.818 510.309 272.676 510.038" stroke="white" stroke-width="0.913904" stroke-miterlimit="10"/>
<path d="M265.862 508.348C208.675 493.579 162.807 466.808 137.88 433.56" stroke="white" stroke-width="0.913904" stroke-miterlimit="10"/>
<path d="M135.813 430.751C135.13 429.785 134.464 428.802 133.816 427.806" stroke="white" stroke-width="0.913904" stroke-miterlimit="10"/>
<path opacity="0.5" d="M125.979 403.851L404.609 559.233C409.444 561.93 415.344 561.889 420.144 559.133L593.275 459.724C597.05 457.551 598.351 452.734 596.178 448.959C595.466 447.722 594.429 446.698 593.187 446.003L314.533 290.62C309.699 287.923 303.804 287.958 298.999 290.714L125.867 390.124C122.092 392.297 120.797 397.12 122.97 400.894C123.682 402.137 124.725 403.156 125.979 403.851Z" fill="#283C43"/>
<path d="M125.695 363.536L404.331 518.912C409.166 521.61 415.061 521.574 419.866 518.818L592.998 419.409C598.297 416.358 599.222 399.976 593.869 396.996L314.256 250.299C309.421 247.608 303.526 247.644 298.721 250.4L125.589 349.809C121.815 351.988 120.525 356.817 122.704 360.591C123.416 361.828 124.453 362.847 125.695 363.536Z" fill="#737373"/>
<path d="M125.607 349.827L151.859 334.757C197.409 362.788 418.965 504.22 418.965 504.22V519.278C414.33 521.574 408.859 521.445 404.337 518.93L125.695 363.577C123.204 362.205 121.655 359.584 121.649 356.74V347.495C121.649 347.495 123.934 350.786 125.607 349.827Z" fill="#D2D2D2"/>
<path d="M125.695 354.072L404.331 509.455C409.166 512.152 415.066 512.111 419.866 509.355L592.997 409.946C596.772 407.778 598.08 402.967 595.912 399.193C595.2 397.95 594.158 396.925 592.909 396.225L314.256 240.842C309.421 238.145 303.526 238.18 298.721 240.936L125.589 340.345C121.815 342.524 120.525 347.353 122.704 351.128C123.416 352.365 124.453 353.383 125.695 354.072Z" fill="#F2F2F2"/>
<path d="M521.514 402.384L534.063 409.451C535.022 409.875 536.124 409.822 537.036 409.298L548.914 402.278C549.792 401.766 549.88 400.994 549.114 400.559L536.565 393.492C535.617 393.074 534.522 393.133 533.621 393.645L521.708 400.676C520.836 401.183 520.748 401.949 521.514 402.384Z" fill="#283C43"/>
<path d="M504.541 392.809L517.084 399.876C518.038 400.288 519.128 400.229 520.029 399.723L531.913 392.703C532.784 392.185 532.872 391.413 532.107 390.984L519.564 383.917C518.604 383.493 517.503 383.546 516.59 384.07L504.706 391.09C503.858 391.608 503.77 392.379 504.541 392.809Z" fill="#283C43"/>
<path d="M487.565 383.234L500.114 390.3C501.062 390.713 502.158 390.66 503.059 390.147L514.942 383.128C515.82 382.61 515.908 381.838 515.143 381.408L502.594 374.342C501.64 373.929 500.55 373.988 499.649 374.495L487.76 381.514C486.888 382.033 486.8 382.804 487.565 383.234Z" fill="#283C43"/>
<path d="M470.593 373.659L483.136 380.725C484.096 381.149 485.197 381.096 486.11 380.572L497.994 373.588C498.865 373.07 498.954 372.298 498.188 371.868L485.645 364.802C484.691 364.39 483.607 364.448 482.701 364.955L470.787 371.939C469.91 372.457 469.822 373.229 470.593 373.659Z" fill="#283C43"/>
<path d="M453.615 364.089L466.158 371.156C467.106 371.574 468.202 371.515 469.103 371.003L481.045 363.989C481.923 363.471 482.011 362.705 481.24 362.27L468.696 355.203C467.736 354.779 466.635 354.832 465.722 355.356L453.809 362.399C452.938 362.882 452.85 363.653 453.615 364.089Z" fill="#283C43"/>
<path d="M436.644 354.514L449.187 361.581C450.147 362.005 451.248 361.952 452.161 361.428L464.044 354.408C464.916 353.896 465.004 353.124 464.239 352.689L451.69 345.622C450.741 345.204 449.646 345.263 448.745 345.775L436.861 352.795C435.96 353.313 435.872 354.078 436.644 354.514Z" fill="#283C43"/>
<path d="M419.666 344.939L432.209 352.005C433.163 352.418 434.247 352.359 435.153 351.852L447.037 344.833C447.915 344.315 448.003 343.543 447.231 343.113L434.688 336.047C433.728 335.623 432.627 335.676 431.714 336.2L419.86 343.219C418.989 343.737 418.9 344.509 419.666 344.939Z" fill="#283C43"/>
<path d="M402.689 335.364L415.238 342.43C416.192 342.842 417.281 342.783 418.182 342.277L430.066 335.258C430.938 334.739 431.026 333.968 430.26 333.538L417.741 326.477C416.787 326.065 415.697 326.124 414.796 326.63L402.919 333.65C402.012 334.162 401.923 334.934 402.689 335.364Z" fill="#283C43"/>
<path d="M385.718 325.788L398.261 332.855C399.221 333.279 400.322 333.226 401.235 332.702L413.118 325.682C413.996 325.164 414.084 324.393 413.313 323.963L400.77 316.896C399.816 316.484 398.732 316.543 397.825 317.049L385.941 324.069C385.058 324.587 384.952 325.358 385.718 325.788Z" fill="#283C43"/>
<path d="M368.74 316.219L381.289 323.286C382.237 323.704 383.333 323.645 384.233 323.132L396.111 316.113C396.989 315.595 397.077 314.829 396.311 314.393L383.762 307.327C382.802 306.903 381.701 306.956 380.789 307.48L368.911 314.499C368.063 315.012 367.98 315.783 368.74 316.219Z" fill="#283C43"/>
<path d="M351.767 306.644L364.311 313.71C365.27 314.134 366.372 314.081 367.284 313.557L379.168 306.544C380.046 306.025 380.128 305.26 379.362 304.824L366.819 297.757C365.871 297.339 364.776 297.398 363.875 297.911L351.962 304.924C351.09 305.442 351.002 306.208 351.767 306.644Z" fill="#283C43"/>
<path d="M334.79 297.068L347.339 304.135C348.293 304.547 349.377 304.488 350.284 303.982L362.161 296.962C363.039 296.444 363.127 295.673 362.362 295.243L349.842 288.2C348.882 287.776 347.781 287.829 346.868 288.353L335.002 295.349C334.113 295.855 334.025 296.639 334.79 297.068Z" fill="#283C43"/>
<path d="M317.819 287.493L330.362 294.56C331.316 294.972 332.406 294.919 333.307 294.407L345.19 287.387C346.068 286.869 346.15 286.098 345.385 285.668L332.842 278.601C331.888 278.189 330.798 278.242 329.897 278.754L318.014 285.774C317.136 286.292 317.054 287.063 317.819 287.493Z" fill="#283C43"/>
<path d="M293.192 273.596L313.409 284.996C314.369 285.42 315.47 285.367 316.383 284.843L328.26 277.824C329.138 277.306 329.226 276.534 328.461 276.104L308.227 264.703C307.279 264.285 306.183 264.344 305.282 264.857L293.369 271.876C292.492 272.394 292.409 273.16 293.192 273.596Z" fill="#283C43"/>
<path d="M304.098 281.628L291.549 274.561C290.589 274.137 289.488 274.19 288.575 274.714L276.703 281.722C275.826 282.24 275.738 283.006 276.503 283.442L289.052 290.508C290 290.926 291.096 290.868 291.997 290.355L303.874 283.336C304.775 282.829 304.864 282.064 304.098 281.628Z" fill="#283C43"/>
<path d="M321.069 291.203L308.526 284.137C307.572 283.724 306.489 283.783 305.582 284.29L293.698 291.315C292.827 291.827 292.738 292.599 293.504 293.035L306.047 300.101C307.007 300.525 308.108 300.472 309.021 299.948L320.869 292.911C321.752 292.404 321.835 291.633 321.069 291.203Z" fill="#283C43"/>
<path d="M338.047 300.778L325.498 293.712C324.538 293.288 323.437 293.347 322.525 293.865L310.647 300.884C309.769 301.403 309.681 302.174 310.447 302.604L322.996 309.671C323.95 310.083 325.039 310.024 325.94 309.517L337.818 302.498C338.725 301.98 338.813 301.208 338.047 300.778Z" fill="#283C43"/>
<path d="M355.024 310.354L342.48 303.287C341.521 302.863 340.419 302.922 339.507 303.44L327.623 310.46C326.751 310.978 326.663 311.749 327.429 312.179L339.972 319.246C340.932 319.67 342.033 319.611 342.946 319.093L354.829 312.073C355.701 311.555 355.789 310.784 355.024 310.354Z" fill="#283C43"/>
<path d="M371.997 319.923L359.448 312.856C358.5 312.438 357.404 312.497 356.503 313.01L344.596 320C343.719 320.518 343.63 321.289 344.396 321.719L356.945 328.786C357.899 329.198 358.982 329.139 359.889 328.633L371.773 321.607C372.692 321.13 372.762 320.359 371.997 319.923Z" fill="#283C43"/>
<path d="M388.969 329.498L376.426 322.432C375.466 322.008 374.365 322.061 373.452 322.585L361.568 329.598C360.697 330.117 360.608 330.882 361.374 331.318L373.917 338.385C374.865 338.803 375.96 338.744 376.861 338.231L388.745 331.212C389.652 330.7 389.77 329.934 388.969 329.498Z" fill="#283C43"/>
<path d="M405.946 339.073L393.403 332.007C392.449 331.595 391.365 331.654 390.458 332.16L378.575 339.185C377.697 339.698 377.609 340.469 378.38 340.905L390.923 347.972C391.883 348.395 392.984 348.342 393.897 347.818L405.781 340.799C406.623 340.275 406.711 339.503 405.946 339.073Z" fill="#283C43"/>
<path d="M422.916 348.649L410.373 341.582C409.419 341.17 408.329 341.229 407.428 341.735L395.545 348.755C394.673 349.273 394.585 350.044 395.35 350.474L407.9 357.541C408.848 357.953 409.943 357.9 410.844 357.388L422.745 350.368C423.599 349.85 423.687 349.079 422.916 348.649Z" fill="#283C43"/>
<path d="M439.894 358.224L427.351 351.157C426.391 350.733 425.29 350.792 424.377 351.311L412.493 358.33C411.616 358.848 411.528 359.62 412.299 360.05L424.842 367.116C425.802 367.54 426.903 367.481 427.816 366.963L439.7 359.944C440.571 359.455 440.66 358.654 439.894 358.224Z" fill="#283C43"/>
<path d="M456.866 367.793L444.323 360.727C443.375 360.309 442.28 360.368 441.379 360.88L429.495 367.899C428.623 368.418 428.535 369.189 429.301 369.619L441.85 376.685C442.81 377.104 443.911 377.051 444.824 376.532L456.701 369.507C457.549 369.001 457.638 368.229 456.866 367.793Z" fill="#283C43"/>
<path d="M473.842 377.369L461.299 370.302C460.339 369.878 459.238 369.931 458.325 370.455L446.442 377.475C445.564 377.993 445.476 378.758 446.247 379.194L458.791 386.261C459.739 386.679 460.834 386.62 461.735 386.108L473.619 379.088C474.52 378.57 474.608 377.804 473.842 377.369Z" fill="#283C43"/>
<path d="M490.822 386.944L478.273 379.877C477.319 379.465 476.235 379.524 475.328 380.03L463.45 387.056C462.573 387.568 462.485 388.34 463.25 388.775L475.799 395.842C476.759 396.266 477.86 396.213 478.773 395.689L490.651 388.669C491.499 388.145 491.587 387.374 490.822 386.944Z" fill="#283C43"/>
<path d="M507.792 396.519L495.248 389.452C494.294 389.04 493.205 389.093 492.304 389.606L480.391 396.613C479.513 397.131 479.425 397.903 480.197 398.333L492.74 405.399C493.694 405.812 494.783 405.753 495.684 405.246L507.568 398.227C508.469 397.732 508.557 396.949 507.792 396.519Z" fill="#283C43"/>
<path d="M532.437 410.417L512.221 399.016C511.261 398.592 510.16 398.651 509.247 399.169L497.369 406.188C496.492 406.707 496.404 407.478 497.169 407.908L517.386 419.309C518.334 419.727 519.429 419.668 520.33 419.156L532.214 412.136C533.115 411.618 533.203 410.852 532.437 410.417Z" fill="#283C43"/>
<path d="M299.67 298.393L274.878 284.408C273.93 283.989 272.834 284.048 271.933 284.561L260.05 291.58C259.178 292.098 259.09 292.864 259.855 293.3L284.653 307.286C285.607 307.698 286.697 307.639 287.598 307.132L299.481 300.113C300.353 299.595 300.441 298.8 299.67 298.393Z" fill="#283C43"/>
<path d="M515.625 420.192L490.827 406.206C489.867 405.782 488.766 405.835 487.853 406.359L475.97 413.379C475.098 413.897 475.01 414.662 475.775 415.098L500.573 429.084C501.533 429.508 502.634 429.449 503.547 428.931L515.431 421.912C516.302 421.393 516.379 420.622 515.625 420.192Z" fill="#283C43"/>
<path d="M316.647 307.963L304.103 300.896C303.155 300.478 302.06 300.537 301.159 301.049L289.246 308.063C288.374 308.581 288.286 309.353 289.052 309.782L301.601 316.849C302.555 317.261 303.644 317.202 304.545 316.696L316.429 309.676C317.336 309.17 317.418 308.399 316.647 307.963Z" fill="#283C43"/>
<path d="M333.624 317.538L321.08 310.471C320.121 310.047 319.019 310.1 318.107 310.625L306.223 317.644C305.346 318.162 305.257 318.928 306.029 319.364L318.572 326.43C319.52 326.848 320.615 326.789 321.516 326.277L333.4 319.258C334.301 318.739 334.413 317.974 333.624 317.538Z" fill="#283C43"/>
<path d="M350.603 327.113L338.053 320.047C337.099 319.634 336.01 319.693 335.109 320.206L323.225 327.213C322.354 327.726 322.266 328.497 323.031 328.933L335.58 336C336.54 336.424 337.641 336.371 338.554 335.846L350.402 328.833C351.28 328.315 351.368 327.543 350.603 327.113Z" fill="#283C43"/>
<path d="M367.573 336.689L355.03 329.622C354.076 329.21 352.986 329.263 352.085 329.775L340.172 336.783C339.295 337.301 339.206 338.072 339.978 338.502L352.521 345.569C353.475 345.981 354.564 345.922 355.465 345.416L367.39 338.408C368.25 337.89 368.338 337.118 367.573 336.689Z" fill="#283C43"/>
<path d="M384.55 346.264L372.001 339.197C371.041 338.773 369.94 338.832 369.027 339.35L357.15 346.37C356.272 346.888 356.184 347.659 356.949 348.089L369.499 355.156C370.453 355.568 371.542 355.509 372.443 355.003L384.321 347.983C385.228 347.465 385.316 346.694 384.55 346.264Z" fill="#283C43"/>
<path d="M401.547 355.833L389.003 348.767C388.055 348.348 386.96 348.407 386.059 348.92L374.122 355.921C373.245 356.44 373.157 357.211 373.928 357.641L386.471 364.708C387.431 365.126 388.532 365.073 389.445 364.554L401.329 357.535C402.2 357.04 402.289 356.269 401.547 355.833Z" fill="#283C43"/>
<path d="M418.501 365.408L405.951 358.342C404.992 357.918 403.89 357.971 402.978 358.495L391.1 365.514C390.222 366.033 390.134 366.798 390.9 367.234L403.449 374.3C404.397 374.719 405.492 374.66 406.393 374.147L418.3 367.11C419.178 366.61 419.266 365.844 418.501 365.408Z" fill="#283C43"/>
<path d="M435.472 374.984L422.928 367.917C421.98 367.499 420.885 367.558 419.984 368.07L408.1 375.09C407.229 375.602 407.141 376.373 407.906 376.809L420.449 383.876C421.409 384.3 422.51 384.247 423.423 383.723L435.307 376.703C436.155 376.185 436.237 375.419 435.472 374.984Z" fill="#283C43"/>
<path d="M452.45 384.559L439.901 377.492C438.947 377.08 437.863 377.139 436.956 377.645L425.078 384.665C424.201 385.183 424.113 385.954 424.878 386.384L437.427 393.451C438.381 393.863 439.471 393.804 440.372 393.298L452.249 386.278C453.127 385.76 453.215 384.989 452.45 384.559Z" fill="#283C43"/>
<path d="M469.422 394.134L456.879 387.067C455.919 386.643 454.818 386.702 453.905 387.221L442.021 394.24C441.15 394.758 441.061 395.53 441.827 395.96L454.37 403.026C455.324 403.438 456.414 403.385 457.315 402.873L469.198 395.854C470.105 395.335 470.193 394.564 469.422 394.134Z" fill="#283C43"/>
<path d="M486.398 403.709L473.849 396.643C472.901 396.225 471.805 396.284 470.904 396.796L459.027 403.815C458.149 404.334 458.061 405.105 458.826 405.535L471.376 412.601C472.335 413.02 473.437 412.967 474.349 412.448L486.227 405.429C487.075 404.911 487.163 404.139 486.398 403.709Z" fill="#283C43"/>
<path d="M291.425 312.998L258.201 294.254C257.241 293.835 256.139 293.888 255.227 294.407L243.349 301.432C242.471 301.944 242.383 302.716 243.149 303.152L276.373 321.89C277.327 322.302 278.417 322.249 279.318 321.737L291.231 314.7C292.108 314.199 292.197 313.428 291.425 312.998Z" fill="#283C43"/>
<path d="M308.403 322.573L295.86 315.506C294.912 315.088 293.816 315.147 292.915 315.66L281.002 322.667C280.125 323.185 280.036 323.957 280.808 324.387L293.351 331.453C294.311 331.871 295.412 331.818 296.325 331.3L308.209 324.281C309.092 323.774 309.169 323.003 308.403 322.573Z" fill="#283C43"/>
<path d="M325.38 332.142L312.831 325.076C311.871 324.652 310.77 324.705 309.857 325.229L297.973 332.248C297.102 332.767 297.014 333.532 297.779 333.968L310.328 341.035C311.276 341.453 312.372 341.394 313.273 340.881L325.15 333.862C326.057 333.35 326.169 332.578 325.38 332.142Z" fill="#283C43"/>
<path d="M342.351 341.718L329.808 334.651C328.86 334.233 327.764 334.292 326.863 334.804L314.98 341.818C314.102 342.33 314.014 343.101 314.785 343.537L327.329 350.604C328.289 351.028 329.39 350.975 330.303 350.451L342.186 343.431C343.028 342.919 343.117 342.153 342.351 341.718Z" fill="#283C43"/>
<path d="M359.329 351.293L346.78 344.226C345.826 343.814 344.736 343.873 343.835 344.379L331.928 351.387C331.051 351.905 330.962 352.677 331.728 353.107L344.277 360.173C345.225 360.591 346.32 360.532 347.221 360.02L359.146 353.012C360.006 352.494 360.094 351.723 359.329 351.293Z" fill="#283C43"/>
<path d="M376.3 360.868L363.757 353.801C362.797 353.377 361.696 353.436 360.783 353.955L348.9 360.962C348.022 361.48 347.934 362.252 348.705 362.682L361.249 369.748C362.203 370.161 363.292 370.102 364.193 369.595L376.077 362.576C376.978 362.069 377.066 361.298 376.3 360.868Z" fill="#283C43"/>
<path d="M393.302 370.443L380.753 363.377C379.805 362.959 378.71 363.018 377.809 363.53L365.931 370.549C365.054 371.068 364.965 371.839 365.731 372.269L378.28 379.335C379.24 379.754 380.341 379.701 381.254 379.182L393.131 372.163C393.956 371.645 394.044 370.873 393.302 370.443Z" fill="#283C43"/>
<path d="M410.25 380.013L397.707 372.946C396.747 372.522 395.646 372.575 394.733 373.099L382.849 380.119C381.972 380.637 381.89 381.402 382.655 381.838L395.198 388.905C396.146 389.323 397.242 389.264 398.143 388.752L410.026 381.732C410.933 381.243 411.016 380.448 410.25 380.013Z" fill="#283C43"/>
<path d="M427.228 389.588L414.679 382.521C413.731 382.103 412.635 382.162 411.734 382.674L399.857 389.694C398.979 390.206 398.891 390.978 399.656 391.413L412.206 398.48C413.165 398.904 414.267 398.851 415.179 398.327L427.057 391.307C427.905 390.789 427.994 390.024 427.228 389.588Z" fill="#283C43"/>
<path d="M444.2 399.163L431.657 392.097C430.703 391.684 429.62 391.743 428.713 392.25L416.8 399.257C415.928 399.776 415.84 400.547 416.605 400.977L429.148 408.043C430.097 408.462 431.192 408.403 432.093 407.89L443.977 400.871C444.883 400.364 444.972 399.593 444.2 399.163Z" fill="#283C43"/>
<path d="M461.176 408.738L448.627 401.672C447.667 401.248 446.566 401.307 445.653 401.825L433.776 408.844C432.898 409.363 432.81 410.134 433.575 410.564L446.125 417.63C447.079 418.043 448.168 417.984 449.069 417.477L460.947 410.458C461.854 409.94 461.942 409.168 461.176 408.738Z" fill="#283C43"/>
<path d="M498.953 430.044L465.604 411.235C464.656 410.817 463.561 410.876 462.66 411.388L450.776 418.408C449.905 418.926 449.816 419.697 450.582 420.127L483.901 438.954C484.855 439.366 485.944 439.307 486.845 438.801L498.723 431.781C499.63 431.245 499.718 430.474 498.953 430.044Z" fill="#283C43"/>
<path d="M410.55 399.44L330.108 354.096C329.148 353.672 328.047 353.731 327.135 354.249L315.251 361.221C314.373 361.74 314.291 362.511 315.057 362.941L395.498 408.285C396.446 408.703 397.541 408.644 398.442 408.132L410.379 401.159C411.233 400.641 411.321 399.876 410.55 399.44Z" fill="#283C43"/>
<path d="M305 339.904L292.451 332.837C291.502 332.419 290.407 332.478 289.506 332.99L277.599 340.022C276.722 340.54 276.633 341.311 277.405 341.741L289.948 348.808C290.902 349.22 291.985 349.161 292.892 348.655L304.776 341.629C305.677 341.111 305.765 340.34 305 339.904Z" fill="#283C43"/>
<path d="M325.681 351.57L309.428 342.407C308.468 341.983 307.367 342.036 306.454 342.56L294.57 349.579C293.699 350.097 293.61 350.863 294.376 351.299L310.629 360.462C311.577 360.88 312.672 360.821 313.573 360.309L325.451 353.289C326.358 352.771 326.446 352.005 325.681 351.57Z" fill="#283C43"/>
<path d="M435.66 413.632L448.203 420.699C448.975 421.128 448.886 421.876 448.009 422.418L436.125 429.438C435.224 429.944 434.135 430.003 433.181 429.591L420.632 422.524C419.866 422.094 419.954 421.346 420.826 420.805L432.71 413.785C433.617 413.273 434.706 413.214 435.66 413.632Z" fill="#283C43"/>
<path d="M414.979 401.937L431.232 411.106C431.997 411.536 431.909 412.283 431.038 412.825L419.154 419.845C418.253 420.351 417.163 420.41 416.209 419.998L399.956 410.829C399.191 410.399 399.279 409.651 400.157 409.109L412.034 402.09C412.935 401.583 414.025 401.525 414.979 401.937Z" fill="#283C43"/>
<path d="M254.073 311.166L241.529 304.1C240.575 303.688 239.492 303.746 238.585 304.253L226.648 311.284C225.777 311.796 225.688 312.568 226.454 313.004L238.997 320.07C239.945 320.488 241.041 320.429 241.942 319.917L253.878 312.933C254.756 312.385 254.844 311.614 254.073 311.166Z" fill="#283C43"/>
<path d="M271.051 320.759L258.502 313.693C257.542 313.269 256.441 313.328 255.528 313.846L243.651 320.865C242.773 321.383 242.685 322.155 243.45 322.585L256 329.651C256.954 330.064 258.043 330.005 258.944 329.498L270.828 322.479C271.729 321.961 271.817 321.177 271.051 320.759Z" fill="#283C43"/>
<path d="M288.021 330.334L275.478 323.268C274.524 322.856 273.435 322.915 272.534 323.421L260.65 330.441C259.779 330.959 259.69 331.73 260.456 332.16L272.999 339.227C273.959 339.651 275.06 339.592 275.973 339.074L287.857 332.054C288.705 331.536 288.793 330.764 288.021 330.334Z" fill="#283C43"/>
<path d="M482.275 439.896L452.637 423.178C451.689 422.76 450.594 422.819 449.693 423.331L437.809 430.35C436.931 430.869 436.843 431.634 437.615 432.07L467.253 448.788C468.213 449.212 469.314 449.153 470.227 448.635L482.111 441.616C482.953 441.097 483.041 440.326 482.275 439.896Z" fill="#283C43"/>
<path d="M538.168 392.532L550.711 399.599C551.671 400.017 552.772 399.964 553.685 399.446L559.573 395.954C560.451 395.436 560.539 394.664 559.774 394.234L547.225 387.168C546.271 386.755 545.181 386.814 544.28 387.321L538.391 390.813C537.508 391.331 537.42 392.102 538.168 392.532Z" fill="#283C43"/>
<path d="M521.213 382.957L533.756 390.024C534.71 390.436 535.799 390.383 536.7 389.871L542.589 386.378C543.461 385.86 543.549 385.089 542.784 384.659L530.24 377.592C529.286 377.18 528.203 377.239 527.296 377.745L521.407 381.238C520.535 381.756 520.447 382.527 521.213 382.957Z" fill="#283C43"/>
<path d="M504.242 373.382L516.785 380.448C517.739 380.861 518.828 380.802 519.729 380.295L525.618 376.803C526.495 376.285 526.584 375.519 525.818 375.084L513.269 368.017C512.321 367.599 511.226 367.658 510.325 368.17L504.436 371.656C503.558 372.18 503.47 372.952 504.242 373.382Z" fill="#283C43"/>
<path d="M487.264 363.812L499.808 370.879C500.756 371.297 501.851 371.238 502.752 370.726L508.641 367.234C509.512 366.722 509.601 365.95 508.835 365.514L496.292 358.448C495.332 358.024 494.231 358.077 493.318 358.601L487.429 362.093C486.587 362.605 486.499 363.377 487.264 363.812Z" fill="#283C43"/>
<path d="M470.287 354.237L482.836 361.304C483.796 361.728 484.897 361.675 485.81 361.151L491.698 357.664C492.576 357.146 492.664 356.375 491.899 355.945L479.349 348.878C478.401 348.46 477.306 348.519 476.405 349.031L470.516 352.524C469.609 353.036 469.521 353.801 470.287 354.237Z" fill="#283C43"/>
<path d="M453.315 344.662L465.858 351.729C466.812 352.141 467.896 352.082 468.803 351.575L474.692 348.083C475.563 347.565 475.651 346.794 474.886 346.364L462.343 339.297C461.383 338.873 460.282 338.932 459.369 339.45L453.48 342.942C452.638 343.461 452.55 344.226 453.315 344.662Z" fill="#283C43"/>
<path d="M436.338 335.087L448.887 342.153C449.847 342.577 450.948 342.518 451.861 342L457.75 338.508C458.628 337.99 458.716 337.218 457.944 336.789L445.401 329.722C444.447 329.31 443.364 329.369 442.457 329.875L436.568 333.367C435.661 333.885 435.573 334.657 436.338 335.087Z" fill="#283C43"/>
<path d="M419.366 325.512L431.909 332.578C432.869 333.002 433.97 332.943 434.883 332.425L440.772 328.933C441.643 328.415 441.732 327.649 440.966 327.213L428.423 320.147C427.463 319.723 426.356 319.776 425.443 320.3L419.554 323.786C418.689 324.31 418.624 325.082 419.366 325.512Z" fill="#283C43"/>
<path d="M402.388 315.942L414.937 323.009C415.885 323.427 416.98 323.368 417.881 322.856L423.77 319.364C424.648 318.851 424.736 318.08 423.965 317.644L411.421 310.577C410.461 310.153 409.36 310.206 408.447 310.731L402.559 314.217C401.711 314.735 401.622 315.506 402.388 315.942Z" fill="#283C43"/>
<path d="M385.417 306.367L397.96 313.434C398.92 313.858 400.021 313.804 400.934 313.28L406.823 309.794C407.7 309.276 407.789 308.505 407.023 308.075L394.474 301.008C393.52 300.596 392.431 300.655 391.53 301.161L385.641 304.653C384.74 305.166 384.651 305.931 385.417 306.367Z" fill="#283C43"/>
<path d="M368.44 296.792L380.989 303.858C381.943 304.271 383.026 304.212 383.933 303.705L389.822 300.213C390.699 299.695 390.788 298.923 390.016 298.494L377.473 291.427C376.513 291.003 375.412 291.062 374.499 291.58L368.61 295.072C367.762 295.59 367.674 296.362 368.44 296.792Z" fill="#283C43"/>
<path d="M351.492 287.216L364.035 294.283C364.989 294.695 366.079 294.642 366.98 294.13L372.868 290.638C373.746 290.12 373.834 289.348 373.069 288.918L360.52 281.852C359.566 281.44 358.482 281.498 357.575 282.005L351.686 285.497C350.785 286.015 350.703 286.787 351.492 287.216Z" fill="#283C43"/>
<path d="M334.491 277.641L347.04 284.708C347.994 285.12 349.084 285.061 349.985 284.555L355.874 281.063C356.751 280.544 356.839 279.779 356.068 279.343L343.525 272.277C342.577 271.858 341.481 271.917 340.58 272.43L334.692 275.916C333.826 276.422 333.726 277.211 334.491 277.641Z" fill="#283C43"/>
<path d="M309.846 263.744L330.063 275.144C331.011 275.562 332.106 275.504 333.007 274.991L338.896 271.499C339.773 270.987 339.862 270.215 339.096 269.78L318.927 258.379C317.967 257.955 316.866 258.014 315.953 258.532L310.064 262.024C309.169 262.542 309.093 263.308 309.846 263.744Z" fill="#283C43"/>
<path d="M322.636 245.8L593.327 396.731C597.132 398.857 601.931 397.497 604.057 393.692C604.71 392.515 605.058 391.195 605.058 389.847V179.975C605.058 168.539 598.863 157.998 588.875 152.427L318.184 1.47276C314.379 -0.647222 309.58 0.718986 307.454 4.52317C306.801 5.69505 306.459 7.01414 306.459 8.3568V218.229C306.447 229.671 312.642 240.224 322.636 245.8Z" fill="#0098CE"/>
<path d="M322.636 245.8L593.327 396.731C597.132 398.857 601.931 397.497 604.057 393.692C604.71 392.515 605.058 391.195 605.058 389.847V179.975C605.058 168.539 598.863 157.998 588.875 152.427L318.184 1.47276C314.379 -0.647222 309.58 0.718986 307.454 4.52317C306.801 5.69505 306.459 7.01414 306.459 8.3568V218.229C306.447 229.671 312.642 240.224 322.636 245.8Z" fill="#283C43"/>
<path opacity="0.15" d="M455.76 98.7504C456.541 98.7504 457.173 97.8724 457.173 96.7894C457.173 95.7064 456.541 94.8284 455.76 94.8284C454.979 94.8284 454.347 95.7064 454.347 96.7894C454.347 97.8724 454.979 98.7504 455.76 98.7504Z" fill="white"/>
<path d="M342.57 53.7361L592.492 198.012L592.021 380.177C592.009 382.127 590.419 383.699 588.464 383.687C587.851 383.687 587.251 383.522 586.721 383.216L342.069 241.984L342.57 53.7361Z" fill="#F2F2F2"/>
<path d="M238.933 393.38L308.892 432.394C312.826 434.584 317.614 434.555 321.518 432.311L362.463 408.797C364.306 407.743 364.942 405.399 363.888 403.556C363.541 402.95 363.034 402.443 362.422 402.108L292.463 363.094C288.535 360.898 283.741 360.927 279.837 363.171L238.892 386.685C237.049 387.739 236.413 390.088 237.467 391.932C237.814 392.538 238.321 393.039 238.933 393.38Z" fill="#D2D2D2"/>
<path d="M362.421 405.299L292.461 366.286C288.528 364.095 283.74 364.125 279.836 366.368L238.885 389.882C238.196 390.277 237.648 390.883 237.33 391.614C236.494 389.818 237.165 387.68 238.885 386.685L279.836 363.171C283.74 360.927 288.533 360.898 292.461 363.094L362.421 402.108C364.175 403.085 364.87 405.246 364.022 407.066C363.693 406.318 363.133 405.7 362.421 405.299Z" fill="#737373"/>
<path d="M289.116 445.202L224.345 409.08L231.011 405.541L295.229 441.698L289.116 445.202Z" fill="#D2D2D2"/>
<path d="M231.011 405.541L224.345 412.978V409.08L231.011 405.541Z" fill="#737373"/>
<path d="M602.539 390.989V181.123C602.539 169.687 596.344 159.146 586.356 153.575L315.664 2.62111C313.927 1.64356 311.884 1.36679 309.952 1.85556C312.414 0.15369 315.623 0.00646943 318.232 1.4669L588.924 152.421C598.911 157.992 605.1 168.533 605.1 179.969V389.841C605.112 393.48 602.621 396.643 599.088 397.497C601.255 396.042 602.55 393.598 602.539 390.989Z" fill="#F2F2F2"/>
<path d="M311.37 35.681L342.658 53.7244L342.175 241.973L313.973 225.69C312.077 224.601 310.917 222.575 310.923 220.39L311.37 35.681Z" fill="white"/>
<path d="M330.662 82.5855C331.286 82.9918 331.675 83.6691 331.716 84.4111C331.716 85.0883 331.239 85.3592 330.656 84.9999L320.056 78.8932C319.438 78.481 319.043 77.8038 319.002 77.0618C319.002 76.3905 319.479 76.1196 320.062 76.4729L330.662 82.5855Z" fill="#D2D2D2"/>
<path d="M324.296 85.2237C324.914 85.6359 325.309 86.3131 325.35 87.0551C325.35 87.7206 324.873 87.9973 324.29 87.644L320.056 85.2001C319.432 84.7938 319.037 84.1166 319.002 83.3746C319.002 82.7033 319.479 82.4324 320.062 82.7857L324.296 85.2237Z" fill="#D2D2D2"/>
<path d="M324.238 106.736C324.857 107.142 325.245 107.819 325.293 108.561C325.293 109.232 324.816 109.509 324.227 109.15L319.998 106.706C319.374 106.306 318.98 105.623 318.938 104.881C318.938 104.209 319.421 103.938 320.004 104.292L324.238 106.736Z" fill="#D2D2D2"/>
<path d="M330.604 104.203C331.223 104.61 331.611 105.287 331.658 106.029C331.658 106.7 331.181 106.971 330.598 106.618L319.998 100.505C319.374 100.105 318.98 99.4217 318.938 98.6797C318.938 98.0084 319.421 97.7375 320.004 98.0908L330.604 104.203Z" fill="#D2D2D2"/>
<path d="M330.628 95.1935C331.246 95.6057 331.641 96.283 331.682 97.0249C331.682 97.6963 331.205 97.9672 330.622 97.6138L320.022 91.5012C319.398 91.0949 319.003 90.4118 318.968 89.6698C318.968 89.0044 319.445 88.7335 320.028 89.0809L330.628 95.1935Z" fill="#D2D2D2"/>
<path d="M588.593 367.681L588.576 303.564L345.974 163.498L345.997 227.616L588.593 367.681Z" fill="white"/>
<path d="M324.202 119.132C324.821 119.544 325.215 120.221 325.256 120.963C325.256 121.628 324.779 121.905 324.191 121.552L319.962 119.108C319.338 118.708 318.944 118.024 318.902 117.283C318.902 116.611 319.385 116.34 319.968 116.694L324.202 119.132Z" fill="#D2D2D2"/>
<path d="M330.568 116.599C331.186 117.012 331.581 117.689 331.622 118.431C331.622 119.096 331.145 119.373 330.562 119.02L319.962 112.913C319.338 112.507 318.949 111.829 318.902 111.087C318.902 110.41 319.385 110.139 319.968 110.499L330.568 116.599Z" fill="#D2D2D2"/>
<path d="M330.528 130.603C331.152 131.009 331.547 131.687 331.582 132.429C331.582 133.1 331.105 133.371 330.522 133.017L319.922 126.911C319.304 126.499 318.909 125.821 318.868 125.079C318.868 124.408 319.345 124.137 319.928 124.49L330.528 130.603Z" fill="#D2D2D2"/>
<path d="M359.223 174.634C359.848 175.034 360.242 175.717 360.277 176.459C360.277 177.131 359.8 177.402 359.217 177.048L348.618 170.942C347.999 170.529 347.605 169.852 347.563 169.11C347.563 168.439 348.04 168.168 348.623 168.521L359.223 174.634Z" fill="#D2D2D2"/>
<path d="M363.41 193.237C364.029 193.643 364.417 194.32 364.465 195.062C364.465 195.734 363.988 196.004 363.405 195.651L348.588 187.095C347.97 186.688 347.581 186.011 347.534 185.269C347.534 184.598 348.011 184.327 348.6 184.68L363.41 193.237Z" fill="#D2D2D2"/>
<path d="M359.146 198.872C359.765 199.279 360.153 199.956 360.2 200.698C360.2 201.369 359.723 201.64 359.134 201.287L348.535 195.174C347.91 194.774 347.516 194.091 347.475 193.349C347.475 192.677 347.952 192.406 348.54 192.76L359.146 198.872Z" fill="#D2D2D2"/>
<path d="M354.329 179.898C354.947 180.305 355.336 180.982 355.383 181.724C355.383 182.395 354.906 182.666 354.323 182.313L348.611 179.015C347.992 178.609 347.604 177.932 347.557 177.19C347.557 176.518 348.034 176.247 348.623 176.601L354.329 179.898Z" fill="#D2D2D2"/>
<path d="M316.424 81.3489C316.748 81.555 316.948 81.9024 316.965 82.2852C316.965 82.6327 316.724 82.7681 316.424 82.5973C316.1 82.3912 315.894 82.0379 315.876 81.6551C315.882 81.3077 316.123 81.1722 316.424 81.3489Z" fill="#737373"/>
<path d="M316.289 87.6558C316.613 87.8619 316.813 88.2094 316.831 88.5921C316.831 88.9396 316.589 89.075 316.289 88.9042C315.965 88.6981 315.759 88.3448 315.741 87.962C315.741 87.6146 315.989 87.4791 316.289 87.6558Z" fill="#737373"/>
<path d="M316.247 102.702C316.571 102.908 316.771 103.261 316.789 103.644C316.789 103.986 316.541 104.127 316.241 103.956C315.917 103.75 315.717 103.397 315.699 103.014C315.699 102.702 315.947 102.543 316.247 102.702Z" fill="#737373"/>
<path d="M316.228 108.914C316.552 109.121 316.752 109.474 316.77 109.857C316.77 110.198 316.523 110.34 316.222 110.163C315.899 109.957 315.698 109.609 315.681 109.227C315.681 108.879 315.928 108.738 316.228 108.914Z" fill="#737373"/>
<path d="M316.211 115.11C316.535 115.316 316.735 115.669 316.753 116.052C316.753 116.393 316.505 116.535 316.205 116.364C315.881 116.158 315.681 115.804 315.663 115.422C315.663 115.068 315.91 114.939 316.211 115.11Z" fill="#737373"/>
<path d="M324.356 64.5068C324.974 64.9132 325.363 65.5904 325.41 66.3324C325.41 67.0096 324.933 67.2805 324.35 66.9213L320.116 64.4774C319.491 64.0711 319.097 63.3938 319.062 62.6519C319.062 61.9805 319.539 61.7096 320.122 62.063L324.356 64.5068Z" fill="#D2D2D2"/>
<path d="M335.325 52.2051C337.245 53.4535 338.446 55.544 338.57 57.8289C338.57 59.8959 337.104 60.7262 335.302 59.6898L318.224 49.8142C316.304 48.5658 315.103 46.4752 314.979 44.1904C314.979 42.1234 316.452 41.2931 318.248 42.3295L335.325 52.2051Z" fill="#D2D2D2"/>
<path d="M335.868 42.1293C336.486 42.5356 336.875 43.2128 336.922 43.9548C336.922 44.632 336.445 44.897 335.862 44.5437L325.262 38.4311C324.638 38.0306 324.243 37.3475 324.208 36.6055C324.208 35.9342 324.685 35.6633 325.268 36.0167L335.868 42.1293Z" fill="#737373"/>
<path d="M316.582 26.6004L589.441 184.138C591.337 185.228 592.497 187.254 592.491 189.438V198.024L342.564 53.7479L311.306 35.7046V29.6626C311.312 27.7134 312.902 26.1352 314.851 26.1411C315.457 26.1411 316.052 26.3001 316.582 26.6004ZM541.482 164.676C542.737 165.4 543.761 164.823 543.761 163.374C543.679 161.779 542.837 160.324 541.5 159.452L502.428 136.898C501.173 136.168 500.155 136.751 500.149 138.194C500.231 139.79 501.073 141.25 502.416 142.122L541.482 164.676ZM560.421 174.64C561.01 174.975 561.487 174.704 561.487 174.051C561.44 173.309 561.051 172.632 560.433 172.225L549.833 166.113C549.244 165.777 548.773 166.048 548.767 166.702C548.808 167.444 549.203 168.127 549.827 168.527L560.427 174.64H560.421ZM335.862 44.5614C336.451 44.897 336.922 44.632 336.922 43.9725C336.875 43.2305 336.486 42.5533 335.868 42.1469L325.268 36.0402C324.679 35.6987 324.208 35.9696 324.208 36.6291C324.243 37.3711 324.638 38.0542 325.262 38.4546L335.862 44.5672V44.5614ZM318.561 35.9813V35.1333L314.98 33.0664V33.9144L318.561 35.9813ZM318.561 32.448V31.6L314.98 29.5213V30.3693L318.561 32.4363V32.448ZM318.561 34.2029V33.3549L314.98 31.2938V32.1418L318.561 34.2088" fill="#D2D2D2"/>
<path d="M359.089 223.105C359.707 223.517 360.101 224.194 360.143 224.936C360.143 225.602 359.666 225.878 359.083 225.525L348.483 219.418C347.859 219.012 347.47 218.335 347.429 217.593C347.429 216.922 347.906 216.645 348.489 217.004L359.089 223.105Z" fill="#D2D2D2"/>
<path d="M354.236 212.234C354.86 212.64 355.255 213.318 355.29 214.06C355.29 214.731 354.813 215.002 354.23 214.648L348.547 211.351C347.923 210.95 347.529 210.267 347.487 209.525C347.487 208.854 347.97 208.583 348.553 208.936L354.236 212.234Z" fill="#D2D2D2"/>
<path d="M359.146 206.934C359.765 207.34 360.153 208.018 360.2 208.76C360.2 209.431 359.723 209.702 359.134 209.348L348.535 203.236C347.91 202.835 347.516 202.152 347.475 201.41C347.475 200.739 347.952 200.468 348.54 200.821L359.146 206.934Z" fill="#D2D2D2"/>
<path d="M470.929 287.676C471.548 288.088 471.942 288.765 471.983 289.507C471.983 290.179 471.507 290.449 470.924 290.096L460.324 283.989C459.699 283.589 459.305 282.906 459.27 282.164C459.27 281.493 459.747 281.216 460.33 281.575L470.929 287.676Z" fill="#D2D2D2"/>
<path d="M584.241 345.009C584.865 345.41 585.259 346.093 585.295 346.835C585.295 347.506 584.824 347.777 584.235 347.424L582.468 346.387C581.85 345.981 581.461 345.304 581.414 344.562C581.414 343.891 581.891 343.62 582.48 343.973L584.241 345.009Z" fill="#D2D2D2"/>
<path d="M466.076 276.787C466.7 277.194 467.095 277.871 467.13 278.613C467.13 279.284 466.653 279.555 466.07 279.202L460.364 275.904C459.739 275.504 459.345 274.821 459.31 274.079C459.31 273.407 459.781 273.136 460.37 273.49L466.076 276.787Z" fill="#D2D2D2"/>
<path d="M470.975 271.523C471.594 271.929 471.982 272.606 472.029 273.348C472.029 274.02 471.552 274.29 470.969 273.937L460.37 267.825C459.745 267.424 459.351 266.741 459.315 265.999C459.315 265.328 459.787 265.057 460.375 265.41L470.975 271.523Z" fill="#D2D2D2"/>
<path d="M471 263.467C471.618 263.873 472.007 264.55 472.054 265.292C472.054 265.964 471.577 266.235 470.994 265.881L460.394 259.769C459.776 259.362 459.387 258.685 459.34 257.943C459.34 257.272 459.817 257.001 460.406 257.354L471 263.467Z" fill="#D2D2D2"/>
<path d="M466.17 244.469C466.788 244.876 467.177 245.553 467.224 246.295C467.224 246.966 466.747 247.237 466.164 246.884L460.452 243.586C459.833 243.18 459.445 242.503 459.397 241.761C459.397 241.089 459.874 240.818 460.457 241.172L466.17 244.469Z" fill="#D2D2D2"/>
<path d="M466.171 252.549C466.789 252.961 467.184 253.638 467.225 254.38C467.225 255.046 466.748 255.317 466.165 254.969L460.435 251.689C459.817 251.277 459.422 250.6 459.381 249.858C459.381 249.186 459.858 248.916 460.441 249.269L466.171 252.549Z" fill="#D2D2D2"/>
<path d="M471.064 239.205C471.688 239.611 472.083 240.288 472.118 241.03C472.118 241.702 471.641 241.973 471.058 241.619L460.458 235.513C459.84 235.106 459.451 234.429 459.404 233.687C459.404 233.01 459.881 232.739 460.464 233.098L471.064 239.205Z" fill="#D2D2D2"/>
<path d="M535.63 325.034C536.254 325.441 536.648 326.118 536.684 326.86C536.684 327.531 536.207 327.802 535.624 327.449L525.024 321.336C524.405 320.93 524.017 320.253 523.97 319.511C523.97 318.839 524.447 318.569 525.03 318.922L535.63 325.034Z" fill="#D2D2D2"/>
<path d="M530.782 314.14C531.4 314.552 531.795 315.23 531.836 315.972C531.836 316.637 531.359 316.914 530.776 316.561L525.064 313.269C524.446 312.862 524.057 312.185 524.01 311.443C524.01 310.766 524.487 310.495 525.07 310.854L530.782 314.14Z" fill="#D2D2D2"/>
<path d="M535.676 308.876C536.301 309.282 536.689 309.959 536.731 310.701C536.731 311.372 536.254 311.649 535.671 311.29L525.071 305.183C524.446 304.777 524.052 304.094 524.017 303.352C524.017 302.686 524.494 302.41 525.077 302.763L535.676 308.876Z" fill="#D2D2D2"/>
<path d="M535.699 300.796C536.317 301.202 536.706 301.88 536.753 302.622C536.753 303.299 536.276 303.57 535.693 303.21L525.093 297.104C524.469 296.703 524.074 296.02 524.039 295.278C524.039 294.601 524.516 294.33 525.099 294.689L535.699 300.796Z" fill="#D2D2D2"/>
<path d="M530.871 281.828C531.495 282.234 531.89 282.912 531.925 283.654C531.925 284.325 531.448 284.596 530.865 284.243L525.159 280.945C524.534 280.544 524.14 279.861 524.104 279.119C524.104 278.448 524.576 278.171 525.164 278.53L530.871 281.828Z" fill="#D2D2D2"/>
<path d="M539.934 295.16C540.558 295.567 540.953 296.25 540.994 296.992C540.994 297.663 540.511 297.928 539.928 297.581L525.118 289.03C524.493 288.63 524.099 287.947 524.063 287.205C524.063 286.533 524.535 286.262 525.123 286.616L539.934 295.16Z" fill="#D2D2D2"/>
<path d="M535.764 276.558C536.389 276.964 536.783 277.647 536.824 278.389C536.824 279.06 536.347 279.331 535.759 278.978L525.159 272.871C524.54 272.465 524.152 271.788 524.104 271.046C524.104 270.374 524.581 270.104 525.17 270.457L535.764 276.558Z" fill="#D2D2D2"/>
<path d="M510.261 207.028L547.72 228.658L547.614 266.452L510.155 244.829L510.261 207.028Z" fill="white"/>
<path d="M531.602 249.787C532.226 250.193 532.62 250.871 532.656 251.613C532.656 252.284 532.179 252.555 531.596 252.201L526.202 249.086C525.577 248.68 525.183 247.997 525.147 247.255C525.147 246.584 525.619 246.313 526.207 246.666L531.602 249.787Z" fill="#D2D2D2"/>
<path d="M534.21 245.948C534.834 246.354 535.228 247.031 535.264 247.773C535.264 248.444 534.787 248.715 534.204 248.362L523.621 242.267C522.997 241.861 522.603 241.183 522.567 240.441C522.567 239.77 523.044 239.499 523.627 239.853L534.21 245.948Z" fill="#737373"/>
<path d="M528.932 220.119C532.89 222.404 536.087 227.94 536.076 232.486C536.064 237.032 532.849 238.869 528.885 236.608C524.922 234.347 521.736 228.788 521.748 224.241C521.76 219.695 524.975 217.834 528.932 220.119Z" fill="#18C2A4"/>
<path d="M510.383 164.534L547.842 186.164L547.736 223.965L510.271 202.335L510.383 164.534Z" fill="white"/>
<path d="M531.725 207.27C532.343 207.676 532.732 208.353 532.779 209.095C532.779 209.767 532.302 210.037 531.719 209.684L526.319 206.569C525.7 206.163 525.312 205.485 525.265 204.743C525.265 204.066 525.742 203.801 526.325 204.155L531.725 207.27Z" fill="#D2D2D2"/>
<path d="M551.258 230.695L588.723 252.325L588.611 290.126L551.152 268.496L551.258 230.695Z" fill="white"/>
<path d="M572.605 273.478C573.223 273.884 573.612 274.561 573.659 275.303C573.659 275.981 573.176 276.251 572.593 275.892L567.199 272.777C566.574 272.377 566.18 271.694 566.145 270.952C566.145 270.28 566.622 270.009 567.205 270.363L572.605 273.478Z" fill="#D2D2D2"/>
<path d="M588.593 296.591L588.576 303.564L345.974 163.498L345.997 156.526L588.593 296.591Z" fill="#D2D2D2"/>
<path d="M359.223 166.749C359.848 167.155 360.242 167.838 360.277 168.58C360.277 169.246 359.8 169.522 359.217 169.169L348.618 163.062C347.999 162.656 347.611 161.979 347.563 161.237C347.563 160.565 348.04 160.289 348.623 160.648L359.223 166.749Z" fill="#737373"/>
<path d="M471.064 231.414C471.688 231.82 472.083 232.503 472.118 233.245C472.118 233.917 471.647 234.188 471.058 233.834L460.458 227.722C459.84 227.315 459.451 226.638 459.404 225.896C459.404 225.225 459.881 224.954 460.47 225.307L471.064 231.414Z" fill="#737373"/>
<path d="M535.771 268.29C536.389 268.702 536.784 269.379 536.825 270.121C536.825 270.793 536.348 271.063 535.765 270.71L525.212 264.645C524.588 264.244 524.194 263.561 524.152 262.819C524.152 262.148 524.635 261.877 525.218 262.23L535.771 268.29Z" fill="#737373"/>
<path d="M551.376 188.184L588.84 209.814L588.734 247.608L551.27 225.979L551.376 188.184Z" fill="white"/>
<path d="M575.209 269.615C575.833 270.021 576.227 270.704 576.263 271.446C576.263 272.112 575.786 272.388 575.203 272.035L564.603 265.928C563.985 265.522 563.596 264.845 563.549 264.103C563.549 263.431 564.026 263.161 564.609 263.514L575.209 269.615Z" fill="#737373"/>
<path d="M572.723 230.943C573.341 231.349 573.73 232.026 573.777 232.768C573.777 233.44 573.3 233.711 572.717 233.357L567.317 230.242C566.698 229.836 566.31 229.158 566.263 228.417C566.263 227.745 566.74 227.474 567.323 227.828L572.723 230.943Z" fill="#D2D2D2"/>
<path d="M565.214 185.599C566.551 186.47 567.393 187.931 567.481 189.527C567.481 190.969 566.456 191.552 565.196 190.828L548.925 181.406C547.583 180.534 546.741 179.08 546.658 177.484C546.658 176.041 547.683 175.458 548.937 176.183L565.214 185.599Z" fill="white"/>
<path d="M584.336 312.692C584.954 313.104 585.348 313.781 585.39 314.523C585.39 315.188 584.913 315.465 584.33 315.112L582.534 314.075C581.909 313.669 581.515 312.992 581.479 312.25C581.479 311.579 581.957 311.308 582.54 311.661L584.336 312.692Z" fill="#18C2A4"/>
<path d="M584.336 320.771C584.954 321.183 585.348 321.86 585.39 322.602C585.39 323.268 584.913 323.545 584.33 323.191L582.534 322.155C581.909 321.749 581.515 321.071 581.479 320.329C581.479 319.658 581.957 319.387 582.54 319.74L584.336 320.771Z" fill="#18C2A4"/>
<path d="M584.336 304.748C584.954 305.154 585.343 305.831 585.39 306.573C585.39 307.244 584.913 307.515 584.33 307.162L582.534 306.125C581.915 305.719 581.527 305.042 581.479 304.3C581.479 303.623 581.957 303.352 582.54 303.711L584.336 304.748Z" fill="#18C2A4"/>
<path d="M584.336 296.379C584.954 296.792 585.348 297.469 585.39 298.211C585.39 298.882 584.913 299.153 584.33 298.8L582.534 297.763C581.909 297.357 581.515 296.68 581.479 295.938C581.479 295.267 581.957 294.996 582.54 295.349L584.336 296.379Z" fill="#737373"/>
<path d="M584.336 336.93C584.954 337.336 585.343 338.014 585.39 338.756C585.39 339.427 584.913 339.698 584.33 339.344L582.534 338.308C581.909 337.902 581.515 337.224 581.479 336.482C581.479 335.811 581.957 335.54 582.54 335.894L584.336 336.93Z" fill="#EF8C8B"/>
<path d="M584.336 353.089C584.954 353.495 585.343 354.172 585.39 354.914C585.39 355.586 584.913 355.857 584.33 355.503L582.534 354.467C581.915 354.061 581.527 353.383 581.479 352.641C581.479 351.964 581.957 351.693 582.54 352.052L584.336 353.089Z" fill="#18C2A4"/>
<path d="M584.336 345.009C584.954 345.416 585.343 346.093 585.39 346.835C585.39 347.506 584.913 347.777 584.33 347.424L582.534 346.387C581.909 345.981 581.515 345.304 581.479 344.562C581.479 343.891 581.957 343.62 582.54 343.973L584.336 345.009Z" fill="#EF8C8B"/>
<path d="M584.336 328.98C584.954 329.392 585.348 330.069 585.39 330.811C585.39 331.483 584.913 331.754 584.33 331.4L582.534 330.364C581.915 329.952 581.521 329.274 581.479 328.532C581.479 327.861 581.957 327.59 582.54 327.944L584.336 328.98Z" fill="#EF8C8B"/>
<path d="M534.334 203.43C534.952 203.842 535.347 204.52 535.388 205.262C535.388 205.927 534.911 206.204 534.322 205.851L523.722 199.744C523.098 199.337 522.709 198.66 522.662 197.918C522.662 197.241 523.139 196.97 523.728 197.329L534.334 203.43Z" fill="#737373"/>
<path d="M529.057 177.602C533.015 179.887 536.212 185.428 536.201 189.968C536.189 194.509 532.968 196.352 529.01 194.091C525.053 191.829 521.855 186.264 521.867 181.724C521.879 177.184 525.1 175.317 529.057 177.602Z" fill="#EF8C8B"/>
<path d="M569.931 243.792C573.895 246.077 577.092 251.613 577.075 256.159C577.057 260.705 573.848 262.542 569.89 260.281C565.933 258.02 562.735 252.455 562.747 247.914C562.759 243.374 565.98 241.507 569.931 243.792Z" fill="#F4AD53"/>
<path d="M575.332 227.103C575.95 227.51 576.339 228.187 576.386 228.929C576.386 229.6 575.909 229.871 575.326 229.518L564.726 223.405C564.108 222.999 563.719 222.322 563.672 221.58C563.672 220.908 564.155 220.637 564.738 220.991L575.332 227.103Z" fill="#737373"/>
<path d="M541.501 159.452C542.838 160.324 543.68 161.779 543.762 163.374C543.762 164.823 542.737 165.4 541.483 164.676L502.417 142.122C501.074 141.25 500.232 139.79 500.149 138.194C500.149 136.751 501.174 136.168 502.428 136.898L541.501 159.452Z" fill="white"/>
<path d="M570.056 201.275C574.013 203.56 577.21 209.101 577.199 213.641C577.187 218.182 573.966 220.025 570.008 217.764C566.051 215.502 562.853 209.943 562.865 205.397C562.877 200.851 566.098 198.99 570.056 201.275Z" fill="#0099CC"/>
<path d="M584.996 182.678C587.304 184.174 588.753 186.688 588.9 189.432C588.9 191.918 587.133 192.925 584.972 191.67L570.415 183.267C568.113 181.765 566.658 179.257 566.511 176.512C566.511 174.027 568.277 173.026 570.439 174.275L584.996 182.678Z" fill="white"/>
<path d="M560.432 172.19C561.051 172.596 561.439 173.273 561.487 174.015C561.487 174.687 561.01 174.958 560.421 174.604L549.821 168.492C549.197 168.091 548.802 167.408 548.761 166.666C548.761 165.995 549.238 165.724 549.827 166.077L560.432 172.19Z" fill="#737373"/>
<path d="M570.415 175.782C571.845 176.707 572.741 178.261 572.829 179.963C572.829 181.5 571.734 182.124 570.397 181.347C568.966 180.423 568.071 178.868 567.982 177.166C567.988 175.629 569.072 175.005 570.415 175.782Z" fill="#18C2A4"/>
<path d="M586.503 197.895C587.846 198.766 588.688 200.221 588.77 201.817C588.77 203.259 587.745 203.842 586.491 203.118L573.147 195.415C571.81 194.544 570.968 193.089 570.88 191.494C570.88 190.051 571.91 189.468 573.165 190.192L586.503 197.895Z" fill="white"/>
<path d="M506.167 243.121L346.244 150.784V69.7479L506.167 162.079V243.121Z" fill="white"/>
<path d="M345.974 136.586C345.974 136.586 355.708 131.922 364.465 143.982C373.221 156.043 374.97 100.935 396.918 110.357C418.866 119.779 419.884 171.483 438.446 181.695C457.008 191.906 456.065 163.204 469.356 165.965C482.647 168.727 464.645 203.418 506.167 219.147" stroke="#F2F2F2" stroke-width="1.82781" stroke-miterlimit="10"/>
<path d="M346.244 116.435C346.244 116.435 358.216 103.344 365.583 114.22C371.737 123.307 376.525 133.453 386.141 133.453C395.757 133.453 399.214 121.623 404.226 124.349C415.774 130.621 412.664 163.622 421.615 163.292C430.566 162.962 434.194 150.272 440.495 153.587C446.796 156.903 452.661 185.817 461.106 180.864C467.318 177.213 473.472 174.386 478.342 183.85C480.981 189.008 495.008 203.365 506.197 191.146" stroke="#EF8C8B" stroke-width="1.82781" stroke-miterlimit="10"/>
<path opacity="0.15" d="M306.442 218.229V8.35683C306.442 3.9991 309.987 0.471688 314.345 0.477577C315.688 0.477577 317.001 0.825018 318.173 1.47279L495.963 100.617L336.823 253.456L334.65 252.508L322.637 245.8C312.637 240.229 306.436 229.677 306.442 218.229Z" fill="white"/>
<path d="M681.85 386.184C689.499 386.184 695.7 382.211 695.7 377.31C695.7 372.408 689.499 368.435 681.85 368.435C674.2 368.435 667.999 372.408 667.999 377.31C667.999 382.211 674.2 386.184 681.85 386.184Z" stroke="white" stroke-width="0.913904" stroke-miterlimit="10"/>
<path d="M452.791 562.072C460.44 562.072 466.641 558.099 466.641 553.197C466.641 548.296 460.44 544.323 452.791 544.323C445.142 544.323 438.94 548.296 438.94 553.197C438.94 558.099 445.142 562.072 452.791 562.072Z" stroke="white" stroke-width="0.913904" stroke-miterlimit="10"/>
<path d="M318.862 567.407C326.512 567.407 332.713 563.434 332.713 558.532C332.713 553.631 326.512 549.658 318.862 549.658C311.213 549.658 305.012 553.631 305.012 558.532C305.012 563.434 311.213 567.407 318.862 567.407Z" stroke="white" stroke-width="0.913904" stroke-miterlimit="10"/>
<path d="M61.207 422.194C68.8564 422.194 75.0575 418.221 75.0575 413.32C75.0575 408.419 68.8564 404.445 61.207 404.445C53.5575 404.445 47.3564 408.419 47.3564 413.32C47.3564 418.221 53.5575 422.194 61.207 422.194Z" stroke="white" stroke-width="0.913904" stroke-miterlimit="10"/>
<path d="M283.645 516.274C287.805 516.274 291.177 514.115 291.177 511.451C291.177 508.788 287.805 506.628 283.645 506.628C279.485 506.628 276.113 508.788 276.113 511.451C276.113 514.115 279.485 516.274 283.645 516.274Z" stroke="white" stroke-width="0.913904" stroke-miterlimit="10"/>
<path d="M597.715 438.324C601.875 438.324 605.247 436.165 605.247 433.501C605.247 430.837 601.875 428.678 597.715 428.678C593.556 428.678 590.184 430.837 590.184 433.501C590.184 436.165 593.556 438.324 597.715 438.324Z" stroke="white" stroke-width="0.913904" stroke-miterlimit="10"/>
<path d="M94.8033 307.445C98.963 307.445 102.335 305.285 102.335 302.622C102.335 299.958 98.963 297.799 94.8033 297.799C90.6436 297.799 87.2715 299.958 87.2715 302.622C87.2715 305.285 90.6436 307.445 94.8033 307.445Z" stroke="white" stroke-width="0.913904" stroke-miterlimit="10"/>
<path d="M250.462 253.126C254.622 253.126 257.994 250.967 257.994 248.303C257.994 245.639 254.622 243.48 250.462 243.48C246.303 243.48 242.931 245.639 242.931 248.303C242.931 250.967 246.303 253.126 250.462 253.126Z" stroke="white" stroke-width="0.913904" stroke-miterlimit="10"/>
<path d="M131.738 427.718C135.898 427.718 139.27 425.559 139.27 422.895C139.27 420.231 135.898 418.072 131.738 418.072C127.578 418.072 124.206 420.231 124.206 422.895C124.206 425.559 127.578 427.718 131.738 427.718Z" stroke="white" stroke-width="0.913904" stroke-miterlimit="10"/>
<path d="M168.967 251.666L177.776 247.761" stroke="#4DBFE5" stroke-width="7.31123" stroke-miterlimit="10" stroke-linecap="round"/>
<path d="M649.195 464.841L642.464 471.979" stroke="#4DBFE5" stroke-width="7.31123" stroke-miterlimit="10" stroke-linecap="round"/>
<path d="M250.463 191.87L259.903 190.11" stroke="#4DBFE5" stroke-width="7.31123" stroke-miterlimit="10" stroke-linecap="round"/>
<path d="M153.985 565.004L168.967 570.917" stroke="#4DBFE5" stroke-width="7.31123" stroke-miterlimit="10" stroke-linecap="round"/>
<path d="M171.752 353.613L171.717 302.298L157.277 293.883V345.115L171.752 353.613Z" fill="#18C2A4"/>
<path d="M208.941 375.631L208.905 355.639L194.466 347.23V367.128L208.941 375.631Z" fill="#F4AD53"/>
<path d="M190.191 364.289L190.155 332.984L175.716 324.575V355.792L190.191 364.289Z" fill="#0099CC"/>
<path opacity="0.5" d="M681.849 348.048C711.956 348.048 736.362 333.355 736.362 315.23C736.362 297.105 711.956 282.411 681.849 282.411C651.742 282.411 627.336 297.105 627.336 315.23C627.336 333.355 651.742 348.048 681.849 348.048Z" fill="#283C43"/>
<path d="M627.329 278.931V298.664C627.329 316.79 651.738 331.483 681.848 331.483C711.958 331.483 736.361 316.761 736.361 298.664V278.931H627.329Z" fill="#0099CC"/>
<path d="M681.849 311.749C711.956 311.749 736.362 297.056 736.362 278.931C736.362 260.806 711.956 246.112 681.849 246.112C651.742 246.112 627.336 260.806 627.336 278.931C627.336 297.056 651.742 311.749 681.849 311.749Z" fill="#7BCCE8"/>
<path d="M736.361 298.664V281.722L681.854 278.931L705.357 308.552V328.279C723.695 322.997 736.361 311.72 736.361 298.664Z" fill="#84E6D4"/>
<path d="M705.352 308.552V328.279C723.695 322.979 736.362 311.72 736.362 298.664V281.722" fill="#18C2A4"/>
<path d="M736.167 281.722L681.854 278.931L705.357 308.552C722.381 303.646 734.512 293.576 736.167 281.722Z" fill="#84E6D4"/>
<path d="M266.615 66.0673C275.536 71.2201 282.774 83.7338 282.744 94.0098C282.715 104.286 275.43 108.414 266.509 103.291V105.134C256.686 99.4629 248.748 85.7007 248.777 74.4236C248.807 63.1465 256.804 58.5885 266.621 64.2536V66.0673H266.615Z" fill="#F2F2F2"/>
<path d="M266.462 118.766C275.39 123.919 282.627 136.433 282.598 146.709C282.568 156.985 275.284 161.113 266.356 155.96V157.804C256.54 152.133 248.596 138.37 248.631 127.093C248.666 115.816 256.657 111.252 266.474 116.923L266.462 118.766Z" fill="#F2F2F2"/>
<path d="M269.896 137.988C270.596 138.453 271.032 139.224 271.073 140.066C271.073 140.826 270.538 141.138 269.896 140.755L262.829 136.68C262.128 136.215 261.693 135.45 261.651 134.607C261.651 133.848 262.187 133.53 262.829 133.913L269.896 137.988Z" fill="#D2D2D2"/>
<path d="M266.474 115.068C277.168 121.24 285.842 136.268 285.807 148.546C285.772 160.824 277.039 165.801 266.374 159.629V155.949C275.301 161.101 282.586 156.95 282.615 146.697C282.645 136.445 275.407 123.907 266.48 118.755V115.068H266.474Z" fill="#18C2A4"/>
<path d="M270.049 85.2885C270.75 85.7537 271.186 86.5251 271.227 87.3672C271.227 88.1269 270.691 88.4331 270.049 88.0503L262.982 83.9753C262.282 83.5159 261.846 82.7445 261.805 81.9083C261.805 81.1486 262.341 80.8306 262.982 81.2134L270.049 85.2885Z" fill="#D2D2D2"/>
<path d="M266.622 62.381C277.316 68.5524 285.99 83.5807 285.955 95.8648C285.919 108.149 277.192 113.113 266.521 106.942V103.291C275.443 108.443 282.728 104.298 282.757 94.0393C282.786 83.781 275.549 71.2495 266.627 66.0968V62.381H266.622Z" fill="#0099CC"/>
<path d="M570.562 117.836L570.538 124.691L502.328 85.3062L502.346 78.4575L570.562 117.836Z" fill="#F4AD53"/>
<path d="M606.624 124.526L606.601 131.38L529.057 86.6076L529.074 79.7589L606.624 124.526Z" fill="#0099CC"/>
<path d="M593.282 130.956L593.264 137.805L570.539 124.691L570.563 117.836L593.282 130.956Z" fill="#F2F2F2"/>
<path d="M579.966 96.6186L579.948 103.467L502.404 58.7004L502.422 51.8458L579.966 96.6186Z" fill="#18C2A4"/>
<path d="M620.01 132.258L619.987 139.106L606.602 131.38L606.625 124.526L620.01 132.258Z" fill="#F2F2F2"/>
<path d="M593.357 104.351L593.334 111.199L579.948 103.467L579.966 96.6186L593.357 104.351Z" fill="#F2F2F2"/>
<path d="M57.3551 382.203C74.2476 382.203 87.9417 375.174 87.9417 366.504C87.9417 357.833 74.2476 350.804 57.3551 350.804C40.4626 350.804 26.7686 357.833 26.7686 366.504C26.7686 375.174 40.4626 382.203 57.3551 382.203Z" fill="#D2D2D2"/>
<path d="M24.9678 340.575V360.691C24.9678 369.872 39.4661 377.316 57.3563 377.316C75.2466 377.316 89.7449 369.872 89.7449 360.691V340.575H24.9678Z" fill="#F2F2F2"/>
<path d="M57.3554 357.205C75.2463 357.205 89.7498 349.76 89.7498 340.575C89.7498 331.391 75.2463 323.945 57.3554 323.945C39.4644 323.945 24.9609 331.391 24.9609 340.575C24.9609 349.76 39.4644 357.205 57.3554 357.205Z" fill="#D2D2D2"/>
<path d="M57.3565 349.002C66.4207 349.002 73.7687 345.229 73.7687 340.575C73.7687 335.921 66.4207 332.148 57.3565 332.148C48.2923 332.148 40.9443 335.921 40.9443 340.575C40.9443 345.229 48.2923 349.002 57.3565 349.002Z" fill="#F2F2F2"/>
<path d="M104.337 269.945L57.356 286.987L10.3809 269.945C10.3809 269.945 16.8586 308.811 51.0727 329.616V336.441C51.0727 339.91 53.8875 342.725 57.356 342.725C60.8246 342.725 63.6335 339.921 63.6394 336.453V329.587C97.883 308.811 104.337 269.945 104.337 269.945Z" fill="url(#paint0_linear_350_448)"/>
<path d="M57.3561 294.03C83.303 294.03 104.337 283.233 104.337 269.915C104.337 256.597 83.303 245.8 57.3561 245.8C31.4091 245.8 10.375 256.597 10.375 269.915C10.375 283.233 31.4091 294.03 57.3561 294.03Z" fill="#5E9ABC"/>
<path d="M104.337 269.945L57.356 286.987L10.3809 269.945C10.3809 269.945 16.8586 308.811 51.0727 329.616V336.441C51.0727 339.91 53.8875 342.725 57.356 342.725C60.8246 342.725 63.6335 339.921 63.6394 336.453V329.587C97.883 308.811 104.337 269.945 104.337 269.945Z" fill="#0099CC"/>
<path d="M57.3561 294.03C83.303 294.03 104.337 283.233 104.337 269.915C104.337 256.597 83.303 245.8 57.3561 245.8C31.4091 245.8 10.375 256.597 10.375 269.915C10.375 283.233 31.4091 294.03 57.3561 294.03Z" fill="#7BCCE8"/>
<path d="M57.3551 289.472C79.5326 289.472 97.5111 280.518 97.5111 269.473C97.5111 258.429 79.5326 249.475 57.3551 249.475C35.1776 249.475 17.1992 258.429 17.1992 269.473C17.1992 280.518 35.1776 289.472 57.3551 289.472Z" fill="#0099CC"/>
<g opacity="0.4">
<path d="M194.448 64.4538C194.931 64.7365 195.372 65.0839 195.755 65.4844C196.144 65.8848 196.479 66.3323 196.75 66.8152C197.021 67.2804 197.233 67.7751 197.38 68.2933C197.522 68.7821 197.598 69.2826 197.598 69.7891L196.815 69.3415C196.815 68.9411 196.768 68.5465 196.656 68.1638C196.556 67.7751 196.403 67.3982 196.203 67.0508C195.991 66.6916 195.737 66.3618 195.455 66.0615C195.154 65.7552 194.813 65.4902 194.442 65.2782C194.136 65.0898 193.794 64.9485 193.441 64.8719C193.199 64.8189 192.946 64.8366 192.717 64.9249C192.522 65.0132 192.369 65.1664 192.281 65.3607C192.175 65.5962 192.122 65.8554 192.128 66.1145C192.128 66.403 192.169 66.6857 192.245 66.9624C192.346 67.2804 192.487 67.5808 192.664 67.8634C192.887 68.2168 193.141 68.5524 193.423 68.8645C193.794 69.2768 194.189 69.6713 194.601 70.0423C195.084 70.4957 195.52 70.9374 195.896 71.3555C196.256 71.7618 196.574 72.2035 196.85 72.6687C197.098 73.0751 197.298 73.5108 197.439 73.9643C197.569 74.4118 197.634 74.8711 197.634 75.3364C197.657 75.7427 197.569 76.149 197.392 76.5141C197.251 76.785 197.021 76.997 196.733 77.103C196.403 77.2031 196.055 77.2031 195.726 77.103C195.284 76.997 194.854 76.8262 194.465 76.5907C194.171 76.414 193.894 76.2197 193.635 76.0018C193.353 75.778 193.088 75.5307 192.84 75.2716C192.581 74.9948 192.346 74.7063 192.128 74.3942C191.904 74.0762 191.704 73.7405 191.539 73.3872C191.38 73.0279 191.25 72.6511 191.156 72.2683C191.062 71.8737 191.015 71.4674 191.015 71.0611L191.798 71.5086C191.792 71.9856 191.869 72.4567 192.033 72.9043C192.187 73.3224 192.393 73.7169 192.652 74.082C192.899 74.4354 193.182 74.7534 193.506 75.036C193.794 75.2951 194.112 75.5248 194.454 75.7191C194.754 75.9076 195.084 76.0489 195.431 76.1314C195.679 76.202 195.938 76.202 196.185 76.1314C196.397 76.0607 196.568 75.9135 196.668 75.7132C196.792 75.46 196.85 75.1833 196.839 74.9006C196.839 74.5885 196.797 74.2764 196.721 73.9702C196.627 73.6463 196.485 73.3342 196.303 73.0456C196.073 72.6864 195.82 72.3448 195.531 72.0268C195.207 71.6676 194.807 71.2672 194.354 70.8137C193.9 70.3603 193.47 69.9599 193.099 69.5476C192.752 69.1649 192.434 68.7527 192.157 68.311C191.91 67.9164 191.715 67.4924 191.568 67.0508C191.433 66.6209 191.362 66.1733 191.362 65.7199C191.35 65.3371 191.427 64.9602 191.592 64.6128C191.727 64.3419 191.957 64.1358 192.234 64.0239C192.552 63.912 192.893 63.8885 193.217 63.9709C193.653 64.0651 194.065 64.23 194.448 64.4538Z" fill="white"/>
<path d="M200.336 68.7998V71.0375L201.756 71.8561V72.6687L200.336 71.8502V77.6683C200.336 77.9333 200.354 78.1924 200.413 78.4515C200.454 78.64 200.519 78.8284 200.607 78.9992C200.678 79.1405 200.772 79.2642 200.89 79.3702C200.996 79.4644 201.108 79.5469 201.226 79.6175C201.332 79.6823 201.443 79.7353 201.555 79.7824L201.844 79.8943V80.7011C201.714 80.6834 201.597 80.6422 201.479 80.5892C201.326 80.5303 201.178 80.4596 201.037 80.3772C200.825 80.2476 200.625 80.0945 200.448 79.9179C200.254 79.7294 200.095 79.5115 199.971 79.2701C199.836 78.9874 199.736 78.693 199.671 78.3868C199.588 77.9981 199.553 77.6036 199.559 77.209V71.3908L198.299 70.6665V69.8715L199.553 70.6017V68.364L200.336 68.7998Z" fill="white"/>
<path d="M208.34 83.9517C208.34 84.1048 208.399 84.2403 208.428 84.3639V84.4464L207.616 83.9812C207.574 83.7868 207.539 83.5925 207.521 83.3923C207.521 83.1626 207.486 82.933 207.474 82.6974C207.362 82.827 207.221 82.9271 207.068 82.9977C206.903 83.0743 206.726 83.1214 206.544 83.1332C206.326 83.145 206.114 83.1214 205.902 83.0625C205.637 82.9918 205.384 82.88 205.148 82.7445C204.818 82.5443 204.512 82.3087 204.241 82.032C203.97 81.7552 203.741 81.4431 203.546 81.1074C203.358 80.7776 203.211 80.4302 203.105 80.0651C202.999 79.7176 202.946 79.3525 202.946 78.9874C202.928 78.6341 203.01 78.2808 203.169 77.9628C203.299 77.7155 203.523 77.527 203.794 77.4504C204.112 77.3562 204.453 77.3562 204.771 77.4504C205.231 77.5859 205.666 77.7802 206.073 78.0393L207.48 78.852V77.8568C207.492 77.2385 207.333 76.626 207.027 76.0901C206.715 75.5484 206.261 75.1008 205.713 74.7946C205.49 74.6591 205.236 74.559 204.977 74.5119C204.783 74.4648 204.577 74.4825 204.388 74.5531C204.229 74.6238 204.094 74.7416 204.006 74.8947C203.911 75.0773 203.864 75.2775 203.87 75.4836L203.111 75.036C203.105 74.7475 203.169 74.4589 203.305 74.1998C203.423 73.976 203.611 73.7935 203.841 73.6875C204.1 73.5756 204.388 73.5403 204.671 73.5874C205.054 73.6522 205.419 73.7876 205.749 73.9878C206.108 74.1998 206.444 74.453 206.744 74.7416C207.05 75.036 207.315 75.3717 207.533 75.7368C207.751 76.1078 207.928 76.5024 208.045 76.9146C208.169 77.3562 208.228 77.8097 208.222 78.269V82.9683C208.222 83.1332 208.222 83.3039 208.263 83.4629C208.305 83.6219 208.316 83.7986 208.34 83.9517ZM207.474 81.502V79.5763L206.179 78.8284C205.849 78.6282 205.501 78.4751 205.136 78.3632C204.889 78.2749 204.618 78.2513 204.359 78.2926C204.159 78.3338 203.982 78.4516 203.87 78.6223C203.747 78.8402 203.688 79.0875 203.699 79.3349C203.699 79.5822 203.735 79.8295 203.805 80.0651C203.882 80.3183 203.982 80.5597 204.112 80.7894C204.247 81.0191 204.412 81.237 204.595 81.4313C204.783 81.6256 204.995 81.7905 205.231 81.926C205.466 82.0673 205.725 82.1733 205.996 82.2381C206.208 82.2852 206.42 82.2852 206.632 82.2381C206.815 82.191 206.991 82.1026 207.133 81.979C207.274 81.8435 207.386 81.6786 207.468 81.502" fill="white"/>
<path d="M211.444 75.2127V77.4505L212.863 78.269V79.064L211.444 78.2454V84.0636C211.444 84.3227 211.461 84.5877 211.514 84.8409C211.556 85.0353 211.62 85.2178 211.709 85.3945C211.785 85.5299 211.879 85.6595 211.991 85.7655C212.097 85.8597 212.215 85.9422 212.333 86.0128C212.451 86.0776 212.557 86.1306 212.663 86.1777C212.769 86.2248 212.863 86.2543 212.945 86.2896L212.975 87.0964C212.851 87.0728 212.727 87.0375 212.61 86.9845C212.457 86.9256 212.303 86.849 212.162 86.7666C211.944 86.637 211.75 86.4839 211.573 86.3073C211.385 86.1188 211.226 85.9009 211.102 85.6595C210.967 85.3827 210.861 85.0883 210.796 84.782C210.719 84.3934 210.684 83.9988 210.69 83.6043V77.7861L209.43 77.0618V76.2668L210.684 76.997V74.7593L211.444 75.2127Z" fill="white"/>
<path d="M215.289 76.679C215.384 76.8439 215.431 77.0323 215.431 77.2267C215.448 77.368 215.395 77.5093 215.289 77.6036C215.195 77.6742 215.066 77.6565 214.907 77.5682C214.742 77.474 214.612 77.3327 214.53 77.1619C214.435 76.997 214.388 76.8086 214.388 76.6201C214.377 76.4788 214.43 76.3374 214.53 76.2373C214.624 76.1667 214.748 76.1784 214.912 76.2727C215.077 76.3669 215.207 76.5082 215.289 76.679Z" fill="white"/>
<path d="M214.488 87.962L214.518 79.2289L215.277 79.6647L215.248 88.3978L214.488 87.962Z" fill="white"/>
<path d="M219.623 82.0143C220.012 82.238 220.371 82.5089 220.689 82.8269C220.995 83.1273 221.26 83.4688 221.484 83.8339C221.696 84.1873 221.861 84.5641 221.978 84.9528C222.09 85.3179 222.143 85.7007 222.143 86.0835L221.384 85.6418C221.384 85.3945 221.342 85.153 221.272 84.9175C221.189 84.6466 221.071 84.3875 220.93 84.146C220.771 83.8869 220.583 83.6455 220.377 83.4217C220.153 83.192 219.894 82.9918 219.617 82.8328C219.387 82.6856 219.134 82.5855 218.863 82.5325C218.692 82.4972 218.51 82.5148 218.351 82.5914C218.215 82.6562 218.109 82.768 218.056 82.9094C217.992 83.0684 217.962 83.2333 217.962 83.404C217.962 83.6043 217.986 83.7986 218.033 83.9929C218.092 84.199 218.18 84.3992 218.298 84.5818C218.463 84.8291 218.651 85.0647 218.857 85.2826C219.093 85.5358 219.405 85.8302 219.788 86.1659C220.165 86.4898 220.518 86.8372 220.859 87.1964C221.136 87.4909 221.384 87.8148 221.596 88.1622C221.784 88.4625 221.925 88.7864 222.031 89.1221C222.126 89.4519 222.173 89.7875 222.173 90.1291C222.184 90.4353 222.12 90.7356 221.99 91.0124C221.89 91.2303 221.707 91.4011 221.484 91.4894C221.225 91.5777 220.948 91.5895 220.683 91.5247C220.312 91.4423 219.964 91.301 219.641 91.1007C219.211 90.8652 218.81 90.5707 218.463 90.2233C218.139 89.9053 217.856 89.5461 217.621 89.1574C217.397 88.8041 217.226 88.4272 217.108 88.0268C216.996 87.6793 216.938 87.3083 216.932 86.9432L217.691 87.3849C217.703 87.7206 217.78 88.0503 217.903 88.3624C218.033 88.651 218.204 88.916 218.404 89.1574C218.575 89.393 218.769 89.6109 218.993 89.7993C219.199 89.976 219.417 90.135 219.646 90.2704C219.882 90.4117 220.141 90.5177 220.412 90.5766C220.594 90.6237 220.783 90.6237 220.965 90.5766C221.113 90.5177 221.23 90.4117 221.301 90.2704C221.384 90.1055 221.425 89.923 221.419 89.7404C221.419 89.5402 221.395 89.3459 221.348 89.1515C221.289 88.9219 221.195 88.6981 221.077 88.492C220.918 88.2211 220.73 87.962 220.524 87.7264C220.235 87.4025 219.923 87.1081 219.593 86.8313C219.24 86.5369 218.904 86.2189 218.581 85.8891C218.304 85.6065 218.051 85.2944 217.833 84.9646C217.632 84.6701 217.479 84.3521 217.367 84.0165C217.261 83.6867 217.208 83.3451 217.208 82.9977C217.208 82.7092 217.261 82.4265 217.379 82.1674C217.479 81.9554 217.65 81.7905 217.862 81.6904C218.104 81.5962 218.369 81.5667 218.622 81.6138C218.975 81.6845 219.317 81.8199 219.623 82.0143Z" fill="white"/>
<path d="M225.075 83.0861V85.3238L226.495 86.1424V86.9315L225.075 86.1129V91.9311C225.075 92.1961 225.093 92.4552 225.14 92.7143C225.181 92.9027 225.252 93.0912 225.34 93.262C225.411 93.4033 225.505 93.527 225.623 93.633C225.723 93.7272 225.835 93.8096 225.959 93.8803C226.065 93.9392 226.177 93.9981 226.289 94.0452L226.577 94.1571L226.607 94.9638C226.483 94.9462 226.359 94.9108 226.241 94.8578C226.088 94.793 225.941 94.7224 225.794 94.6399C225.582 94.5104 225.382 94.3573 225.205 94.1806C225.017 93.9922 224.858 93.7743 224.734 93.5328C224.593 93.2561 224.487 92.9557 224.428 92.6495C224.345 92.2608 224.31 91.8663 224.322 91.4717V85.6477L223.067 84.9234V84.1343L224.328 84.8586V82.6208L225.075 83.0861Z" fill="white"/>
<path d="M228.921 84.5465C229.01 84.7173 229.063 84.9057 229.063 85.0942C229.08 85.2355 229.027 85.3768 228.921 85.471C228.821 85.5417 228.698 85.5299 228.539 85.4357C228.374 85.3415 228.244 85.2002 228.156 85.0294C228.067 84.8645 228.02 84.6819 228.02 84.4935C228.009 84.3463 228.056 84.2049 228.162 84.1048C228.25 84.0342 228.38 84.0459 228.539 84.1402C228.703 84.2344 228.839 84.3757 228.921 84.5465Z" fill="white"/>
<path d="M228.121 95.8295L228.145 87.0963L228.904 87.538L228.881 96.2652L228.121 95.8295Z" fill="white"/>
<path d="M233.485 90.0172C233.862 90.2351 234.203 90.5119 234.504 90.824C234.822 91.1538 235.098 91.5248 235.328 91.9252C235.564 92.3374 235.752 92.7732 235.887 93.2266C236.023 93.6918 236.099 94.1688 236.117 94.6517L235.387 94.2336C235.369 93.8744 235.31 93.5211 235.21 93.1736C235.11 92.838 234.969 92.52 234.798 92.2138C234.633 91.9252 234.439 91.6543 234.209 91.4129C233.991 91.1832 233.75 90.9889 233.479 90.824C233.19 90.6238 232.837 90.5178 232.484 90.5354C232.219 90.5708 231.977 90.718 231.818 90.9359C231.624 91.2068 231.494 91.5189 231.436 91.8486C231.353 92.2609 231.312 92.6849 231.312 93.1089V93.4504C231.312 93.9215 231.353 94.3985 231.43 94.8637C231.5 95.3231 231.624 95.7765 231.801 96.2064C231.96 96.6304 232.183 97.0249 232.466 97.3841C232.743 97.7316 233.084 98.026 233.467 98.2498C233.679 98.3794 233.915 98.4677 234.162 98.5148C234.356 98.556 234.563 98.5384 234.751 98.4677C234.934 98.3911 235.081 98.2498 235.175 98.079C235.299 97.8376 235.369 97.5785 235.375 97.3076L236.099 97.7257C236.099 98.0731 236.011 98.4206 235.852 98.7327C235.728 98.9918 235.522 99.1979 235.263 99.3216C235.004 99.4452 234.722 99.4865 234.439 99.4393C234.086 99.3922 233.75 99.2686 233.45 99.086C232.967 98.8092 232.537 98.4441 232.183 98.0142C231.818 97.5726 231.512 97.0838 231.271 96.5656C231.023 96.0179 230.841 95.4467 230.717 94.8637C230.593 94.2631 230.535 93.6506 230.54 93.0382V92.6907C230.535 92.149 230.593 91.6072 230.729 91.0831C230.829 90.6827 231.029 90.3175 231.318 90.0231C231.559 89.7758 231.889 89.6344 232.236 89.6286C232.678 89.6403 233.114 89.7699 233.485 90.0172Z" fill="white"/>
</g>
<g opacity="0.4">
<path d="M671.62 187.501C672.108 187.778 672.55 188.131 672.933 188.537C673.315 188.938 673.651 189.385 673.928 189.862C674.199 190.328 674.405 190.822 674.558 191.34C674.699 191.812 674.776 192.306 674.788 192.801L674.004 192.347C674.004 191.947 673.951 191.552 673.845 191.17C673.739 190.781 673.586 190.41 673.386 190.063C673.18 189.703 672.933 189.368 672.644 189.073C672.344 188.767 672.002 188.502 671.631 188.29C671.325 188.096 670.983 187.96 670.624 187.884C670.383 187.825 670.136 187.842 669.906 187.931C669.712 188.019 669.553 188.178 669.464 188.372C669.358 188.608 669.305 188.861 669.311 189.12C669.311 189.409 669.352 189.692 669.435 189.968C669.529 190.286 669.67 190.587 669.847 190.869C670.071 191.223 670.33 191.558 670.612 191.87C670.983 192.283 671.378 192.677 671.79 193.048C672.273 193.502 672.709 193.943 673.092 194.367C673.451 194.762 673.769 195.186 674.046 195.639C674.299 196.046 674.499 196.487 674.635 196.947C674.77 197.388 674.835 197.848 674.835 198.307C674.852 198.713 674.77 199.12 674.593 199.485C674.458 199.756 674.222 199.968 673.934 200.074C673.604 200.168 673.257 200.168 672.927 200.074C672.479 199.968 672.055 199.791 671.661 199.549C671.372 199.379 671.101 199.19 670.836 198.99C670.554 198.766 670.289 198.519 670.041 198.254C669.782 197.983 669.541 197.689 669.323 197.382C668.875 196.741 668.551 196.016 668.369 195.251C668.275 194.868 668.228 194.467 668.228 194.073L669.005 194.52C669.005 194.992 669.081 195.463 669.24 195.91C669.388 196.322 669.588 196.723 669.829 197.088C670.077 197.435 670.365 197.753 670.683 198.036C670.978 198.295 671.296 198.525 671.637 198.725C671.937 198.908 672.267 199.049 672.615 199.131C672.862 199.202 673.121 199.202 673.368 199.131C673.575 199.055 673.751 198.902 673.851 198.707C673.975 198.454 674.034 198.177 674.022 197.901C674.022 197.588 673.981 197.27 673.898 196.97C673.804 196.64 673.669 196.328 673.486 196.04C673.257 195.681 672.997 195.339 672.709 195.027C672.391 194.668 671.99 194.267 671.531 193.814C671.072 193.36 670.648 192.954 670.283 192.548C669.929 192.165 669.617 191.747 669.335 191.311C669.087 190.916 668.893 190.492 668.746 190.051C668.604 189.621 668.534 189.173 668.534 188.72C668.522 188.337 668.604 187.96 668.763 187.613C668.899 187.342 669.129 187.136 669.405 187.024C669.723 186.912 670.065 186.888 670.389 186.965C670.824 187.071 671.243 187.254 671.62 187.501Z" fill="white"/>
<path d="M677.515 191.829V194.061L678.934 194.88V195.675L677.521 194.856V200.674C677.521 200.939 677.539 201.198 677.592 201.457C677.633 201.646 677.698 201.834 677.786 202.005C677.857 202.146 677.951 202.27 678.069 202.376C678.169 202.47 678.281 202.553 678.404 202.623C678.51 202.688 678.622 202.741 678.74 202.788L679.023 202.9V203.713C678.899 203.689 678.775 203.654 678.657 203.601C678.504 203.536 678.357 203.46 678.216 203.377C677.998 203.254 677.804 203.1 677.627 202.924C677.433 202.735 677.274 202.517 677.156 202.276C677.014 201.999 676.909 201.705 676.85 201.399C676.773 201.01 676.738 200.615 676.744 200.221V194.403L675.483 193.672V192.877L676.744 193.608V191.376L677.515 191.829Z" fill="white"/>
<path d="M685.517 206.975C685.517 207.128 685.57 207.264 685.599 207.388V207.482L684.792 207.017C684.745 206.822 684.716 206.628 684.698 206.428C684.698 206.192 684.657 205.962 684.651 205.733C684.533 205.856 684.398 205.957 684.245 206.033C684.08 206.11 683.897 206.157 683.715 206.163C683.503 206.174 683.285 206.151 683.079 206.092C682.814 206.021 682.561 205.915 682.325 205.768C681.989 205.58 681.683 205.338 681.418 205.061C681.147 204.785 680.918 204.478 680.723 204.143C680.535 203.813 680.382 203.46 680.276 203.095C680.176 202.747 680.123 202.382 680.123 202.017C680.105 201.664 680.181 201.31 680.34 200.998C680.464 200.757 680.676 200.568 680.929 200.48C681.253 200.392 681.595 200.392 681.919 200.48C682.378 200.609 682.82 200.81 683.22 201.069L684.628 201.876V200.886C684.645 199.626 683.968 198.46 682.861 197.853C682.637 197.712 682.384 197.618 682.125 197.565C681.93 197.524 681.724 197.541 681.536 197.606C681.371 197.671 681.236 197.795 681.153 197.948C681.059 198.13 681.012 198.33 681.018 198.537L680.258 198.089C680.252 197.795 680.317 197.506 680.452 197.247C680.57 197.023 680.759 196.841 680.988 196.735C681.253 196.629 681.536 196.593 681.819 196.64C682.201 196.699 682.561 196.835 682.89 197.041C683.255 197.247 683.591 197.5 683.891 197.795C684.198 198.089 684.463 198.425 684.681 198.784C684.904 199.149 685.075 199.549 685.187 199.962C685.311 200.397 685.375 200.857 685.37 201.31V206.015C685.37 206.18 685.37 206.345 685.405 206.504C685.44 206.663 685.487 206.828 685.517 206.975ZM684.645 204.514V202.6L683.35 201.846C683.02 201.646 682.672 201.493 682.307 201.375C682.054 201.293 681.789 201.275 681.53 201.316C681.33 201.357 681.159 201.475 681.047 201.646C680.924 201.864 680.865 202.111 680.876 202.358C680.876 202.606 680.912 202.853 680.982 203.089C681.053 203.342 681.159 203.583 681.289 203.807C681.424 204.037 681.583 204.255 681.772 204.443C681.96 204.643 682.172 204.814 682.407 204.95C682.643 205.091 682.902 205.197 683.173 205.256C683.385 205.303 683.597 205.303 683.809 205.256C683.992 205.209 684.162 205.12 684.304 204.997C684.451 204.861 684.563 204.696 684.639 204.514" fill="white"/>
<path d="M688.621 198.242V200.456L690.04 201.275V202.07L688.626 201.251V207.069C688.621 207.334 688.644 207.594 688.697 207.853C688.738 208.041 688.803 208.224 688.891 208.394C688.962 208.536 689.056 208.665 689.174 208.771C689.28 208.866 689.392 208.948 689.51 209.019C689.616 209.083 689.728 209.136 689.845 209.184L690.128 209.29V210.108C690.004 210.085 689.881 210.049 689.763 209.996C689.61 209.931 689.457 209.855 689.315 209.772C689.103 209.643 688.903 209.49 688.727 209.319C688.538 209.131 688.379 208.913 688.261 208.671C688.12 208.394 688.02 208.094 687.955 207.788C687.879 207.399 687.843 207.005 687.849 206.61V200.792L686.589 200.062V199.267L687.849 199.997V197.759L688.621 198.242Z" fill="white"/>
<path d="M692.454 199.703C692.543 199.873 692.596 200.062 692.596 200.25C692.613 200.392 692.56 200.533 692.449 200.627C692.354 200.698 692.231 200.686 692.066 200.592C691.901 200.498 691.771 200.356 691.689 200.191C691.601 200.026 691.553 199.838 691.548 199.65C691.536 199.508 691.589 199.367 691.695 199.267C691.783 199.19 691.913 199.202 692.072 199.267C692.237 199.373 692.372 199.526 692.454 199.703Z" fill="white"/>
<path d="M691.665 210.986L691.689 202.252L692.448 202.688L692.425 211.421L691.665 210.986Z" fill="white"/>
<path d="M696.795 205.038C697.183 205.262 697.548 205.538 697.866 205.856C698.467 206.445 698.909 207.176 699.156 207.976C699.262 208.341 699.321 208.724 699.321 209.107L698.561 208.671C698.561 208.424 698.52 208.171 698.444 207.935C698.361 207.67 698.249 207.417 698.108 207.175C697.949 206.911 697.76 206.669 697.548 206.451C697.325 206.222 697.071 206.021 696.795 205.862C696.565 205.715 696.306 205.615 696.041 205.562C695.87 205.527 695.688 205.55 695.529 205.627C695.393 205.692 695.287 205.803 695.234 205.945C695.169 206.098 695.134 206.269 695.14 206.434C695.14 206.634 695.163 206.828 695.205 207.022C695.264 207.229 695.358 207.429 695.476 207.611C695.635 207.865 695.823 208.1 696.029 208.312C696.265 208.559 696.577 208.854 696.96 209.189C697.336 209.513 697.69 209.861 698.031 210.22C698.308 210.514 698.561 210.838 698.773 211.186C698.962 211.486 699.103 211.81 699.203 212.146C699.303 212.47 699.35 212.811 699.345 213.153C699.356 213.459 699.297 213.765 699.168 214.042C699.062 214.26 698.879 214.431 698.655 214.513C698.402 214.601 698.126 214.613 697.861 214.548C697.49 214.466 697.142 214.325 696.818 214.124C696.388 213.889 695.994 213.594 695.64 213.247C695.322 212.929 695.04 212.576 694.804 212.187C694.586 211.834 694.41 211.451 694.286 211.05C694.18 210.703 694.121 210.338 694.115 209.973L694.875 210.408C694.887 210.744 694.957 211.08 695.081 211.392C695.199 211.68 695.352 211.951 695.534 212.205C695.705 212.44 695.905 212.652 696.123 212.846C696.329 213.017 696.547 213.176 696.777 213.312C697.013 213.459 697.266 213.565 697.537 213.624C697.719 213.665 697.914 213.653 698.09 213.594C698.237 213.541 698.361 213.429 698.432 213.288C698.508 213.123 698.55 212.947 698.544 212.764C698.544 212.564 698.52 212.369 698.473 212.175C698.414 211.94 698.326 211.716 698.208 211.51C698.049 211.239 697.861 210.98 697.649 210.744C697.36 210.426 697.054 210.126 696.724 209.849C696.371 209.555 696.035 209.242 695.711 208.913C695.434 208.63 695.181 208.318 694.957 207.988C694.763 207.694 694.604 207.37 694.492 207.034C694.392 206.704 694.339 206.363 694.339 206.015C694.333 205.733 694.392 205.45 694.51 205.191C694.61 204.979 694.781 204.808 694.993 204.714C695.234 204.614 695.499 204.584 695.752 204.637C696.123 204.708 696.477 204.844 696.795 205.038Z" fill="white"/>
<path d="M702.254 206.11V208.341L703.674 209.16V209.955L702.254 209.136V214.961C702.254 215.22 702.272 215.485 702.325 215.738C702.366 215.926 702.431 216.109 702.519 216.286C702.596 216.427 702.69 216.551 702.802 216.662C702.908 216.757 703.026 216.839 703.143 216.91L703.473 217.075L703.762 217.181V217.993C703.638 217.97 703.515 217.934 703.397 217.881C703.244 217.817 703.096 217.74 702.955 217.658C702.737 217.534 702.543 217.381 702.366 217.204C702.178 217.016 702.019 216.798 701.895 216.556C701.754 216.274 701.654 215.979 701.589 215.673C701.512 215.284 701.477 214.89 701.483 214.495V208.677L700.223 207.947V207.152L701.477 207.882V205.65L702.254 206.11Z" fill="white"/>
<path d="M706.093 207.57C706.187 207.741 706.234 207.929 706.234 208.124C706.252 208.265 706.199 208.4 706.093 208.495C705.999 208.565 705.869 208.553 705.71 208.495C705.545 208.4 705.416 208.259 705.333 208.088C705.239 207.923 705.192 207.735 705.198 207.546C705.18 207.405 705.233 207.264 705.333 207.164C705.427 207.087 705.551 207.099 705.716 207.193C705.875 207.281 706.004 207.411 706.093 207.57Z" fill="white"/>
<path d="M705.298 218.853L705.321 210.12L706.081 210.556L706.052 219.295L705.298 218.853Z" fill="white"/>
<path d="M710.656 213.041C711.033 213.259 711.381 213.535 711.681 213.853C711.999 214.183 712.276 214.548 712.5 214.949C712.747 215.355 712.947 215.797 713.089 216.25C713.23 216.71 713.306 217.187 713.318 217.669L712.594 217.251C712.576 216.892 712.517 216.539 712.417 216.197C712.317 215.867 712.176 215.544 712.005 215.243C711.84 214.955 711.64 214.684 711.416 214.442C711.204 214.213 710.963 214.012 710.692 213.853C710.397 213.653 710.05 213.559 709.697 213.571C709.432 213.606 709.184 213.747 709.025 213.965C708.831 214.242 708.701 214.554 708.648 214.884C708.56 215.296 708.519 215.72 708.525 216.144V216.48C708.525 216.957 708.56 217.428 708.637 217.899C708.707 218.358 708.837 218.812 709.008 219.242C709.173 219.666 709.396 220.06 709.673 220.419C709.95 220.773 710.291 221.073 710.68 221.297C710.892 221.421 711.128 221.509 711.369 221.562C711.569 221.603 711.77 221.585 711.958 221.509C712.141 221.432 712.294 221.297 712.388 221.12C712.511 220.885 712.576 220.62 712.582 220.355L713.312 220.773C713.312 221.12 713.224 221.462 713.065 221.774C712.941 222.033 712.735 222.239 712.476 222.363C712.217 222.486 711.934 222.528 711.652 222.486C711.304 222.433 710.963 222.31 710.662 222.127C710.185 221.845 709.755 221.485 709.396 221.061C709.031 220.62 708.725 220.131 708.489 219.607C708.236 219.059 708.054 218.488 707.936 217.899C707.812 217.298 707.753 216.692 707.753 216.079V215.744C707.742 215.202 707.806 214.66 707.942 214.136C708.03 213.742 708.224 213.371 708.495 213.07C708.737 212.823 709.066 212.687 709.414 212.682C709.856 212.682 710.285 212.805 710.656 213.041Z" fill="white"/>
</g>
<g opacity="0.4">
<path d="M31.3095 205.756C31.5215 206.41 31.6157 207.093 31.6039 207.782V208.86C31.6098 209.655 31.5156 210.444 31.3213 211.215C31.1387 211.963 30.8678 212.682 30.5145 213.365C30.1729 214.018 29.7489 214.631 29.2543 215.178C28.7832 215.697 28.2414 216.144 27.6349 216.498L25.1144 217.952L25.0791 206.174L27.6525 204.685C28.1354 204.384 28.6772 204.202 29.2425 204.155C29.6901 204.119 30.1317 204.243 30.4909 204.514C30.8796 204.844 31.1623 205.273 31.3095 205.756ZM30.8384 209.29V208.194C30.8502 207.617 30.7736 207.034 30.6087 206.481C30.4968 206.08 30.2672 205.721 29.9609 205.444C29.6783 205.215 29.3249 205.097 28.9598 205.114C28.5005 205.156 28.053 205.303 27.6643 205.55L25.8388 206.569L25.8682 216.633L27.6349 215.626C28.1295 215.332 28.583 214.961 28.9657 214.531C29.3662 214.077 29.7077 213.565 29.9786 213.023C30.2554 212.458 30.4733 211.869 30.6146 211.256C30.7618 210.615 30.8384 209.955 30.8384 209.295" fill="white"/>
<path d="M38.4642 209.755C38.4818 209.861 38.5113 209.967 38.5525 210.067V210.167L37.7398 210.632C37.6927 210.473 37.6633 210.302 37.6456 210.138C37.6456 209.926 37.5985 209.719 37.5926 209.496C37.3512 210.037 37.0391 210.544 36.6681 211.003C36.4678 211.233 36.2558 211.445 36.0262 211.645C35.7906 211.869 35.5374 212.063 35.2606 212.234C34.9839 212.405 34.6718 212.523 34.3479 212.57C34.1123 212.611 33.865 212.57 33.653 212.458C33.4469 212.334 33.2879 212.146 33.1995 211.922C33.0877 211.639 33.0288 211.339 33.0405 211.033C33.0405 210.597 33.1112 210.167 33.2525 209.755C33.3939 209.325 33.5941 208.913 33.8414 208.53C34.1241 208.118 34.4539 207.741 34.8249 207.405C35.2253 207.052 35.6611 206.734 36.1263 206.469L37.5278 205.662V204.667C37.5926 204.208 37.4218 203.748 37.0685 203.454C36.7682 203.271 36.3265 203.348 35.7494 203.683C35.4844 203.837 35.2371 204.025 35.0133 204.237C34.7895 204.455 34.5952 204.696 34.4244 204.955C34.2654 205.197 34.1418 205.462 34.0475 205.733C33.9592 205.974 33.918 206.233 33.9121 206.492L33.1524 206.922C33.1583 206.563 33.2231 206.204 33.3409 205.862C33.4704 205.468 33.653 205.085 33.8768 204.732C34.1123 204.349 34.3891 203.996 34.7012 203.678C35.0427 203.336 35.4255 203.042 35.8495 202.812C36.1616 202.623 36.4973 202.488 36.8506 202.411C37.1156 202.347 37.3983 202.376 37.6456 202.488C37.8812 202.618 38.0578 202.83 38.1579 203.077C38.2934 203.442 38.3582 203.825 38.3464 204.213V208.901C38.3464 209.06 38.3464 209.207 38.3876 209.348C38.4053 209.484 38.4288 209.619 38.4642 209.755ZM37.6162 208.3V206.381L36.3206 207.128C35.9496 207.34 35.6022 207.588 35.2783 207.865C34.9897 208.112 34.7306 208.389 34.501 208.695C34.3008 208.966 34.1359 209.266 34.0181 209.584C33.9121 209.878 33.8532 210.185 33.8532 210.497C33.8532 210.697 33.8885 210.897 33.9651 211.086C34.024 211.239 34.13 211.368 34.2713 211.451C34.4185 211.533 34.5893 211.563 34.7542 211.533C34.9839 211.504 35.2017 211.421 35.3961 211.298C35.6729 211.133 35.9261 210.938 36.1557 210.709C36.3913 210.485 36.6033 210.238 36.7917 209.973C36.9802 209.714 37.1451 209.431 37.2864 209.142C37.4218 208.86 37.5337 208.571 37.6221 208.271" fill="white"/>
<path d="M41.5091 197.471V199.703L42.9283 198.884V199.673L41.515 200.492V206.316C41.5032 206.551 41.5326 206.787 41.5915 207.011C41.621 207.134 41.6857 207.252 41.7858 207.335C41.8683 207.393 41.9743 207.411 42.0744 207.382C42.1922 207.346 42.3041 207.299 42.4101 207.24C42.5219 207.17 42.6338 207.099 42.7398 207.017L43.0225 206.805L43.0578 207.57C42.9459 207.688 42.8282 207.794 42.6986 207.888C42.5455 207.994 42.3983 208.094 42.2511 208.183C42.0685 208.294 41.8683 208.371 41.6622 208.418C41.4973 208.453 41.3265 208.418 41.1911 208.312C41.038 208.171 40.932 207.988 40.879 207.788C40.7965 207.446 40.7612 207.099 40.7671 206.752V200.933L39.501 201.634V200.869L40.7612 200.144V197.907L41.5091 197.471Z" fill="white"/>
<path d="M49.5656 203.348C49.5892 203.454 49.6186 203.554 49.6598 203.654V203.754L48.8472 204.219C48.8001 204.06 48.7647 203.89 48.7471 203.725C48.7471 203.519 48.7058 203.307 48.6999 203.083C48.5822 203.348 48.4467 203.601 48.2936 203.848C48.1405 204.107 47.9638 204.355 47.7695 204.59C47.5752 204.826 47.3632 205.05 47.1335 205.256C46.9038 205.468 46.6506 205.65 46.3797 205.803C46.103 205.974 45.7967 206.092 45.4729 206.145C45.2373 206.18 44.99 206.145 44.778 206.027C44.5719 205.904 44.4129 205.715 44.3245 205.491C44.2127 205.209 44.1538 204.908 44.1655 204.602C44.1655 204.166 44.2362 203.736 44.3775 203.324C44.5248 202.888 44.7309 202.476 44.9959 202.099C45.2785 201.687 45.6083 201.31 45.9793 200.98C46.3797 200.621 46.8155 200.309 47.2807 200.044L48.6823 199.231V198.236C48.6823 197.612 48.5292 197.212 48.2288 197.023C47.9285 196.835 47.4868 196.917 46.9097 197.253C46.6389 197.406 46.3915 197.588 46.1736 197.806C45.9557 198.024 45.7555 198.266 45.5848 198.525C45.4258 198.766 45.3021 199.031 45.2079 199.302C45.1195 199.544 45.0783 199.803 45.0724 200.062L44.3128 200.492C44.3128 200.132 44.3775 199.773 44.5012 199.438C44.6308 199.043 44.8074 198.66 45.0312 198.307C45.2668 197.924 45.5494 197.571 45.8615 197.247C46.1795 196.923 46.5387 196.64 46.9333 196.411C47.2454 196.222 47.5811 196.087 47.9344 196.01C48.1994 195.946 48.4762 195.969 48.7235 196.087C48.9591 196.216 49.1416 196.423 49.2417 196.676C49.3772 197.041 49.436 197.424 49.4243 197.812V202.5C49.4243 202.659 49.4243 202.806 49.4655 202.947C49.5067 203.089 49.542 203.224 49.5656 203.348ZM48.6882 201.893V199.968L47.3926 200.721C47.0216 200.933 46.6742 201.175 46.3503 201.452C46.0617 201.699 45.8026 201.982 45.5789 202.288C45.3786 202.559 45.2138 202.859 45.096 203.177C44.99 203.466 44.9311 203.772 44.9311 204.084C44.9311 204.284 44.9664 204.484 45.0371 204.673C45.096 204.826 45.2079 204.95 45.3492 205.032C45.4964 205.114 45.6672 205.144 45.8321 205.114C46.0617 205.079 46.2796 205.003 46.474 204.879C46.7507 204.714 47.004 204.514 47.2336 204.29C47.4692 204.066 47.6812 203.819 47.8696 203.554C48.0581 203.289 48.2229 203.012 48.3643 202.724C48.4997 202.447 48.6057 202.152 48.6941 201.858" fill="white"/>
<path d="M60.4709 185.734V186.582L55.542 189.432L55.5596 193.996L59.8526 191.517V192.365L55.5596 194.844L55.5773 200.339L54.8 200.786L54.7646 189.032L60.4709 185.734Z" fill="white"/>
<path d="M62.7325 184.462C62.8385 184.557 62.8915 184.698 62.8738 184.839C62.8738 185.034 62.8267 185.222 62.7325 185.387C62.6441 185.558 62.5146 185.699 62.3497 185.793C62.1907 185.882 62.067 185.899 61.9728 185.793C61.8668 185.699 61.8138 185.558 61.8315 185.416C61.8315 185.228 61.8786 185.039 61.9669 184.869C62.0552 184.698 62.1848 184.557 62.3497 184.462C62.5087 184.398 62.6382 184.386 62.7325 184.462Z" fill="white"/>
<path d="M61.9962 196.629L61.9727 187.89L62.7323 187.454L62.7559 196.187L61.9962 196.629Z" fill="white"/>
<path d="M65.6239 182.113L65.6593 194.515L64.8996 194.95L64.8643 182.554L65.6239 182.113Z" fill="white"/>
<path d="M68.8626 181.677V183.909L70.2818 183.09V183.885L68.8626 184.704V190.522C68.8567 190.757 68.8803 190.987 68.9392 191.217C68.9686 191.346 69.0393 191.458 69.1394 191.541C69.2218 191.6 69.3278 191.617 69.4221 191.588C69.5398 191.552 69.6576 191.505 69.7636 191.441C69.8755 191.376 69.9874 191.305 70.0875 191.223L70.376 191.005L70.4055 191.782C70.2936 191.894 70.1699 192 70.0404 192.094C69.899 192.2 69.7518 192.294 69.5987 192.383C69.4162 192.495 69.2159 192.577 69.0098 192.624C68.8449 192.66 68.6683 192.624 68.5328 192.518C68.3797 192.383 68.2737 192.194 68.2266 191.994C68.1383 191.658 68.0971 191.305 68.1088 190.958V185.14L66.8486 185.87V185.075L68.1088 184.35V182.119L68.8626 181.677Z" fill="white"/>
<path d="M77.0713 183.603L72.1836 186.423V186.612C72.1777 187.036 72.2366 187.46 72.3544 187.866C72.4427 188.178 72.6135 188.461 72.8373 188.69C73.0434 188.879 73.3025 188.985 73.5793 188.997C73.9208 188.997 74.2565 188.902 74.5391 188.714C74.9455 188.478 75.3047 188.178 75.605 187.819C75.9525 187.395 76.2351 186.924 76.453 186.423L76.9241 186.612C76.8063 186.894 76.6768 187.171 76.5354 187.436C76.2292 188.001 75.8288 188.514 75.3577 188.95C75.0986 189.173 74.8218 189.368 74.5215 189.538C74.1505 189.774 73.7265 189.909 73.2848 189.933C72.9315 189.945 72.5899 189.833 72.3132 189.609C72.0128 189.344 71.789 189.003 71.6713 188.62C71.5064 188.107 71.4298 187.572 71.4416 187.03V186.688C71.4357 186.023 71.5123 185.363 71.6713 184.721C71.8185 184.109 72.0305 183.52 72.3073 182.955C72.5605 182.442 72.8726 181.96 73.2377 181.524C73.5557 181.141 73.9326 180.817 74.3566 180.564C74.7099 180.34 75.1162 180.211 75.5343 180.193C75.8523 180.193 76.1586 180.311 76.3823 180.534C76.6414 180.799 76.8299 181.135 76.9123 181.5C77.036 181.995 77.1008 182.501 77.089 183.008L77.0713 183.603ZM72.4486 184.239C72.3249 184.68 72.2484 185.134 72.213 185.587L76.3352 183.232V183.126C76.3293 182.796 76.2822 182.466 76.1939 182.148C76.1232 181.889 75.9937 181.653 75.817 181.453C75.6639 181.288 75.4519 181.188 75.2281 181.17C74.9278 181.165 74.6334 181.247 74.386 181.412C74.0857 181.594 73.8207 181.818 73.591 182.083C73.3378 182.384 73.1199 182.707 72.9433 183.055C72.7489 183.432 72.5958 183.826 72.4839 184.233" fill="white"/>
<path d="M81.235 176.612C81.3233 176.559 81.4175 176.512 81.5177 176.477C81.5883 176.448 81.659 176.43 81.7355 176.424V177.319C81.553 177.384 81.3822 177.466 81.2173 177.561C80.9641 177.708 80.7286 177.89 80.5224 178.102C80.3163 178.326 80.1338 178.568 79.9807 178.827C79.8158 179.098 79.6862 179.38 79.5861 179.681C79.4742 179.987 79.3859 180.305 79.327 180.629V186.623L78.5732 187.059V178.32L79.3152 177.896V179.28C79.4919 178.721 79.7451 178.191 80.0749 177.702C80.3752 177.254 80.7698 176.883 81.235 176.612Z" fill="white"/>
</g>
<path d="M73.7739 259.863L42.7986 277.641L42.6396 227.097L73.6149 209.319L73.7739 259.863Z" fill="white"/>
<path d="M53.5814 252.731C52.9631 253.144 52.5686 253.821 52.5273 254.563C52.5273 255.234 53.0043 255.505 53.5873 255.152L59.2936 251.854C59.9178 251.454 60.3124 250.77 60.3477 250.029C60.3477 249.357 59.8766 249.08 59.2877 249.44L53.5814 252.731Z" fill="#D2D2D2"/>
<path d="M52.9271 245.029C52.3088 245.435 51.9202 246.112 51.873 246.854C51.873 247.526 52.35 247.797 52.933 247.443L63.5329 241.331C64.1513 240.924 64.5399 240.247 64.587 239.505C64.587 238.834 64.11 238.563 63.5212 238.916L52.9271 245.029Z" fill="#D2D2D2"/>
<path d="M52.8861 236.967C52.2678 237.373 51.8791 238.051 51.832 238.793C51.832 239.464 52.3149 239.735 52.8979 239.381L63.4978 233.275C64.1161 232.863 64.5107 232.185 64.5519 231.443C64.5519 230.772 64.0749 230.501 63.4919 230.854L52.8861 236.967Z" fill="#D2D2D2"/>
<path d="M510.155 543.169V490.711" stroke="white" stroke-width="0.913904" stroke-miterlimit="10"/>
<path d="M588.594 511.375V458.917" stroke="white" stroke-width="0.913904" stroke-miterlimit="10"/>
<path d="M510.155 528.935C510.155 528.935 516.916 515.774 527.527 518.924C538.139 522.075 539.894 479.875 560.334 487.325C580.774 494.774 573.378 473.103 588.6 464.977" stroke="white" stroke-width="0.913904" stroke-miterlimit="10"/>
<path d="M135.967 228.523V184.539" stroke="white" stroke-width="0.913904" stroke-miterlimit="10"/>
<path d="M218.15 198.666V154.682" stroke="white" stroke-width="0.913904" stroke-miterlimit="10"/>
<path d="M135.96 220.861C135.96 220.861 146.949 204.372 161.347 208.271C175.745 212.169 168.26 180.552 187.782 184.556C207.303 188.561 194 164.593 218.168 159.906" stroke="white" stroke-width="0.913904" stroke-miterlimit="10"/>
<path d="M648.807 366.009C651.328 366.009 653.371 364.699 653.371 363.082C653.371 361.466 651.328 360.155 648.807 360.155C646.286 360.155 644.243 361.466 644.243 363.082C644.243 364.699 646.286 366.009 648.807 366.009Z" fill="white"/>
<path d="M223.208 261.023C225.729 261.023 227.772 259.713 227.772 258.096C227.772 256.48 225.729 255.169 223.208 255.169C220.688 255.169 218.645 256.48 218.645 258.096C218.645 259.713 220.688 261.023 223.208 261.023Z" fill="white"/>
<path d="M358.199 564.156C360.719 564.156 362.762 562.846 362.762 561.23C362.762 559.613 360.719 558.303 358.199 558.303C355.678 558.303 353.635 559.613 353.635 561.23C353.635 562.846 355.678 564.156 358.199 564.156Z" fill="white"/>
<defs>
<linearGradient id="paint0_linear_350_448" x1="10.3809" y1="306.337" x2="104.337" y2="306.337" gradientUnits="userSpaceOnUse">
<stop stop-color="#4986AD"/>
<stop offset="1" stop-color="#25426E"/>
</linearGradient>
</defs>
</svg>
