<svg width="211" height="47" viewBox="0 0 211 47" fill="none" xmlns="http://www.w3.org/2000/svg">
<path d="M9.1136 3.22481H3.99597C3.50523 3.22481 3.22481 3.50523 3.22481 3.99596V5.60837H0V2.24334C0 0.630938 0.560836 0.0700989 2.17324 0.0700989H21.7324V3.1547H12.8291V25.6583H9.18371L9.1136 3.22481Z" fill="white"/>
<path d="M20.1203 11.1466C20.1203 10.5858 19.8399 10.3755 19.3492 10.3755H17.877V7.36098H21.242C22.8544 7.36098 23.6255 7.99192 23.6255 9.46412V10.6559C23.6255 11.3569 23.5554 11.9178 23.5554 11.9178H23.6255C24.4668 9.2538 26.5699 7.15067 29.4442 7.15067C29.935 7.15067 30.3556 7.22077 30.3556 7.22077V10.726C30.3556 10.726 29.8648 10.5858 29.304 10.5858C27.0607 10.5858 24.9575 12.1982 24.1864 14.9323C23.8358 15.9838 23.7657 17.1055 23.7657 18.2272V25.7284H20.2605L20.1203 11.1466Z" fill="white"/>
<path d="M38.1374 23.3448C41.0818 23.3448 43.0447 20.1901 43.0447 17.5261V16.8952H42.1334C39.4694 16.8952 34.7023 17.0354 34.7023 20.4004C34.7023 21.8726 35.824 23.3448 38.1374 23.3448ZM42.2035 14.3013H42.9746V14.091C42.9746 10.8662 41.7829 9.67442 38.9086 9.67442C38.0673 9.67442 35.8941 9.88474 35.8941 11.0765V12.1281H32.5991V10.3054C32.5991 7.29087 37.156 6.87024 38.9787 6.87024C44.9376 6.87024 46.55 9.95484 46.55 14.0209V21.8025C46.55 22.3634 46.8304 22.5737 47.3211 22.5737H48.7933V25.5882H45.4984C43.886 25.5882 43.185 24.817 43.185 23.485C43.185 22.8541 43.2551 22.3634 43.2551 22.3634H43.185C43.185 22.3634 41.7128 26.0088 37.3663 26.0088C34.2116 26.0088 31.127 24.116 31.127 20.4004C31.127 14.6519 39.1189 14.3013 42.2035 14.3013Z" fill="white"/>
<path d="M63.3046 16.4746C63.3046 13.1797 61.6221 9.95486 58.0467 9.95486C55.1724 9.95486 52.7889 12.3384 52.7889 16.5447C52.7889 20.5407 54.9621 23.1345 57.9766 23.1345C60.7107 23.0644 63.3046 21.1716 63.3046 16.4746ZM57.556 6.87025C61.8324 6.87025 63.2345 9.67444 63.2345 9.67444H63.3046C63.3046 9.67444 63.2345 9.1136 63.2345 8.41256V3.78565C63.2345 3.22481 62.9541 3.0145 62.4633 3.0145H60.9911V0H64.4964C66.1088 0 66.8098 0.701046 66.8098 2.31345V21.8025C66.8098 22.3634 67.0902 22.5737 67.581 22.5737H69.0532V25.5882H65.6881C64.0757 25.5882 63.4448 24.8871 63.4448 23.6253C63.4448 23.0644 63.5149 22.7139 63.5149 22.7139H63.4448C63.4448 22.7139 61.9025 26.0789 57.4158 26.0789C52.4384 26.0789 49.3537 22.1531 49.3537 16.4746C49.2135 10.6559 52.6487 6.94036 57.556 6.87025Z" fill="white"/>
<path d="M83.003 14.3714C82.8628 11.3569 80.97 9.67442 78.6565 9.67442C75.9925 9.67442 73.8193 11.2868 73.2584 14.3714H83.003ZM78.7266 6.87024C83.8443 6.87024 86.6484 10.726 86.6484 15.4931C86.6484 15.9838 86.5082 16.9653 86.5082 16.9653H73.1182C73.3286 20.8912 76.2028 23.0644 79.4277 23.0644C82.5824 23.0644 84.8257 20.8912 84.8257 20.8912L86.368 23.4149C86.368 23.4149 83.6339 26.0789 79.2875 26.0789C73.4688 26.0789 69.5429 21.9427 69.5429 16.4746C69.4728 10.6559 73.4688 6.87024 78.7266 6.87024Z" fill="white"/>
<path d="M102.773 16.4746C102.773 13.1797 101.09 9.95486 97.5151 9.95486C94.6408 9.95486 92.2573 12.3384 92.2573 16.5447C92.2573 20.5407 94.4305 23.1345 97.445 23.1345C100.179 23.0644 102.773 21.1015 102.773 16.4746ZM96.9543 6.87025C101.231 6.87025 102.633 9.67444 102.633 9.67444H102.703C102.703 9.67444 102.633 9.1136 102.633 8.41256V3.78565C102.633 3.22481 102.352 3.0145 101.862 3.0145H100.389V0H103.895C105.507 0 106.208 0.701046 106.208 2.31345V21.8025C106.208 22.3634 106.489 22.5737 106.979 22.5737H108.451V25.5882H105.086C103.474 25.5882 102.843 24.8871 102.843 23.6253C102.843 23.0644 102.913 22.7139 102.913 22.7139H102.843C102.843 22.7139 101.301 26.0789 96.8141 26.0789C91.8366 26.0789 88.752 22.1531 88.752 16.4746C88.6819 10.6559 92.1171 6.87025 96.9543 6.87025Z" fill="#008FC8"/>
<path d="M118.828 23.0644C122.333 23.0644 125.138 20.3303 125.138 16.4746C125.138 12.6889 122.333 9.95484 118.828 9.95484C115.393 9.95484 112.519 12.6889 112.589 16.4746C112.519 20.2602 115.393 23.0644 118.828 23.0644ZM118.828 6.87024C124.296 6.87024 128.713 10.8662 128.713 16.4746C128.713 22.0829 124.296 26.149 118.828 26.149C113.36 26.149 108.943 22.0829 108.943 16.4746C108.943 10.8662 113.36 6.87024 118.828 6.87024Z" fill="#008FC8"/>
<path d="M131.376 11.0765C131.376 10.5157 131.096 10.3054 130.605 10.3054H129.133V7.29087H132.568C134.25 7.29087 134.951 7.99191 134.951 9.53422V18.2272C134.951 20.751 135.442 22.784 138.387 22.784C142.172 22.784 144.346 19.4891 144.346 15.8436V7.22076H147.851V21.7324C147.851 22.2933 148.131 22.5036 148.622 22.5036H150.094V25.5181H146.729C145.187 25.5181 144.416 24.817 144.416 23.485V22.784C144.416 22.2232 144.486 21.7324 144.486 21.7324H144.416C143.644 23.5551 141.331 25.9387 137.686 25.9387C133.549 25.9387 131.446 23.7655 131.446 18.9282L131.376 11.0765Z" fill="#008FC8"/>
<path d="M160.89 23.0644C163.765 23.0644 166.218 20.6809 166.148 16.4746C166.148 12.4786 163.975 9.88475 160.89 9.88475C158.156 9.88475 155.633 11.8477 155.633 16.4746C155.703 19.7695 157.385 23.0644 160.89 23.0644ZM152.197 3.85575C152.197 3.29491 151.917 3.0846 151.426 3.0846H149.954V0.0700989H153.459C155.072 0.0700989 155.773 0.771147 155.773 2.38355V8.34245C155.773 9.1837 155.703 9.88475 155.703 9.88475H155.773C155.773 9.88475 157.385 6.87025 161.662 6.87025C166.569 6.87025 169.724 10.7961 169.724 16.4746C169.724 22.2933 166.218 26.0789 161.381 26.0789C157.315 26.0789 155.633 22.9943 155.633 22.9943H155.562C155.562 22.9943 155.633 23.5552 155.633 24.3964V25.6583H152.268L152.197 3.85575Z" fill="#008FC8"/>
<path d="M172.107 3.78565C172.107 3.22481 171.826 3.0145 171.335 3.0145H169.863V0H173.369C174.981 0 175.682 0.701046 175.682 2.31345V21.8025C175.682 22.3634 175.962 22.5737 176.453 22.5737H177.925V25.5882H174.42C172.808 25.5882 172.107 24.8871 172.107 23.2747V3.78565Z" fill="#008FC8"/>
<path d="M192.717 14.3013C192.577 11.2868 190.684 9.60433 188.37 9.60433C185.706 9.60433 183.533 11.2167 182.972 14.3013H192.717ZM188.44 6.80014C193.558 6.80014 196.362 10.6559 196.362 15.423C196.362 15.9137 196.222 16.8952 196.222 16.8952H182.832C183.042 20.8211 185.917 22.9943 189.142 22.9943C192.296 22.9943 194.54 20.8211 194.54 20.8211L196.082 23.3448C196.082 23.3448 193.348 26.0088 189.001 26.0088C183.183 26.0088 179.257 21.8726 179.257 16.4045C179.187 10.5858 183.183 6.80014 188.44 6.80014Z" fill="#008FC8"/>
<path d="M200.078 11.0765C200.078 10.5157 199.798 10.3054 199.307 10.3054H197.835V7.29088H201.2C202.812 7.29088 203.584 7.92182 203.584 9.39402V10.5858C203.584 11.2868 203.513 11.8477 203.513 11.8477H203.584C204.425 9.18371 206.528 7.08057 209.402 7.08057C209.893 7.08057 210.314 7.15067 210.314 7.15067V10.6559C210.314 10.6559 209.823 10.5157 209.262 10.5157C207.019 10.5157 204.916 12.1281 204.144 14.8622C203.794 15.9138 203.724 17.0354 203.724 18.1571V25.6583H200.219L200.078 11.0765Z" fill="#008FC8"/>
<path d="M134.531 34.6317H131.446V33.51H138.877V34.6317H135.793V43.6051H134.461V34.6317H134.531Z" fill="#008FC8"/>
<path d="M139.65 40.2401C139.65 41.9927 140.841 42.7638 142.103 42.7638C143.015 42.7638 143.646 42.6236 144.136 42.4133L144.347 43.3247C143.856 43.535 143.085 43.7453 141.963 43.7453C139.72 43.7453 138.388 42.2731 138.388 40.0999C138.388 37.9266 139.65 36.174 141.753 36.174C144.136 36.174 144.767 38.2772 144.767 39.6091C144.767 39.8896 144.767 40.0999 144.697 40.2401H139.65ZM143.505 39.3287C143.505 38.4875 143.155 37.1555 141.683 37.1555C140.351 37.1555 139.79 38.4174 139.65 39.3287H143.505Z" fill="#008FC8"/>
<path d="M151.566 43.3948C151.216 43.6051 150.444 43.8154 149.463 43.8154C147.29 43.8154 145.888 42.3432 145.888 40.0999C145.888 37.8565 147.43 36.2441 149.743 36.2441C150.515 36.2441 151.216 36.4544 151.566 36.5946L151.286 37.6462C151.005 37.4359 150.444 37.2957 149.743 37.2957C148.061 37.2957 147.22 38.4875 147.22 40.0298C147.22 41.7123 148.271 42.7638 149.743 42.7638C150.515 42.7638 151.005 42.5535 151.356 42.4133L151.566 43.3948Z" fill="#008FC8"/>
<path d="M153.108 33.0193H154.44V37.506C154.65 37.1555 155.001 36.805 155.352 36.5947C155.772 36.3843 156.193 36.2441 156.684 36.2441C157.665 36.2441 159.207 36.8751 159.207 39.3287V43.6051H157.875V39.4689C157.875 38.2772 157.455 37.2957 156.193 37.2957C155.352 37.2957 154.65 37.9266 154.44 38.6277C154.37 38.838 154.37 38.9782 154.37 39.2586V43.6051H153.038V33.0193H153.108Z" fill="#008FC8"/>
<path d="M161.381 38.3472C161.381 37.5761 161.381 37.0153 161.311 36.3843H162.502L162.572 37.5761C162.923 36.8751 163.764 36.2441 164.956 36.2441C165.937 36.2441 167.48 36.8751 167.48 39.3287V43.6752H166.148V39.4689C166.148 38.2771 165.727 37.2957 164.465 37.2957C163.624 37.2957 162.923 37.9266 162.713 38.6277C162.643 38.7679 162.643 39.0483 162.643 39.2586V43.6051H161.311V38.3472H161.381Z" fill="#008FC8"/>
<path d="M176.244 39.9597C176.244 42.6236 174.421 43.8154 172.669 43.8154C170.706 43.8154 169.233 42.4133 169.233 40.0999C169.233 37.6462 170.846 36.2441 172.809 36.2441C174.842 36.2441 176.244 37.7163 176.244 39.9597ZM170.495 40.0298C170.495 41.6422 171.407 42.8339 172.669 42.8339C173.93 42.8339 174.842 41.6422 174.842 40.0298C174.842 38.838 174.211 37.2256 172.669 37.2256C171.196 37.2256 170.495 38.6277 170.495 40.0298Z" fill="#008FC8"/>
<path d="M177.925 33.0193H179.257V43.6051H177.925V33.0193Z" fill="#008FC8"/>
<path d="M188.02 39.9597C188.02 42.6236 186.198 43.8154 184.445 43.8154C182.482 43.8154 181.01 42.4133 181.01 40.0999C181.01 37.6462 182.622 36.2441 184.585 36.2441C186.618 36.2441 188.02 37.7163 188.02 39.9597ZM182.272 40.0298C182.272 41.6422 183.183 42.8339 184.445 42.8339C185.707 42.8339 186.618 41.6422 186.618 40.0298C186.618 38.838 185.987 37.2256 184.445 37.2256C182.903 37.2256 182.272 38.6277 182.272 40.0298Z" fill="#008FC8"/>
<path d="M195.872 36.3843C195.872 36.875 195.802 37.506 195.802 38.3472V42.5535C195.802 44.236 195.452 45.2175 194.751 45.8484C194.05 46.4794 192.998 46.6897 192.087 46.6897C191.246 46.6897 190.264 46.4794 189.703 46.0587L190.054 45.0773C190.544 45.3577 191.246 45.6381 192.157 45.6381C193.489 45.6381 194.47 44.9371 194.47 43.1143V42.2731C194.05 42.9741 193.279 43.4649 192.157 43.4649C190.334 43.4649 189.072 41.9226 189.072 39.9596C189.072 37.506 190.685 36.1039 192.367 36.1039C193.629 36.1039 194.33 36.7348 194.611 37.3658L194.681 36.2441H195.872V36.3843ZM194.54 39.2586C194.54 39.0483 194.54 38.838 194.47 38.6276C194.26 37.8565 193.559 37.2256 192.648 37.2256C191.386 37.2256 190.474 38.2771 190.474 39.9596C190.474 41.3617 191.175 42.5535 192.648 42.5535C193.489 42.5535 194.19 42.0628 194.47 41.2215C194.54 41.0112 194.54 40.7308 194.54 40.5205V39.2586Z" fill="#008FC8"/>
<path d="M198.467 36.3843L200.079 40.6607C200.219 41.1514 200.429 41.7123 200.57 42.1329C200.71 41.7123 200.85 41.1514 201.06 40.5906L202.463 36.3142H203.865L201.902 41.5019C200.99 43.9556 200.289 45.2876 199.448 46.0587C198.817 46.6196 198.186 46.8299 197.836 46.9L197.485 45.7783C197.836 45.7082 198.256 45.4979 198.607 45.1474C198.957 44.867 199.448 44.3762 199.728 43.6752C199.799 43.535 199.799 43.4649 199.799 43.3948C199.799 43.3247 199.799 43.1845 199.728 43.0443L197.064 36.3843H198.467Z" fill="#008FC8"/>
</svg>
