<svg width="74" height="60" viewBox="0 0 74 60" fill="none" xmlns="http://www.w3.org/2000/svg">
<path d="M15.8824 0C11.6701 0 7.63035 1.67331 4.65183 4.65183C1.67331 7.63035 0 11.6701 0 15.8824C0 20.0946 1.67331 24.1344 4.65183 27.1129C7.63035 30.0914 11.6701 31.7647 15.8824 31.7647C15.9565 31.7647 16.0235 31.7435 16.0941 31.7435C14.383 39.7568 11.5078 47.4763 7.56 54.6565C7.11733 55.3953 6.96006 56.2704 7.11782 57.1171C7.27557 57.9637 7.73746 58.7235 8.41648 59.2533C9.09551 59.783 9.94481 60.0462 10.8044 59.9933C11.664 59.9404 12.4746 59.575 13.0835 58.9659C13.8459 58.2036 31.7647 40.0271 31.7647 17.6471C31.7424 17.4474 31.7023 17.2501 31.6447 17.0577C31.6765 16.6624 31.7647 16.2847 31.7647 15.8824C31.76 11.6715 30.0852 7.6345 27.1077 4.65699C24.1302 1.67949 20.0932 0.00467092 15.8824 0Z" fill="#0099CC"/>
<path d="M73.5294 15.8824C73.5294 12.7411 72.5979 9.67044 70.8527 7.0586C69.1075 4.44676 66.627 2.41108 63.7249 1.20898C60.8228 0.0068815 57.6294 -0.307642 54.5485 0.305182C51.4676 0.918006 48.6377 2.43065 46.4165 4.65184C44.1953 6.87303 42.6827 9.703 42.0698 12.7839C41.457 15.8647 41.7715 19.0582 42.9736 21.9603C44.1757 24.8624 46.2114 27.3429 48.8233 29.0881C51.4351 30.8332 54.5058 31.7647 57.647 31.7647C57.7211 31.7647 57.7882 31.7435 57.8588 31.7435C56.1476 39.7568 53.2724 47.4763 49.3247 54.6565C48.882 55.3953 48.7247 56.2704 48.8825 57.1171C49.0402 57.9637 49.5021 58.7235 50.1811 59.2533C50.8602 59.783 51.7095 60.0463 52.5691 59.9933C53.4287 59.9404 54.2393 59.575 54.8482 58.9659C55.6105 58.2036 73.5294 40.0271 73.5294 17.6471C73.5071 17.4474 73.4669 17.2501 73.4094 17.0577C73.4411 16.6624 73.5294 16.2847 73.5294 15.8824Z" fill="#0099CC"/>
</svg>
